SplineFontDB: 3.2
FontName: Sudoers-BoldItalic
FullName: Sudoers BoldItalic
FamilyName: Sudoers
Weight: Bold
Copyright: 2020
Version: 1.1
ItalicAngle: 0
UnderlinePosition: -160
UnderlineWidth: 64
Ascent: 819
Descent: 205
InvalidEm: 0
sfntRevision: 0x0001199a
LayerCount: 2
Layer: 0 1 "Back" 1
Layer: 1 1 "Fore" 0
XUID: [1021 796 -163880829 14563500]
StyleMap: 0x0040
FSType: 8
OS2Version: 3
OS2_WeightWidthSlopeOnly: 0
OS2_UseTypoMetrics: 0
CreationTime: 1595630991
ModificationTime: 1606611996
PfmFamily: 81
TTFWeight: 400
TTFWidth: 5
LineGap: 0
VLineGap: 0
Panose: 0 0 5 9 0 0 0 0 0 0
OS2TypoAscent: 896
OS2TypoAOffset: 0
OS2TypoDescent: -192
OS2TypoDOffset: 0
OS2TypoLinegap: 0
OS2WinAscent: 896
OS2WinAOffset: 0
OS2WinDescent: 192
OS2WinDOffset: 0
HheadAscent: 896
HheadAOffset: 0
HheadDescent: -192
HheadDOffset: 0
OS2SubXSize: 665
OS2SubYSize: 614
OS2SubXOff: 0
OS2SubYOff: 76
OS2SupXSize: 665
OS2SupYSize: 614
OS2SupXOff: 0
OS2SupYOff: 358
OS2StrikeYSize: 64
OS2StrikeYPos: 268
OS2CapHeight: 640
OS2XHeight: 448
OS2Vendor: 'JENS'
OS2CodePages: 6000009f.00000000
OS2UnicodeRanges: 00000287.02000801.00000000.00000000
Lookup: 1 0 0 "'aalt' Access All Alternates in Latin lookup 0" { "'aalt' Access All Alternates in Latin lookup 0 subtable"  } ['aalt' ('DFLT' <'dflt' > 'latn' <'CAT ' 'MOL ' 'ROM ' 'dflt' > ) ]
Lookup: 3 0 0 "'aalt' Access All Alternates in Latin lookup 1" { "'aalt' Access All Alternates in Latin lookup 1 subtable"  } ['aalt' ('DFLT' <'dflt' > 'latn' <'CAT ' 'MOL ' 'ROM ' 'dflt' > ) ]
Lookup: 6 0 0 "'ccmp' Glyph Composition/Decomposition in Latin lookup 2" { "'ccmp' Glyph Composition/Decomposition in Latin lookup 2 contextual 0"  "'ccmp' Glyph Composition/Decomposition in Latin lookup 2 contextual 1"  "'ccmp' Glyph Composition/Decomposition in Latin lookup 2 contextual 2"  "'ccmp' Glyph Composition/Decomposition in Latin lookup 2 contextual 3"  } ['ccmp' ('DFLT' <'dflt' > 'latn' <'CAT ' 'MOL ' 'ROM ' 'dflt' > ) ]

StartChar: .notdef
Encoding: 1114112 -1 0
Width: 448
Flags: W
LayerCount: 2
Fore
SplineSet
-53 -46 m 1,0,-1
 116 686 l 1,1,-1
 501 686 l 1,2,-1
 331 -46 l 1,3,-1
 -53 -46 l 1,0,-1
249.5 344.5 m 128,-1,5
 235 328 235 328 225.5 314 c 128,-1,6
 216 300 216 300 207 283 c 0,7,8
 190 252 190 252 178 211 c 1,9,-1
 212 209 l 1,10,11
 228 265 228 265 253 301 c 0,12,13
 281 341 281 341 325 382 c 0,14,15
 373 428 373 428 387 453 c 0,16,17
 396 470 396 470 401 494 c 0,18,19
 415 556 415 556 369 589 c 128,-1,20
 323 622 323 622 191 628 c 1,21,-1
 182 597 l 1,22,23
 337 586 337 586 359 540 c 0,24,25
 370 518 370 518 363 487.5 c 128,-1,26
 356 457 356 457 338.5 435 c 128,-1,27
 321 413 321 413 292.5 387 c 128,-1,4
 264 361 264 361 249.5 344.5 c 128,-1,5
206.5 54 m 128,-1,29
 212 77 212 77 202.5 89.5 c 128,-1,30
 193 102 193 102 173.5 102 c 128,-1,31
 154 102 154 102 139 89 c 0,32,33
 124 77 124 77 118.5 54 c 128,-1,34
 113 31 113 31 122.5 18.5 c 128,-1,35
 132 6 132 6 151.5 6 c 128,-1,36
 171 6 171 6 186 18.5 c 128,-1,28
 201 31 201 31 206.5 54 c 128,-1,29
EndSplineSet
EndChar

StartChar: A
Encoding: 65 65 3
Width: 448
GlyphClass: 2
Flags: W
LayerCount: 2
Fore
SplineSet
101.745117188 0 m 1,0,-1
 1.7451171875 0 l 1,1,-1
 6.7451171875 17 l 2,2,3
 61.7451171875 196 61.7451171875 196 136.245117188 355.5 c 128,-1,4
 210.745117188 515 210.745117188 515 304.745117188 634 c 2,5,-1
 311.745117188 643 l 1,6,-1
 403.745117188 643 l 1,7,8
 445.745117188 516 445.745117188 516 446.245117188 356 c 128,-1,9
 446.745117188 196 446.745117188 196 419.745117188 17 c 2,10,-1
 416.745117188 0 l 1,11,-1
 316.745117188 0 l 1,12,13
 328.745117188 92 328.745117188 92 332.745117188 176 c 1,14,-1
 166.745117188 176 l 1,15,16
 132.745117188 92 132.745117188 92 101.745117188 0 c 1,0,-1
325.745117188 503 m 1,17,18
 264.745117188 402 264.745117188 402 206.745117188 272 c 1,19,-1
 337.745117188 272 l 1,20,21
 340.745117188 402 340.745117188 402 325.745117188 503 c 1,17,18
EndSplineSet
Substitution2: "'sups' Superscript in Latin lookup 9 subtable" A.sups
Substitution2: "'aalt' Access All Alternates in Latin lookup 0 subtable" A.sups
EndChar

StartChar: Aogonek
Encoding: 260 260 10
Width: 448
GlyphClass: 2
Flags: W
LayerCount: 2
Fore
SplineSet
242.74609375 -171 m 0,0,1
 219.74609375 -146 219.74609375 -146 229.74609375 -102 c 0,2,3
 242.74609375 -44 242.74609375 -44 316.74609375 11 c 1,4,5
 326.74609375 90 326.74609375 90 332.74609375 176 c 1,6,-1
 164.74609375 176 l 1,7,8
 131.74609375 92 131.74609375 92 101.74609375 0 c 1,9,-1
 1.74609375 0 l 1,10,-1
 6.74609375 17 l 2,11,12
 61.74609375 196 61.74609375 196 136.24609375 355.5 c 128,-1,13
 210.74609375 515 210.74609375 515 302.74609375 634 c 2,14,-1
 309.74609375 643 l 1,15,-1
 402.74609375 643 l 1,16,17
 445.74609375 516 445.74609375 516 446.24609375 356 c 128,-1,18
 446.74609375 196 446.74609375 196 418.74609375 11 c 1,19,20
 377.74609375 -27 377.74609375 -27 359.74609375 -50 c 0,21,22
 341.74609375 -74 341.74609375 -74 337.74609375 -92 c 0,23,24
 335.74609375 -100 335.74609375 -100 337.74609375 -101.5 c 128,-1,25
 339.74609375 -103 339.74609375 -103 345.74609375 -103 c 0,26,27
 356.74609375 -103 356.74609375 -103 371.74609375 -96 c 2,28,-1
 389.74609375 -89 l 1,29,-1
 394.74609375 -172 l 1,30,-1
 382.74609375 -179 l 2,31,32
 348.74609375 -197 348.74609375 -197 311.74609375 -197 c 0,33,34
 265.74609375 -197 265.74609375 -197 242.74609375 -171 c 0,0,1
323.74609375 503 m 1,35,36
 262.74609375 402 262.74609375 402 204.74609375 272 c 1,37,-1
 336.74609375 272 l 1,38,39
 338.74609375 402 338.74609375 402 323.74609375 503 c 1,35,36
EndSplineSet
EndChar

StartChar: Aringacute
Encoding: 506 506 12
Width: 448
GlyphClass: 2
Flags: W
LayerCount: 2
Fore
SplineSet
356.5 0 m 1,0,-1
 256.5 0 l 1,1,2
 268.5 92 268.5 92 272.5 176 c 1,3,-1
 106.5 176 l 1,4,5
 72.5 92 72.5 92 41.5 0 c 1,6,-1
 -58.5 0 l 1,7,-1
 -53.5 17 l 2,8,9
 -2.5 180 -2.5 180 63 325 c 128,-1,10
 128.5 470 128.5 470 204.5 582 c 1,11,12
 175.5 605 175.5 605 174.5 642 c 0,13,14
 174.5 658 174.5 658 178.5 674 c 0,15,16
 188.5 717 188.5 717 221.5 749 c 0,17,18
 253.5 778 253.5 778 295.5 788 c 1,19,-1
 360.5 896 l 1,20,-1
 506.5 896 l 1,21,-1
 401.5 771 l 1,22,23
 419.5 757 419.5 757 428.5 737 c 0,24,25
 438.5 708 438.5 708 431.5 675 c 0,26,27
 424.5 643 424.5 643 403.5 617 c 0,28,29
 386.5 597 386.5 597 362.5 583 c 1,30,31
 387.5 471 387.5 471 386 325.5 c 128,-1,32
 384.5 180 384.5 180 359.5 17 c 2,33,-1
 356.5 0 l 1,0,-1
287.5 694 m 0,34,35
 277.5 686 277.5 686 274.5 673.5 c 128,-1,36
 271.5 661 271.5 661 278.5 652.5 c 128,-1,37
 285.5 644 285.5 644 298 644 c 128,-1,38
 310.5 644 310.5 644 320.5 652 c 0,39,40
 331.5 661 331.5 661 334.5 673.5 c 128,-1,41
 337.5 686 337.5 686 331 694.5 c 128,-1,42
 324.5 703 324.5 703 311.5 703 c 0,43,44
 302.5 703 302.5 703 297.5 700.5 c 128,-1,45
 292.5 698 292.5 698 287.5 694 c 0,34,35
265.5 503 m 1,46,47
 204.5 402 204.5 402 146.5 272 c 1,48,-1
 277.5 272 l 1,49,50
 280.5 402 280.5 402 265.5 503 c 1,46,47
EndSplineSet
EndChar

StartChar: AE
Encoding: 198 198 14
Width: 448
GlyphClass: 2
Flags: W
LayerCount: 2
Fore
SplineSet
403.5 240 m 1,0,-1
 281.5 240 l 1,1,-1
 248.5 97 l 1,2,-1
 429.5 97 l 1,3,-1
 407.5 0 l 1,4,-1
 116.5 0 l 1,5,-1
 156.5 176 l 1,6,-1
 63.5 176 l 1,7,8
 30.5 92 30.5 92 1.5 0 c 1,9,-1
 -97.5 0 l 1,10,-1
 -92.5 17 l 2,11,12
 -37.5 195 -37.5 195 36.5 354 c 128,-1,13
 110.5 513 110.5 513 197.5 631 c 2,14,-1
 204.5 640 l 1,15,-1
 545.5 640 l 1,16,-1
 523.5 543 l 1,17,-1
 351.5 543 l 1,18,-1
 303.5 336 l 1,19,-1
 425.5 336 l 1,20,-1
 403.5 240 l 1,0,-1
103.5 272 m 1,21,-1
 179.5 272 l 1,22,-1
 240.5 537 l 1,23,24
 169.5 426 169.5 426 103.5 272 c 1,21,-1
EndSplineSet
EndChar

StartChar: B
Encoding: 66 66 16
Width: 448
Flags: W
LayerCount: 2
Fore
SplineSet
404.088867188 273 m 0,0,1
 425.088867188 234 425.088867188 234 411.088867188 175 c 0,2,3
 392.088867188 91 392.088867188 91 326.088867188 45.5 c 128,-1,4
 260.088867188 0 260.088867188 0 145.088867188 0 c 2,5,-1
 -16.9111328125 0 l 1,6,-1
 130.088867188 640 l 1,7,-1
 268.088867188 640 l 2,8,9
 388.088867188 640 388.088867188 640 435.088867188 596 c 0,10,11
 478.088867188 552 478.088867188 552 459.088867188 469.5 c 128,-1,12
 440.088867188 387 440.088867188 387 357.088867188 318 c 1,13,14
 389.088867188 302 389.088867188 302 404.088867188 273 c 0,0,1
319.088867188 403 m 128,-1,16
 345.088867188 434 345.088867188 434 353.088867188 466 c 0,17,18
 362.088867188 506 362.088867188 506 338.088867188 524 c 0,19,20
 313.088867188 543 313.088867188 543 239.088867188 543 c 2,21,-1
 206.088867188 543 l 1,22,-1
 162.088867188 352 l 1,23,-1
 256.088867188 352 l 1,24,15
 293.088867188 372 293.088867188 372 319.088867188 403 c 128,-1,16
103.088867188 97 m 1,25,-1
 155.088867188 97 l 2,26,27
 235.088867188 97 235.088867188 97 271.088867188 117 c 0,28,29
 301.088867188 136 301.088867188 136 310.088867188 178 c 0,30,31
 319.088867188 215 319.088867188 215 296.088867188 236 c 0,32,33
 270.088867188 256 270.088867188 256 192.088867188 256 c 2,34,-1
 139.088867188 256 l 1,35,-1
 103.088867188 97 l 1,25,-1
EndSplineSet
Substitution2: "'sups' Superscript in Latin lookup 9 subtable" B.sups
Substitution2: "'aalt' Access All Alternates in Latin lookup 0 subtable" B.sups
EndChar

StartChar: C
Encoding: 67 67 17
Width: 448
GlyphClass: 2
Flags: W
LayerCount: 2
Fore
SplineSet
-3.24609375 129.5 m 128,-1,1
 -7.24609375 201 -7.24609375 201 20.25390625 319 c 128,-1,2
 47.75390625 437 47.75390625 437 83.75390625 507 c 0,3,4
 121.75390625 580 121.75390625 580 176.75390625 614 c 0,5,6
 237.75390625 647 237.75390625 647 338.75390625 647 c 0,7,8
 392.75390625 647 392.75390625 647 437.75390625 635 c 2,9,-1
 451.75390625 631 l 1,10,-1
 410.75390625 538 l 1,11,12
 377.75390625 546 377.75390625 546 364.75390625 547 c 0,13,14
 341.75390625 550 341.75390625 550 323.75390625 550 c 0,15,16
 254.75390625 550 254.75390625 550 219.75390625 529 c 0,17,18
 184.75390625 508 184.75390625 508 163.75390625 463 c 0,19,20
 145.75390625 417 145.75390625 417 123.25390625 319 c 128,-1,21
 100.75390625 221 100.75390625 221 97.75390625 175 c 0,22,23
 95.75390625 129 95.75390625 129 121.75390625 109 c 0,24,25
 147.75390625 88 147.75390625 88 216.75390625 88 c 0,26,27
 256.75390625 88 256.75390625 88 299.75390625 99 c 2,28,-1
 315.75390625 103 l 1,29,-1
 313.75390625 10 l 1,30,-1
 298.75390625 6 l 2,31,32
 245.75390625 -9 245.75390625 -9 187.75390625 -9 c 0,33,34
 86.75390625 -9 86.75390625 -9 40.75390625 24 c 0,35,0
 0.75390625 58 0.75390625 58 -3.24609375 129.5 c 128,-1,1
EndSplineSet
Substitution2: "'sups' Superscript in Latin lookup 9 subtable" C.sups
Substitution2: "'aalt' Access All Alternates in Latin lookup 0 subtable" C.sups
EndChar

StartChar: Ccedilla
Encoding: 199 199 20
Width: 448
GlyphClass: 2
Flags: W
LayerCount: 2
Fore
SplineSet
158 -7 m 1,0,1
 82 0 82 0 50 31 c 0,2,3
 15 66 15 66 12 136.5 c 128,-1,4
 9 207 9 207 36 322 c 128,-1,5
 63 437 63 437 99 507 c 0,6,7
 137 580 137 580 192 614 c 0,8,9
 253 647 253 647 354 647 c 0,10,11
 408 647 408 647 453 635 c 2,12,-1
 467 631 l 1,13,-1
 426 538 l 1,14,15
 393 546 393 546 380 547 c 0,16,17
 357 550 357 550 339 550 c 0,18,19
 270 550 270 550 235 529 c 0,20,21
 200 508 200 508 179 462 c 0,22,23
 160 415 160 415 137.5 316.5 c 128,-1,24
 115 218 115 218 112 172 c 0,25,26
 110 125 110 125 136 104 c 0,27,28
 162 83 162 83 231 83 c 0,29,30
 271 83 271 83 314 93 c 2,31,-1
 330 97 l 1,32,-1
 329 10 l 1,33,-1
 314 6 l 2,34,35
 290 -1 290 -1 265 -4 c 1,36,37
 240 -87 240 -87 191 -137 c 0,38,39
 126 -192 126 -192 -4 -192 c 2,40,-1
 -19 -192 l 1,41,-1
 0 -96 l 1,42,43
 30 -95 30 -95 43 -93 c 0,44,45
 71 -90 71 -90 90 -83 c 0,46,47
 117 -74 117 -74 132 -56 c 128,-1,48
 147 -38 147 -38 158 -7 c 1,0,1
EndSplineSet
EndChar

StartChar: D
Encoding: 68 68 23
Width: 448
GlyphClass: 2
Flags: W
LayerCount: 2
Fore
SplineSet
137.596679688 640 m 1,0,-1
 264.596679688 640 l 2,1,2
 364.596679688 640 364.596679688 640 411.596679688 606 c 0,3,4
 451.596679688 572 451.596679688 572 456.596679688 501 c 128,-1,5
 461.596679688 430 461.596679688 430 435.596679688 317.5 c 128,-1,6
 409.596679688 205 409.596679688 205 372.596679688 135 c 0,7,8
 313.596679688 26 313.596679688 26 192.596679688 5 c 0,9,10
 157.596679688 0 157.596679688 0 118.596679688 0 c 2,11,-1
 -9.4033203125 0 l 1,12,-1
 137.596679688 640 l 1,0,-1
110.596679688 97 m 1,13,-1
 133.596679688 97 l 2,14,15
 201.596679688 97 201.596679688 97 237.596679688 117 c 128,-1,16
 273.596679688 137 273.596679688 137 293.596679688 182 c 0,17,18
 311.596679688 227 311.596679688 227 332.596679688 317 c 0,19,20
 353.596679688 410 353.596679688 410 355.596679688 456 c 0,21,22
 356.596679688 502 356.596679688 502 330.096679688 522.5 c 128,-1,23
 303.596679688 543 303.596679688 543 236.596679688 543 c 2,24,-1
 213.596679688 543 l 1,25,-1
 110.596679688 97 l 1,13,-1
EndSplineSet
Substitution2: "'sups' Superscript in Latin lookup 9 subtable" D.sups
Substitution2: "'aalt' Access All Alternates in Latin lookup 0 subtable" D.sups
EndChar

StartChar: Eth
Encoding: 208 208 24
Width: 448
GlyphClass: 2
Flags: W
LayerCount: 2
Fore
SplineSet
137.596679688 640 m 1,0,-1
 264.596679688 640 l 2,1,2
 364.596679688 640 364.596679688 640 411.596679688 606 c 0,3,4
 451.596679688 572 451.596679688 572 456.596679688 501 c 128,-1,5
 461.596679688 430 461.596679688 430 435.596679688 317.5 c 128,-1,6
 409.596679688 205 409.596679688 205 372.596679688 135 c 0,7,8
 313.596679688 26 313.596679688 26 192.596679688 5 c 0,9,10
 157.596679688 0 157.596679688 0 118.596679688 0 c 2,11,-1
 -9.4033203125 0 l 1,12,-1
 45.5966796875 240 l 1,13,-1
 -5.4033203125 240 l 1,14,-1
 16.5966796875 336 l 1,15,-1
 67.5966796875 336 l 1,16,-1
 137.596679688 640 l 1,0,-1
110.596679688 97 m 1,17,-1
 133.596679688 97 l 2,18,19
 201.596679688 97 201.596679688 97 237.596679688 117 c 128,-1,20
 273.596679688 137 273.596679688 137 293.596679688 182 c 0,21,22
 311.596679688 227 311.596679688 227 332.596679688 317 c 0,23,24
 353.596679688 410 353.596679688 410 355.596679688 456 c 0,25,26
 356.596679688 502 356.596679688 502 330.096679688 522.5 c 128,-1,27
 303.596679688 543 303.596679688 543 236.596679688 543 c 2,28,-1
 213.596679688 543 l 1,29,-1
 165.596679688 336 l 1,30,-1
 282.596679688 336 l 1,31,-1
 260.596679688 240 l 1,32,-1
 143.596679688 240 l 1,33,-1
 110.596679688 97 l 1,17,-1
EndSplineSet
EndChar

StartChar: E
Encoding: 69 69 27
Width: 448
GlyphClass: 2
Flags: W
LayerCount: 2
Fore
SplineSet
358.5 97 m 1,0,-1
 335.5 0 l 1,1,-1
 -26.5 0 l 1,2,-1
 120.5 640 l 1,3,-1
 474.5 640 l 1,4,-1
 451.5 543 l 1,5,-1
 196.5 543 l 1,6,-1
 148.5 336 l 1,7,-1
 353.5 336 l 1,8,-1
 331.5 240 l 1,9,-1
 126.5 240 l 1,10,-1
 93.5 97 l 1,11,-1
 358.5 97 l 1,0,-1
EndSplineSet
Substitution2: "'sups' Superscript in Latin lookup 9 subtable" E.sups
Substitution2: "'aalt' Access All Alternates in Latin lookup 0 subtable" E.sups
EndChar

StartChar: Eogonek
Encoding: 280 280 36
Width: 448
GlyphClass: 2
Flags: W
LayerCount: 2
Fore
SplineSet
302.5 -179 m 2,0,1
 268.5 -197 268.5 -197 231.5 -197 c 0,2,3
 170.5 -197 170.5 -197 149.5 -157 c 0,4,5
 137.5 -134 137.5 -134 145.5 -102 c 0,6,7
 157.5 -50 157.5 -50 215.5 0 c 1,8,-1
 -26.5 0 l 1,9,-1
 120.5 640 l 1,10,-1
 474.5 640 l 1,11,-1
 451.5 543 l 1,12,-1
 196.5 543 l 1,13,-1
 148.5 336 l 1,14,-1
 353.5 336 l 1,15,-1
 331.5 240 l 1,16,-1
 126.5 240 l 1,17,-1
 93.5 97 l 1,18,-1
 358.5 97 l 1,19,-1
 338.5 10 l 1,20,21
 298.5 -27 298.5 -27 280.5 -50 c 0,22,23
 262.5 -74 262.5 -74 257.5 -92 c 0,24,25
 255.5 -100 255.5 -100 257.5 -101.5 c 128,-1,26
 259.5 -103 259.5 -103 265.5 -103 c 0,27,28
 276.5 -103 276.5 -103 291.5 -96 c 2,29,-1
 309.5 -89 l 1,30,-1
 314.5 -172 l 1,31,-1
 302.5 -179 l 2,0,1
EndSplineSet
EndChar

StartChar: F
Encoding: 70 70 37
Width: 448
GlyphClass: 2
Flags: W
LayerCount: 2
Fore
SplineSet
122 240 m 1,0,-1
 66 0 l 1,1,-1
 -31 0 l 1,2,-1
 116 640 l 1,3,-1
 479 640 l 1,4,-1
 457 543 l 1,5,-1
 192 543 l 1,6,-1
 144 336 l 1,7,-1
 349 336 l 1,8,-1
 327 240 l 1,9,-1
 122 240 l 1,0,-1
EndSplineSet
Substitution2: "'sups' Superscript in Latin lookup 9 subtable" F.sups
Substitution2: "'aalt' Access All Alternates in Latin lookup 0 subtable" F.sups
EndChar

StartChar: G
Encoding: 71 71 38
Width: 448
GlyphClass: 2
Flags: W
LayerCount: 2
Fore
SplineSet
240.75390625 354 m 1,0,-1
 394.75390625 353 l 1,1,-1
 315.75390625 11 l 1,2,-1
 303.75390625 8 l 2,3,4
 263.75390625 -4 263.75390625 -4 211.75390625 -8 c 0,5,6
 196.75390625 -9 196.75390625 -9 180.75390625 -9 c 0,7,8
 80.75390625 -9 80.75390625 -9 34.75390625 24 c 0,9,10
 -5.24609375 57 -5.24609375 57 -9.24609375 129 c 128,-1,11
 -13.24609375 201 -13.24609375 201 14.25390625 319 c 128,-1,12
 41.75390625 437 41.75390625 437 77.75390625 507 c 0,13,14
 115.75390625 580 115.75390625 580 170.75390625 614 c 0,15,16
 231.75390625 647 231.75390625 647 331.75390625 647 c 0,17,18
 392.75390625 647 392.75390625 647 444.75390625 631 c 2,19,-1
 457.75390625 627 l 1,20,-1
 416.75390625 535 l 1,21,-1
 402.75390625 538 l 2,22,23
 359.75390625 550 359.75390625 550 316.75390625 550 c 0,24,25
 248.75390625 550 248.75390625 550 213.75390625 529 c 0,26,27
 178.75390625 508 178.75390625 508 158.75390625 463 c 0,28,29
 140.75390625 417 140.75390625 417 117.75390625 319 c 128,-1,30
 94.75390625 221 94.75390625 221 92.75390625 175 c 0,31,32
 90.75390625 129 90.75390625 129 115.75390625 109 c 0,33,34
 140.75390625 88 140.75390625 88 209.75390625 88 c 0,35,36
 221.75390625 88 221.75390625 88 235.75390625 89 c 1,37,-1
 274.75390625 256 l 1,38,-1
 221.75390625 258 l 1,39,-1
 240.75390625 354 l 1,0,-1
EndSplineSet
Substitution2: "'sups' Superscript in Latin lookup 9 subtable" G.sups
Substitution2: "'aalt' Access All Alternates in Latin lookup 0 subtable" G.sups
EndChar

StartChar: H
Encoding: 72 72 43
Width: 448
GlyphClass: 2
Flags: W
HStem: 0 21G<-33 68.6667 235 337.625> 240 96<142 291> 620 20G<109.406 212 378.395 481>
DStem2: -33 0 64 0 0.225304 0.974288<21.8545 268.301 366.789 656.664> 235 0 333 0 0.225304 0.974288<22.0798 246.446 344.935 656.89>
LayerCount: 2
Fore
SplineSet
120 240 m 1,0,-1
 64 0 l 1,1,-1
 -33 0 l 1,2,-1
 114 640 l 1,3,-1
 212 640 l 1,4,-1
 142 336 l 1,5,-1
 313 336 l 1,6,-1
 383 640 l 1,7,-1
 481 640 l 1,8,-1
 333 0 l 1,9,-1
 235 0 l 1,10,-1
 291 240 l 1,11,-1
 120 240 l 1,0,-1
EndSplineSet
Substitution2: "'sups' Superscript in Latin lookup 9 subtable" H.sups
Substitution2: "'aalt' Access All Alternates in Latin lookup 0 subtable" H.sups
EndChar

StartChar: Hbar
Encoding: 294 294 44
Width: 448
GlyphClass: 2
Flags: W
LayerCount: 2
Fore
SplineSet
172 500 m 1,0,-1
 343 500 l 1,1,-1
 375 640 l 1,2,-1
 473 640 l 1,3,-1
 442 507 l 1,4,-1
 489 507 l 1,5,-1
 468 418 l 1,6,-1
 422 418 l 1,7,-1
 325 0 l 1,8,-1
 227 0 l 1,9,-1
 283 240 l 1,10,-1
 112 240 l 1,11,-1
 56 0 l 1,12,-1
 -41 0 l 1,13,-1
 55 418 l 1,14,-1
 9 418 l 1,15,-1
 29 507 l 1,16,-1
 76 507 l 1,17,-1
 106 640 l 1,18,-1
 204 640 l 1,19,-1
 172 500 l 1,0,-1
325 424 m 1,20,-1
 154 424 l 1,21,-1
 134 336 l 1,22,-1
 305 336 l 1,23,-1
 325 424 l 1,20,-1
EndSplineSet
EndChar

StartChar: I
Encoding: 73 73 46
Width: 448
GlyphClass: 2
Flags: W
HStem: 0 21G<67 240.675> 620 20G<212.385 381>
VStem: 67 314
DStem2: 117 90 224 93 0.228097 0.973638<27.3273 473.482>
LayerCount: 2
Fore
SplineSet
254 77 m 1,0,-1
 236 0 l 1,1,-1
 67 0 l 1,2,-1
 85 78 l 1,3,-1
 117 90 l 1,4,-1
 225 551 l 1,5,-1
 199 562 l 1,6,-1
 217 640 l 1,7,-1
 381 640 l 1,8,-1
 363 562 l 1,9,-1
 331 551 l 1,10,-1
 224 93 l 1,11,-1
 254 77 l 1,0,-1
EndSplineSet
Substitution2: "'sups' Superscript in Latin lookup 9 subtable" I.sups
Substitution2: "'aalt' Access All Alternates in Latin lookup 0 subtable" I.sups
EndChar

StartChar: IJ
Encoding: 306 306 47
Width: 448
GlyphClass: 2
Flags: W
LayerCount: 2
Fore
SplineSet
194 0 m 2,0,-1
 -61 0 l 1,1,-1
 -42 80 l 1,2,-1
 16 90 l 1,3,-1
 122 550 l 1,4,-1
 72 560 l 1,5,-1
 91 640 l 1,6,-1
 293 640 l 1,7,-1
 274 561 l 1,8,-1
 220 551 l 1,9,-1
 115 97 l 1,10,-1
 216 97 l 2,11,12
 256 97 256 97 275 117 c 0,13,14
 296 140 296 140 307 187 c 2,15,-1
 389 543 l 1,16,-1
 311 543 l 1,17,-1
 334 640 l 1,18,-1
 509 640 l 1,19,-1
 405 188 l 2,20,21
 383 93 383 93 327 46.5 c 128,-1,22
 271 0 271 0 194 0 c 2,0,-1
EndSplineSet
EndChar

StartChar: Iogonek
Encoding: 302 302 55
Width: 448
GlyphClass: 2
Flags: W
LayerCount: 2
Fore
SplineSet
290 -179 m 2,0,1
 256 -197 256 -197 219 -197 c 0,2,3
 172 -197 172 -197 147 -171 c 0,4,5
 121 -146 121 -146 131 -102 c 0,6,7
 143 -50 143 -50 203 0 c 1,8,-1
 -20 0 l 1,9,-1
 -2 81 l 1,10,-1
 108 91 l 1,11,-1
 214 549 l 1,12,-1
 112 559 l 1,13,-1
 131 640 l 1,14,-1
 468 640 l 1,15,-1
 449 559 l 1,16,-1
 339 549 l 1,17,-1
 233 91 l 1,18,-1
 343 82 l 1,19,-1
 326 10 l 1,20,21
 297 -17 297 -17 285 -30.5 c 128,-1,22
 273 -44 273 -44 267 -51 c 0,23,24
 250 -74 250 -74 246 -92 c 0,25,26
 244 -100 244 -100 246 -101.5 c 128,-1,27
 248 -103 248 -103 253 -103 c 0,28,29
 264 -103 264 -103 280 -96 c 2,30,-1
 297 -89 l 1,31,-1
 303 -172 l 1,32,-1
 290 -179 l 2,0,1
EndSplineSet
EndChar

StartChar: J
Encoding: 74 74 57
Width: 448
GlyphClass: 2
Flags: W
LayerCount: 2
Fore
SplineSet
97.0458984375 105 m 0,0,1
 113.045898438 89 113.045898438 89 154.045898438 89 c 0,2,3
 206.045898438 89 206.045898438 89 229.045898438 109 c 0,4,5
 250.045898438 132 250.045898438 132 260.045898438 179 c 2,6,-1
 345.045898438 543 l 1,7,-1
 171.045898438 543 l 1,8,-1
 193.045898438 640 l 1,9,-1
 465.045898438 640 l 1,10,-1
 358.045898438 180 l 2,11,12
 336.045898438 85 336.045898438 85 280.045898438 38.5 c 128,-1,13
 224.045898438 -8 224.045898438 -8 132.045898438 -8 c 0,14,15
 57.0458984375 -8 57.0458984375 -8 23.0458984375 20 c 0,16,17
 -18.9541015625 55 -18.9541015625 55 -16.9541015625 133 c 2,18,-1
 -15.9541015625 149 l 1,19,-1
 82.0458984375 174 l 1,20,-1
 82.0458984375 157 l 2,21,22
 82.0458984375 122 82.0458984375 122 97.0458984375 105 c 0,0,1
EndSplineSet
Substitution2: "'sups' Superscript in Latin lookup 9 subtable" J.sups
Substitution2: "'aalt' Access All Alternates in Latin lookup 0 subtable" J.sups
EndChar

StartChar: K
Encoding: 75 75 59
Width: 448
GlyphClass: 2
Flags: W
LayerCount: 2
Fore
SplineSet
337 0 m 1,0,-1
 237 0 l 1,1,-1
 262 151 l 2,2,3
 270 205 270 205 251.5 224.5 c 128,-1,4
 233 244 233 244 170 244 c 2,5,-1
 114 244 l 1,6,-1
 57 0 l 1,7,-1
 -40 0 l 1,8,-1
 107 640 l 1,9,-1
 205 640 l 1,10,-1
 136 342 l 1,11,-1
 163 342 l 1,12,13
 241 407 241 407 291 469 c 128,-1,14
 341 531 341 531 381 626 c 2,15,-1
 387 640 l 1,16,-1
 488 640 l 1,17,-1
 481 622 l 2,18,19
 441 520 441 520 393 449 c 0,20,21
 352 388 352 388 286 330 c 1,22,23
 334 315 334 315 352 279 c 0,24,25
 375 235 375 235 363 160 c 2,26,-1
 337 0 l 1,0,-1
EndSplineSet
Substitution2: "'sups' Superscript in Latin lookup 9 subtable" K.sups
Substitution2: "'aalt' Access All Alternates in Latin lookup 0 subtable" K.sups
EndChar

StartChar: L
Encoding: 76 76 61
Width: 448
GlyphClass: 2
Flags: W
HStem: 0 97<151.5 393.5> 620 20G<173.906 276.5>
DStem2: 31.5 0 151.5 97 0.223858 0.974622<121.401 656.665>
LayerCount: 2
Fore
SplineSet
416.5 97 m 1,0,-1
 393.5 0 l 1,1,-1
 31.5 0 l 1,2,-1
 178.5 640 l 1,3,-1
 276.5 640 l 1,4,-1
 151.5 97 l 1,5,-1
 416.5 97 l 1,0,-1
EndSplineSet
Substitution2: "'sups' Superscript in Latin lookup 9 subtable" L.sups
Substitution2: "'aalt' Access All Alternates in Latin lookup 0 subtable" L.sups
EndChar

StartChar: Lslash
Encoding: 321 321 66
Width: 448
GlyphClass: 2
Flags: W
LayerCount: 2
Fore
SplineSet
222.5 243 m 1,0,-1
 188.5 97 l 1,1,-1
 441.5 97 l 1,2,-1
 418.5 0 l 1,3,-1
 55.5 0 l 1,4,-1
 94.5 169 l 1,5,-1
 39.5 134 l 1,6,-1
 6.5 210 l 1,7,-1
 120.5 281 l 1,8,-1
 203.5 640 l 1,9,-1
 301.5 640 l 1,10,-1
 235.5 355 l 1,11,-1
 344.5 411 l 1,12,-1
 389.5 336 l 1,13,-1
 222.5 243 l 1,0,-1
EndSplineSet
EndChar

StartChar: M
Encoding: 77 77 67
Width: 448
GlyphClass: 2
Flags: W
LayerCount: 2
Fore
SplineSet
-63.5 0 m 1,0,1
 23.5 355 23.5 355 108.5 640 c 1,2,-1
 215.5 640 l 1,3,-1
 235.5 316 l 1,4,-1
 404.5 640 l 1,5,-1
 511.5 640 l 1,6,7
 465.5 355 465.5 355 388.5 0 c 1,8,-1
 290.5 0 l 1,9,-1
 294.5 16 l 2,10,11
 335.5 195 335.5 195 380.5 423 c 1,12,-1
 240.5 150 l 1,13,-1
 154.5 150 l 1,14,-1
 138.5 424 l 1,15,16
 60.5 116 60.5 116 37.5 16 c 2,17,-1
 34.5 0 l 1,18,-1
 -63.5 0 l 1,0,1
EndSplineSet
Substitution2: "'sups' Superscript in Latin lookup 9 subtable" M.sups
Substitution2: "'aalt' Access All Alternates in Latin lookup 0 subtable" M.sups
EndChar

StartChar: N
Encoding: 78 78 68
Width: 448
GlyphClass: 2
Flags: W
LayerCount: 2
Fore
SplineSet
154 390 m 1,0,-1
 64 0 l 1,1,-1
 -33 0 l 1,2,-1
 114 640 l 1,3,-1
 217 640 l 1,4,-1
 293 250 l 1,5,-1
 383 640 l 1,6,-1
 481 640 l 1,7,-1
 333 0 l 1,8,-1
 230 0 l 1,9,-1
 154 390 l 1,0,-1
EndSplineSet
Substitution2: "'sups' Superscript in Latin lookup 9 subtable" N.sups
Substitution2: "'aalt' Access All Alternates in Latin lookup 0 subtable" N.sups
EndChar

StartChar: Eng
Encoding: 330 330 72
Width: 448
Flags: W
LayerCount: 2
Fore
SplineSet
297 268 m 1,0,-1
 383 640 l 1,1,-1
 481 640 l 1,2,-1
 336 12 l 2,3,4
 318 -65 318 -65 279 -115 c 128,-1,5
 240 -165 240 -165 162 -195 c 2,6,-1
 144 -201 l 1,7,-1
 115 -111 l 1,8,-1
 135 -104 l 2,9,10
 185 -87 185 -87 205 -66 c 0,11,12
 225 -44 225 -44 236 4 c 2,13,-1
 239 16 l 1,14,-1
 157 396 l 1,15,-1
 157 402 l 1,16,-1
 64 0 l 1,17,-1
 -33 0 l 1,18,-1
 114 640 l 1,19,-1
 216 640 l 1,20,-1
 297 268 l 1,0,-1
EndSplineSet
EndChar

StartChar: O
Encoding: 79 79 74
Width: 448
GlyphClass: 2
Flags: W
LayerCount: 2
Fore
SplineSet
3.16796875 96 m 0,0,1
 -13.83203125 176 -13.83203125 176 18.16796875 319 c 0,2,3
 56.16796875 482 56.16796875 482 120.16796875 564 c 0,4,5
 188.16796875 650 188.16796875 650 299.16796875 650 c 0,6,7
 357.16796875 650 357.16796875 650 395.16796875 627 c 0,8,9
 427.16796875 605 427.16796875 605 440.16796875 564 c 0,10,11
 466.16796875 482 466.16796875 482 428.16796875 320 c 128,-1,12
 390.16796875 158 390.16796875 158 327.16796875 76 c 0,13,14
 260.16796875 -10 260.16796875 -10 147.16796875 -10 c 0,15,16
 26.16796875 -10 26.16796875 -10 3.16796875 96 c 0,0,1
326.66796875 319.5 m 128,-1,18
 347.16796875 409 347.16796875 409 349.16796875 460 c 0,19,20
 350.16796875 511 350.16796875 511 332.16796875 531 c 128,-1,21
 314.16796875 551 314.16796875 551 276.66796875 551 c 128,-1,22
 239.16796875 551 239.16796875 551 212.16796875 531 c 128,-1,23
 185.16796875 511 185.16796875 511 162.16796875 460 c 0,24,25
 141.16796875 409 141.16796875 409 120.16796875 320 c 0,26,27
 90.16796875 189 90.16796875 189 101.16796875 136 c 0,28,29
 106.16796875 118 106.16796875 118 115.16796875 108 c 0,30,31
 132.16796875 89 132.16796875 89 170.16796875 89 c 128,-1,32
 208.16796875 89 208.16796875 89 234.16796875 108 c 0,33,34
 262.16796875 129 262.16796875 129 284.16796875 180 c 0,35,17
 306.16796875 230 306.16796875 230 326.66796875 319.5 c 128,-1,18
EndSplineSet
Substitution2: "'sups' Superscript in Latin lookup 9 subtable" O.sups
Substitution2: "'aalt' Access All Alternates in Latin lookup 0 subtable" O.sups
EndChar

StartChar: Oslash
Encoding: 216 216 82
Width: 448
GlyphClass: 2
Flags: W
LayerCount: 2
Fore
SplineSet
446.5 538 m 1,0,1
 459.5 458 459.5 458 428.5 319 c 0,2,3
 391.5 158 391.5 158 327.5 76 c 0,4,5
 260.5 -10 260.5 -10 147.5 -10 c 0,6,7
 80.5 -10 80.5 -10 43.5 20 c 1,8,-1
 14.5 -22 l 1,9,-1
 -57.5 22 l 1,10,-1
 1.5 104 l 1,11,12
 -11.5 184 -11.5 184 18.5 319 c 0,13,14
 56.5 482 56.5 482 120.5 564 c 0,15,16
 188.5 650 188.5 650 299.5 650 c 0,17,18
 365.5 650 365.5 650 404.5 620 c 1,19,-1
 432.5 662 l 1,20,-1
 505.5 619 l 1,21,-1
 446.5 538 l 1,0,1
278.5 551 m 128,-1,23
 239.5 551 239.5 551 212.5 529.5 c 128,-1,24
 185.5 508 185.5 508 161.5 453 c 0,25,26
 138.5 398 138.5 398 116.5 302 c 0,27,28
 107.5 262 107.5 262 101.5 230 c 1,29,-1
 333.5 527 l 1,30,22
 317.5 551 317.5 551 278.5 551 c 128,-1,23
346.5 410 m 1,31,-1
 114.5 113 l 1,32,33
 130.5 89 130.5 89 167.5 89 c 0,34,35
 168.5 89 168.5 89 170.5 89 c 0,36,37
 207.5 89 207.5 89 233.5 110 c 0,38,39
 261.5 133 261.5 133 285.5 186 c 0,40,41
 308.5 240 308.5 240 330.5 336 c 0,42,43
 340.5 378 340.5 378 346.5 410 c 1,31,-1
EndSplineSet
EndChar

StartChar: OE
Encoding: 338 338 85
Width: 448
GlyphClass: 2
Flags: W
LayerCount: 2
Fore
SplineSet
368.275390625 0 m 1,0,-1
 72.275390625 0 l 2,1,2
 9.275390625 0 9.275390625 0 -21.724609375 32 c 0,3,4
 -87.724609375 101 -87.724609375 101 -37.724609375 319 c 0,5,6
 -1.724609375 477 -1.724609375 477 58.275390625 556 c 0,7,8
 89.275390625 597 89.275390625 597 128.275390625 619 c 0,9,10
 175.275390625 640 175.275390625 640 242.275390625 640 c 2,11,-1
 507.275390625 640 l 1,12,-1
 484.275390625 543 l 1,13,-1
 328.275390625 543 l 1,14,-1
 280.275390625 336 l 1,15,-1
 401.275390625 336 l 1,16,-1
 379.275390625 240 l 1,17,-1
 251.275390625 240 l 1,18,-1
 218.275390625 97 l 1,19,-1
 390.275390625 97 l 1,20,-1
 368.275390625 0 l 1,0,-1
107.275390625 97 m 1,21,-1
 230.275390625 543 l 1,22,-1
 220.275390625 543 l 2,23,24
 182.275390625 543 182.275390625 543 155.275390625 525 c 0,25,26
 125.275390625 504 125.275390625 504 103.275390625 455 c 0,27,28
 83.275390625 406 83.275390625 406 63.275390625 319.5 c 128,-1,29
 43.275390625 233 43.275390625 233 40.275390625 184 c 0,30,31
 38.275390625 135 38.275390625 135 53.275390625 115 c 0,32,33
 66.275390625 97 66.275390625 97 94.275390625 97 c 2,34,-1
 107.275390625 97 l 1,21,-1
EndSplineSet
EndChar

StartChar: P
Encoding: 80 80 86
Width: 448
GlyphClass: 2
Flags: W
LayerCount: 2
Fore
SplineSet
79.9638671875 0 m 1,0,-1
 -17.0361328125 0 l 1,1,-1
 129.963867188 640 l 1,2,-1
 289.963867188 640 l 2,3,4
 407.963867188 640 407.963867188 640 443.963867188 578 c 128,-1,5
 479.963867188 516 479.963867188 516 454.463867188 406 c 128,-1,6
 428.963867188 296 428.963867188 296 364.463867188 236 c 128,-1,7
 299.963867188 176 299.963867188 176 182.963867188 176 c 2,8,-1
 120.963867188 176 l 1,9,-1
 79.9638671875 0 l 1,0,-1
142.963867188 272 m 1,10,-1
 197.963867188 272 l 2,11,12
 270.963867188 272 270.963867188 272 304.963867188 303 c 0,13,14
 336.963867188 337 336.963867188 337 353.463867188 407 c 128,-1,15
 369.963867188 477 369.963867188 477 352.963867188 512 c 0,16,17
 332.963867188 543 332.963867188 543 260.963867188 543 c 2,18,-1
 205.963867188 543 l 1,19,-1
 142.963867188 272 l 1,10,-1
EndSplineSet
Substitution2: "'sups' Superscript in Latin lookup 9 subtable" P.sups
Substitution2: "'aalt' Access All Alternates in Latin lookup 0 subtable" P.sups
EndChar

StartChar: Thorn
Encoding: 222 222 87
Width: 448
Flags: W
LayerCount: 2
Fore
SplineSet
211.4296875 518 m 1,0,-1
 287.4296875 518 l 2,1,2
 389.4296875 518 389.4296875 518 428.4296875 465 c 128,-1,3
 467.4296875 412 467.4296875 412 445.9296875 318 c 128,-1,4
 424.4296875 224 424.4296875 224 361.4296875 173 c 128,-1,5
 298.4296875 122 298.4296875 122 195.4296875 122 c 2,6,-1
 119.4296875 122 l 1,7,-1
 91.4296875 0 l 1,8,-1
 -5.5703125 0 l 1,9,-1
 141.4296875 640 l 1,10,-1
 239.4296875 640 l 1,11,-1
 211.4296875 518 l 1,0,-1
139.4296875 208 m 1,12,-1
 207.4296875 208 l 2,13,14
 275.4296875 208 275.4296875 208 305.4296875 235 c 0,15,16
 332.4296875 261 332.4296875 261 346.4296875 319 c 128,-1,17
 360.4296875 377 360.4296875 377 344.4296875 404 c 0,18,19
 325.4296875 432 325.4296875 432 259.4296875 432 c 2,20,-1
 191.4296875 432 l 1,21,-1
 139.4296875 208 l 1,12,-1
EndSplineSet
EndChar

StartChar: Q
Encoding: 81 81 88
Width: 448
GlyphClass: 2
Flags: W
LayerCount: 2
Fore
SplineSet
218.137695312 173 m 1025,0,-1
120.137695312 564 m 0,1,2
 188.137695312 650 188.137695312 650 299.137695312 650 c 0,3,4
 357.137695312 650 357.137695312 650 395.137695312 627 c 0,5,6
 427.137695312 605 427.137695312 605 440.137695312 564 c 0,7,8
 466.137695312 483 466.137695312 483 427.137695312 319 c 0,9,10
 386.137695312 142 386.137695312 142 315.137695312 62 c 0,11,12
 279.137695312 22 279.137695312 22 234.137695312 5 c 1,13,14
 232.137695312 -13 232.137695312 -13 234.137695312 -20 c 0,15,16
 235.137695312 -26 235.137695312 -26 250.137695312 -38 c 2,17,-1
 285.137695312 -66 l 1,18,-1
 140.137695312 -73 l 1,19,-1
 136.137695312 -66 l 2,20,21
 119.137695312 -39 119.137695312 -39 115.137695312 -8 c 1,22,23
 -51.8623046875 14 -51.8623046875 14 18.1376953125 319 c 0,24,25
 56.1376953125 482 56.1376953125 482 120.137695312 564 c 0,1,2
322.637695312 303 m 128,-1,27
 345.137695312 399 345.137695312 399 347.137695312 453 c 0,28,29
 349.137695312 507 349.137695312 507 331.637695312 529 c 128,-1,30
 314.137695312 551 314.137695312 551 276.637695312 551 c 128,-1,31
 239.137695312 551 239.137695312 551 211.637695312 529.5 c 128,-1,32
 184.137695312 508 184.137695312 508 160.137695312 453 c 0,33,34
 138.137695312 398 138.137695312 398 116.137695312 302 c 0,35,36
 94.1376953125 207 94.1376953125 207 92.1376953125 152 c 0,37,38
 91.1376953125 106 91.1376953125 106 117.137695312 74 c 1,39,-1
 133.137695312 176 l 1,40,-1
 246.137695312 182 l 1,41,-1
 227.137695312 77 l 1,42,43
 255.137695312 100 255.137695312 100 278.137695312 154 c 0,44,26
 300.137695312 207 300.137695312 207 322.637695312 303 c 128,-1,27
EndSplineSet
Substitution2: "'sups' Superscript in Latin lookup 9 subtable" Q.sups
Substitution2: "'aalt' Access All Alternates in Latin lookup 0 subtable" Q.sups
EndChar

StartChar: R
Encoding: 82 82 89
Width: 448
GlyphClass: 2
Flags: W
LayerCount: 2
Fore
SplineSet
369.733398438 0 m 1,0,-1
 269.733398438 0 l 1,1,-1
 271.733398438 15 l 2,2,3
 280.733398438 100 280.733398438 100 253.733398438 148 c 128,-1,4
 226.733398438 196 226.733398438 196 162.733398438 224 c 1,5,-1
 129.733398438 224 l 1,6,-1
 77.7333984375 0 l 1,7,-1
 -19.2666015625 0 l 1,8,-1
 127.733398438 640 l 1,9,-1
 299.733398438 640 l 2,10,11
 401.733398438 640 401.733398438 640 442.733398438 585 c 0,12,13
 481.733398438 530 481.733398438 530 458.733398438 434 c 0,14,15
 439.733398438 352 439.733398438 352 391.733398438 304 c 0,16,17
 357.733398438 270 357.733398438 270 308.733398438 253 c 1,18,19
 345.733398438 225 345.733398438 225 362.733398438 178 c 0,20,21
 385.733398438 112 385.733398438 112 371.733398438 17 c 2,22,-1
 369.733398438 0 l 1,0,-1
203.733398438 543 m 1,23,-1
 151.733398438 322 l 1,24,-1
 217.733398438 322 l 2,25,26
 282.733398438 322 282.733398438 322 310.733398438 347 c 0,27,28
 340.733398438 375 340.733398438 375 354.233398438 432 c 128,-1,29
 367.733398438 489 367.733398438 489 349.733398438 517 c 0,30,31
 332.733398438 543 332.733398438 543 268.733398438 543 c 2,32,-1
 203.733398438 543 l 1,23,-1
EndSplineSet
Substitution2: "'sups' Superscript in Latin lookup 9 subtable" R.sups
Substitution2: "'aalt' Access All Alternates in Latin lookup 0 subtable" R.sups
EndChar

StartChar: S
Encoding: 83 83 93
Width: 448
GlyphClass: 2
Flags: W
LayerCount: 2
Fore
SplineSet
78 97 m 0,0,1
 112 89 112 89 151 89 c 0,2,3
 218 89 218 89 247 107 c 0,4,5
 273 125 273 125 280 156 c 0,6,7
 291 202 291 202 251 227 c 0,8,9
 232 238 232 238 186 258 c 0,10,11
 121 288 121 288 101 315 c 0,12,13
 87 333 87 333 80 356 c 128,-1,14
 73 379 73 379 73.5 404.5 c 128,-1,15
 74 430 74 430 81 460 c 0,16,17
 101 545 101 545 165 596.5 c 128,-1,18
 229 648 229 648 347 648 c 0,19,20
 383 648 383 648 413.5 643.5 c 128,-1,21
 444 639 444 639 467 629 c 2,22,-1
 478 624 l 1,23,-1
 434 528 l 1,24,-1
 419 534 l 2,25,26
 377 551 377 551 325 551 c 0,27,28
 252 551 252 551 222 527 c 0,29,30
 192 503 192 503 182 457 c 0,31,32
 174 423 174 423 185 401 c 0,33,34
 197 379 197 379 219.5 365 c 128,-1,35
 242 351 242 351 287 331 c 0,36,37
 326 312 326 312 348 294 c 0,38,39
 371 275 371 275 382 241 c 128,-1,40
 393 207 393 207 381 156 c 0,41,42
 362 74 362 74 301 33 c 128,-1,43
 240 -8 240 -8 125 -8 c 0,44,45
 43 -8 43 -8 -18 19 c 2,46,-1
 -30 24 l 1,47,-1
 19 120 l 1,48,-1
 33 114 l 2,49,50
 59 102 59 102 78 97 c 0,0,1
EndSplineSet
Substitution2: "'sups' Superscript in Latin lookup 9 subtable" S.sups
Substitution2: "'aalt' Access All Alternates in Latin lookup 0 subtable" S.sups
EndChar

StartChar: Scedilla
Encoding: 350 350 96
Width: 448
GlyphClass: 2
Flags: W
LayerCount: 2
Fore
SplineSet
88.5 97 m 0,0,1
 122.5 89 122.5 89 161.5 89 c 0,2,3
 228.5 89 228.5 89 257.5 107 c 0,4,5
 283.5 125 283.5 125 290.5 156 c 0,6,7
 301.5 202 301.5 202 261.5 227 c 0,8,9
 242.5 238 242.5 238 196.5 258 c 0,10,11
 131.5 288 131.5 288 111.5 315 c 0,12,13
 97.5 333 97.5 333 90.5 356 c 128,-1,14
 83.5 379 83.5 379 84 404.5 c 128,-1,15
 84.5 430 84.5 430 91.5 460 c 0,16,17
 111.5 545 111.5 545 175.5 596.5 c 128,-1,18
 239.5 648 239.5 648 357.5 648 c 0,19,20
 393.5 648 393.5 648 424 643.5 c 128,-1,21
 454.5 639 454.5 639 477.5 629 c 2,22,-1
 488.5 624 l 1,23,-1
 444.5 528 l 1,24,-1
 429.5 534 l 2,25,26
 387.5 551 387.5 551 335.5 551 c 0,27,28
 262.5 551 262.5 551 232.5 527 c 0,29,30
 202.5 503 202.5 503 192.5 457 c 0,31,32
 184.5 423 184.5 423 195.5 401 c 0,33,34
 207.5 379 207.5 379 230 365 c 128,-1,35
 252.5 351 252.5 351 297.5 332 c 0,36,37
 336.5 313 336.5 313 358.5 294 c 0,38,39
 381.5 275 381.5 275 392.5 241.5 c 128,-1,40
 403.5 208 403.5 208 391.5 156 c 0,41,42
 375.5 85 375.5 85 325.5 44 c 0,43,44
 290.5 15 290.5 15 238.5 2 c 1,45,46
 211.5 -75 211.5 -75 151.5 -121 c 0,47,48
 85.5 -172 85.5 -172 -25.5 -172 c 2,49,-1
 -40.5 -172 l 1,50,-1
 -20.5 -76 l 1,51,-1
 -5.5 -75 l 2,52,53
 51.5 -73 51.5 -73 77.5 -55 c 0,54,55
 100.5 -42 100.5 -42 115.5 -8 c 1,56,57
 46.5 -5 46.5 -5 -7.5 19 c 2,58,-1
 -19.5 24 l 1,59,-1
 29.5 120 l 1,60,-1
 43.5 114 l 2,61,62
 69.5 102 69.5 102 88.5 97 c 0,0,1
EndSplineSet
Substitution2: "'locl' Localized Forms in Latin lookup 6 subtable" uni0218
Substitution2: "'aalt' Access All Alternates in Latin lookup 0 subtable" uni0218
EndChar

StartChar: uni1E9E
Encoding: 7838 7838 99
Width: 448
Flags: W
LayerCount: 2
Fore
SplineSet
256 342 m 1,0,1
 339 416 339 416 360 505 c 0,2,3
 365 526 365 526 366 543 c 1,4,-1
 198 543 l 1,5,-1
 72 0 l 1,6,-1
 -25 0 l 1,7,-1
 122 640 l 1,8,-1
 473 640 l 1,9,10
 473 597 473 597 469.5 569.5 c 128,-1,11
 466 542 466 542 460 516 c 0,12,13
 432 396 432 396 342 305 c 1,14,15
 375 280 375 280 388 246 c 0,16,17
 404 205 404 205 392 153 c 0,18,19
 374 75 374 75 312.5 33.5 c 128,-1,20
 251 -8 251 -8 146 -8 c 0,21,22
 129 -8 129 -8 88 -4 c 1,23,-1
 122 91 l 1,24,-1
 163 91 l 2,25,26
 231 91 231 91 259 109 c 0,27,28
 284 127 284 127 292 159.5 c 128,-1,29
 300 192 300 192 279 219 c 0,30,31
 253 248 253 248 172 273 c 2,32,-1
 155 278 l 1,33,-1
 204 354 l 1,34,-1
 256 342 l 1,0,1
EndSplineSet
EndChar

StartChar: uniA7A8
Encoding: 42920 42920 100
Width: 448
GlyphClass: 2
Flags: W
LayerCount: 2
Fore
SplineSet
208 359 m 1,0,-1
 342 547 l 1,1,-1
 375 547 l 1,2,3
 353 551 353 551 325 551 c 0,4,5
 252 551 252 551 222 526 c 0,6,7
 192 502 192 502 181 452 c 0,8,9
 172 414 172 414 183 390 c 0,10,11
 191 373 191 373 208 359 c 1,0,-1
382 243 m 0,12,13
 393 209 393 209 382 157 c 0,14,15
 363 74 363 74 301.5 33 c 128,-1,16
 240 -8 240 -8 125 -8 c 0,17,18
 43 -8 43 -8 -18 18 c 2,19,-1
 -30 23 l 1,20,-1
 17 114 l 1,21,22
 32 107 32 107 34 107 c 1,23,-1
 141 276 l 1,24,25
 103 302 103 302 85 339 c 0,26,27
 64 382 64 382 81 458 c 0,28,29
 101 544 101 544 165 596 c 128,-1,30
 229 648 229 648 347 648 c 0,31,32
 383 648 383 648 413.5 643.5 c 128,-1,33
 444 639 444 639 467 629 c 2,34,-1
 478 624 l 1,35,-1
 435 533 l 1,36,-1
 431 534 l 1,37,-1
 299 328 l 1,38,39
 330 311 330 311 345 298.5 c 128,-1,40
 360 286 360 286 368 273 c 128,-1,41
 376 260 376 260 382 243 c 0,12,13
116 99 m 1,42,-1
 71 99 l 1,43,44
 104 89 104 89 151 89 c 0,45,46
 218 89 218 89 247 108 c 0,47,48
 273 127 273 127 281 160.5 c 128,-1,49
 289 194 289 194 276 214 c 0,50,51
 262 231 262 231 233 247 c 1,52,-1
 129 99 l 1,53,-1
 116 99 l 1,42,-1
EndSplineSet
EndChar

StartChar: uni018F
Encoding: 399 399 101
Width: 448
GlyphClass: 2
Flags: W
LayerCount: 2
Fore
SplineSet
450.631835938 508.5 m 128,-1,1
 454.631835938 437 454.631835938 437 427.631835938 319 c 0,2,3
 390.631835938 158 390.631835938 158 326.631835938 76 c 0,4,5
 259.631835938 -10 259.631835938 -10 146.631835938 -10 c 0,6,7
 24.6318359375 -10 24.6318359375 -10 2.6318359375 97 c 0,8,9
 -14.3681640625 178 -14.3681640625 178 18.6318359375 322 c 0,10,11
 24.6318359375 348 24.6318359375 348 39.6318359375 400 c 1,12,-1
 342.631835938 400 l 1,13,14
 352.631835938 455 352.631835938 455 350.631835938 487 c 0,15,16
 346.631835938 519 346.631835938 519 322.131835938 534.5 c 128,-1,17
 297.631835938 550 297.631835938 550 238.631835938 550 c 0,18,19
 189.631835938 550 189.631835938 550 140.631835938 538 c 2,20,-1
 124.631835938 535 l 1,21,-1
 126.631835938 627 l 1,22,-1
 141.631835938 631 l 2,23,24
 200.631835938 647 200.631835938 647 267.631835938 647 c 0,25,26
 361.631835938 647 361.631835938 647 406.631835938 614 c 0,27,0
 446.631835938 580 446.631835938 580 450.631835938 508.5 c 128,-1,1
114.131835938 109 m 128,-1,29
 131.631835938 89 131.631835938 89 169.631835938 89 c 128,-1,30
 207.631835938 89 207.631835938 89 232.631835938 108 c 0,31,32
 260.631835938 129 260.631835938 129 282.631835938 177 c 0,33,34
 302.631835938 226 302.631835938 226 321.631835938 304 c 1,35,-1
 115.631835938 304 l 1,36,37
 98.6318359375 226 98.6318359375 226 96.6318359375 177 c 0,38,28
 96.6318359375 129 96.6318359375 129 114.131835938 109 c 128,-1,29
EndSplineSet
EndChar

StartChar: T
Encoding: 84 84 102
Width: 448
GlyphClass: 2
Flags: W
HStem: 0 21G<54.5 155.957> 543 97<37.5 153.5 272.5 411.5>
LayerCount: 2
Fore
SplineSet
37.5 640 m 1,0,-1
 433.5 640 l 1,1,-1
 411.5 543 l 1,2,-1
 272.5 543 l 1,3,-1
 151.5 0 l 1,4,-1
 54.5 0 l 1,5,-1
 153.5 543 l 1,6,-1
 14.5 543 l 1,7,-1
 37.5 640 l 1,0,-1
EndSplineSet
Substitution2: "'sups' Superscript in Latin lookup 9 subtable" T.sups
Substitution2: "'aalt' Access All Alternates in Latin lookup 0 subtable" T.sups
EndChar

StartChar: Tbar
Encoding: 358 358 103
Width: 448
GlyphClass: 2
Flags: W
LayerCount: 2
Fore
SplineSet
53.5 640 m 1,0,-1
 449.5 640 l 1,1,-1
 427.5 543 l 1,2,-1
 288.5 543 l 1,3,-1
 240.5 334 l 1,4,-1
 341.5 334 l 1,5,-1
 350.5 242 l 1,6,-1
 223.5 242 l 1,7,-1
 167.5 0 l 1,8,-1
 70.5 0 l 1,9,-1
 125.5 242 l 1,10,-1
 -1.5 242 l 1,11,-1
 19.5 334 l 1,12,-1
 121.5 334 l 1,13,-1
 169.5 543 l 1,14,-1
 30.5 543 l 1,15,-1
 53.5 640 l 1,0,-1
EndSplineSet
EndChar

StartChar: uni0162
Encoding: 354 354 105
Width: 448
GlyphClass: 2
Flags: W
LayerCount: 2
Fore
SplineSet
73 0 m 1,0,-1
 199 543 l 1,1,-1
 60 543 l 1,2,-1
 83 640 l 1,3,-1
 479 640 l 1,4,-1
 457 543 l 1,5,-1
 318 543 l 1,6,-1
 201 35 l 1,7,-1
 263 35 l 1,8,-1
 259 19 l 2,9,10
 237 -77 237 -77 184 -132 c 0,11,12
 119 -192 119 -192 -16 -192 c 2,13,-1
 -31 -192 l 1,14,-1
 -11 -96 l 1,15,16
 26 -94 26 -94 47 -91 c 0,17,18
 68 -88 68 -88 82 -83 c 0,19,20
 108 -74 108 -74 122.5 -54 c 128,-1,21
 137 -34 137 -34 148 0 c 1,22,-1
 73 0 l 1,0,-1
EndSplineSet
Substitution2: "'locl' Localized Forms in Latin lookup 6 subtable" uni021A
Substitution2: "'aalt' Access All Alternates in Latin lookup 0 subtable" uni021A
EndChar

StartChar: U
Encoding: 85 85 107
Width: 448
GlyphClass: 2
Flags: W
LayerCount: 2
Fore
SplineSet
-8.25390625 179 m 2,0,-1
 97.74609375 640 l 1,1,-1
 195.74609375 640 l 1,2,-1
 89.74609375 180 l 2,3,4
 78.74609375 131 78.74609375 131 91.74609375 109 c 0,5,6
 102.74609375 89 102.74609375 89 153.24609375 89 c 128,-1,7
 203.74609375 89 203.74609375 89 224.74609375 109 c 0,8,9
 249.74609375 132 249.74609375 132 260.74609375 180 c 2,10,-1
 366.74609375 640 l 1,11,-1
 464.74609375 640 l 1,12,-1
 358.74609375 180 l 2,13,14
 336.74609375 85 336.74609375 85 280.24609375 38.5 c 128,-1,15
 223.74609375 -8 223.74609375 -8 131.74609375 -8 c 128,-1,16
 39.74609375 -8 39.74609375 -8 4.74609375 38 c 128,-1,17
 -30.25390625 84 -30.25390625 84 -8.25390625 179 c 2,0,-1
EndSplineSet
Substitution2: "'sups' Superscript in Latin lookup 9 subtable" U.sups
Substitution2: "'aalt' Access All Alternates in Latin lookup 0 subtable" U.sups
EndChar

StartChar: Uogonek
Encoding: 370 370 115
Width: 448
GlyphClass: 2
Flags: W
LayerCount: 2
Fore
SplineSet
254.823242188 152 m 2,0,-1
 366.823242188 640 l 1,1,-1
 464.823242188 640 l 1,2,-1
 358.823242188 180 l 2,3,4
 341.823242188 106 341.823242188 106 303.823242188 62 c 128,-1,5
 265.823242188 18 265.823242188 18 210.823242188 2 c 1,6,7
 172.823242188 -29 172.823242188 -29 152.823242188 -51 c 0,8,9
 132.823242188 -74 132.823242188 -74 128.823242188 -92 c 0,10,11
 126.823242188 -99 126.823242188 -99 128.823242188 -101 c 1,12,-1
 138.823242188 -103 l 1,13,14
 151.823242188 -103 151.823242188 -103 170.823242188 -96 c 2,15,-1
 191.823242188 -89 l 1,16,-1
 197.823242188 -172 l 1,17,-1
 185.823242188 -179 l 2,18,19
 147.823242188 -197 147.823242188 -197 101.823242188 -197 c 0,20,21
 47.8232421875 -197 47.8232421875 -197 23.8232421875 -171 c 0,22,23
 2.8232421875 -146 2.8232421875 -146 12.8232421875 -102 c 0,24,25
 24.8232421875 -52 24.8232421875 -52 76.8232421875 -2 c 1,26,27
 23.8232421875 9 23.8232421875 9 0.8232421875 45 c 0,28,29
 -29.1767578125 91 -29.1767578125 91 -8.1767578125 179 c 2,30,-1
 97.8232421875 640 l 1,31,-1
 195.823242188 640 l 1,32,-1
 82.8232421875 152 l 2,33,34
 70.8232421875 100 70.8232421875 100 83.8232421875 77 c 0,35,36
 94.8232421875 56 94.8232421875 56 145.323242188 56 c 128,-1,37
 195.823242188 56 195.823242188 56 217.823242188 77 c 0,38,39
 242.823242188 101 242.823242188 101 254.823242188 152 c 2,0,-1
EndSplineSet
EndChar

StartChar: V
Encoding: 86 86 118
Width: 448
Flags: W
LayerCount: 2
Fore
SplineSet
136.254882812 -3 m 1,0,-1
 44.2548828125 -3 l 1,1,-1
 41.2548828125 6 l 2,2,3
 2.2548828125 125 2.2548828125 125 1.7548828125 284.5 c 128,-1,4
 1.2548828125 444 1.2548828125 444 28.2548828125 623 c 2,5,-1
 31.2548828125 640 l 1,6,-1
 131.254882812 640 l 1,7,8
 88.2548828125 320 88.2548828125 320 118.254882812 120 c 1,9,10
 205.254882812 263 205.254882812 263 284.254882812 466 c 0,11,12
 313.254882812 542 313.254882812 542 346.254882812 640 c 1,13,-1
 446.254882812 640 l 1,14,-1
 441.254882812 623 l 2,15,16
 386.254882812 444 386.254882812 444 311.754882812 284.5 c 128,-1,17
 237.254882812 125 237.254882812 125 143.254882812 6 c 2,18,-1
 136.254882812 -3 l 1,0,-1
EndSplineSet
Substitution2: "'sups' Superscript in Latin lookup 9 subtable" V.sups
Substitution2: "'aalt' Access All Alternates in Latin lookup 0 subtable" V.sups
EndChar

StartChar: W
Encoding: 87 87 119
Width: 448
GlyphClass: 2
Flags: W
LayerCount: 2
Fore
SplineSet
98.599609375 334 m 0,0,1
 79.599609375 237 79.599609375 237 71.599609375 164 c 1,2,3
 125.599609375 304 125.599609375 304 162.599609375 432 c 2,4,-1
 166.599609375 448 l 1,5,-1
 272.599609375 448 l 1,6,-1
 268.599609375 432 l 2,7,8
 246.599609375 303 246.599609375 303 235.599609375 164 c 1,9,10
 261.599609375 238 261.599609375 238 280.599609375 304 c 0,11,12
 315.599609375 431 315.599609375 431 366.599609375 640 c 1,13,-1
 463.599609375 640 l 1,14,15
 414.599609375 434 414.599609375 434 368.599609375 296 c 0,16,17
 322.599609375 157 322.599609375 157 253.599609375 12 c 2,18,-1
 247.599609375 0 l 1,19,-1
 164.599609375 0 l 1,20,-1
 162.599609375 11 l 2,21,22
 147.599609375 71 147.599609375 71 146.599609375 134 c 1,23,24
 116.599609375 71 116.599609375 71 74.599609375 11 c 2,25,-1
 66.599609375 0 l 1,26,-1
 -15.400390625 0 l 1,27,-1
 -15.400390625 12 l 2,28,29
 -17.400390625 157 -17.400390625 157 0.599609375 295.5 c 128,-1,30
 18.599609375 434 18.599609375 434 63.599609375 640 c 1,31,-1
 161.599609375 640 l 1,32,33
 115.599609375 431 115.599609375 431 98.599609375 334 c 0,0,1
EndSplineSet
Substitution2: "'sups' Superscript in Latin lookup 9 subtable" W.sups
Substitution2: "'aalt' Access All Alternates in Latin lookup 0 subtable" W.sups
EndChar

StartChar: X
Encoding: 88 88 124
Width: 448
GlyphClass: 2
Flags: W
LayerCount: 2
Fore
SplineSet
57 0 m 1,0,-1
 -43 0 l 1,1,-1
 -35 19 l 2,2,3
 3 111 3 111 42.5 174 c 128,-1,4
 82 237 82 237 147 301 c 1,5,6
 111 362 111 362 103 433.5 c 128,-1,7
 95 505 95 505 112 623 c 2,8,-1
 115 640 l 1,9,-1
 212 640 l 1,10,11
 195 514 195 514 204 450 c 0,12,13
 210 398 210 398 235 354 c 1,14,15
 283 396 283 396 313 448 c 0,16,17
 350 511 350 511 389 625 c 2,18,-1
 394 640 l 1,19,-1
 491 640 l 1,20,-1
 486 623 l 2,21,22
 448 505 448 505 407.5 433 c 128,-1,23
 367 361 367 361 303 301 c 1,24,25
 337 237 337 237 347.5 174 c 128,-1,26
 358 111 358 111 354 19 c 2,27,-1
 353 0 l 1,28,-1
 253 0 l 1,29,30
 254 103 254 103 244.5 151 c 128,-1,31
 235 199 235 199 212 243 c 1,32,33
 167 198 167 198 135 150 c 128,-1,34
 103 102 103 102 57 0 c 1,0,-1
EndSplineSet
Substitution2: "'sups' Superscript in Latin lookup 9 subtable" X.sups
Substitution2: "'aalt' Access All Alternates in Latin lookup 0 subtable" X.sups
EndChar

StartChar: Y
Encoding: 89 89 125
Width: 448
GlyphClass: 2
Flags: W
LayerCount: 2
Fore
SplineSet
186.241210938 203 m 1,0,-1
 139.241210938 0 l 1,1,-1
 25.2412109375 0 l 1,2,-1
 72.2412109375 203 l 1,3,4
 26.2412109375 282 26.2412109375 282 15.2412109375 384 c 128,-1,5
 4.2412109375 486 4.2412109375 486 20.2412109375 623 c 2,6,-1
 23.2412109375 640 l 1,7,-1
 120.241210938 640 l 1,8,-1
 119.241210938 625 l 2,9,10
 106.241210938 505 106.241210938 505 113.741210938 427 c 128,-1,11
 121.241210938 349 121.241210938 349 145.241210938 274 c 1,12,13
 204.241210938 348 204.241210938 348 244.241210938 421 c 0,14,15
 291.241210938 506 291.241210938 506 334.241210938 625 c 2,16,-1
 339.241210938 640 l 1,17,-1
 437.241210938 640 l 1,18,-1
 431.241210938 623 l 2,19,20
 384.241210938 486 384.241210938 486 326.741210938 384 c 128,-1,21
 269.241210938 282 269.241210938 282 186.241210938 203 c 1,0,-1
EndSplineSet
Substitution2: "'sups' Superscript in Latin lookup 9 subtable" Y.sups
Substitution2: "'aalt' Access All Alternates in Latin lookup 0 subtable" Y.sups
EndChar

StartChar: Z
Encoding: 90 90 130
Width: 448
GlyphClass: 2
Flags: W
LayerCount: 2
Fore
SplineSet
-85.5 742 m 1025,0,-1
101.5 543 m 1,1,-1
 123.5 640 l 1,2,-1
 483.5 640 l 1,3,-1
 467.5 572 l 1,4,-1
 317.5 370 l 1,5,-1
 408.5 371 l 1,6,-1
 387.5 283 l 1,7,-1
 247.5 282 l 1,8,-1
 104.5 97 l 1,9,-1
 358.5 97 l 1,10,-1
 335.5 0 l 1,11,-1
 -35.5 0 l 1,12,-1
 -19.5 68 l 1,13,-1
 126.5 278 l 1,14,-1
 50.5 278 l 1,15,-1
 71.5 370 l 1,16,-1
 195.5 370 l 1,17,-1
 342.5 543 l 1,18,-1
 101.5 543 l 1,1,-1
EndSplineSet
Substitution2: "'sups' Superscript in Latin lookup 9 subtable" Z.sups
Substitution2: "'aalt' Access All Alternates in Latin lookup 0 subtable" Z.sups
EndChar

StartChar: a
Encoding: 97 97 134
Width: 448
GlyphClass: 2
Flags: W
LayerCount: 2
Fore
SplineSet
333.51171875 0 m 1,0,-1
 251.51171875 0 l 1,1,-1
 253.51171875 20 l 1,2,3
 210.51171875 -7 210.51171875 -7 150.51171875 -8 c 0,4,5
 61.51171875 -8 61.51171875 -8 36.51171875 52 c 0,6,7
 13.51171875 109 13.51171875 109 34.51171875 201 c 128,-1,8
 55.51171875 293 55.51171875 293 105.51171875 351 c 0,9,10
 158.51171875 411 158.51171875 411 247.51171875 411 c 0,11,12
 298.51171875 411 298.51171875 411 328.51171875 392 c 1,13,-1
 423.51171875 403 l 0,14,-1
 346.51171875 69 l 1,15,-1
 333.51171875 0 l 1,0,-1
305.51171875 291 m 1,16,17
 290.51171875 314 290.51171875 314 236.51171875 314 c 0,18,19
 206.51171875 314 206.51171875 314 187.51171875 305 c 0,20,21
 159.51171875 291 159.51171875 291 144.51171875 243 c 0,22,23
 138.51171875 225 138.51171875 225 134.01171875 205.5 c 128,-1,24
 129.51171875 186 129.51171875 186 126.51171875 173 c 0,25,26
 116.51171875 113 116.51171875 113 139.51171875 98 c 0,27,28
 153.51171875 89 153.51171875 89 184.51171875 89 c 0,29,30
 237.51171875 89 237.51171875 89 263.51171875 113 c 1,31,-1
 305.51171875 291 l 1,16,17
EndSplineSet
EndChar

StartChar: aogonek
Encoding: 261 261 141
Width: 448
GlyphClass: 2
Flags: W
LayerCount: 2
Fore
SplineSet
319.771484375 -179 m 2,0,1
 287.771484375 -197 287.771484375 -197 251.771484375 -197 c 0,2,3
 194.771484375 -197 194.771484375 -197 175.771484375 -157 c 0,4,5
 164.771484375 -134 164.771484375 -134 172.771484375 -102 c 0,6,7
 187.771484375 -38 187.771484375 -38 269.771484375 24 c 1,8,-1
 269.771484375 29 l 1,9,10
 240.771484375 16 240.771484375 16 214.771484375 8 c 0,11,12
 174.771484375 -4 174.771484375 -4 133.771484375 -4 c 0,13,14
 78.771484375 -4 78.771484375 -4 49.771484375 26.5 c 128,-1,15
 20.771484375 57 20.771484375 57 33.771484375 112 c 0,16,17
 48.771484375 179 48.771484375 179 115.771484375 213 c 0,18,19
 176.771484375 244 176.771484375 244 313.771484375 249 c 1,20,-1
 313.771484375 249 l 2,21,22
 321.771484375 285 321.771484375 285 308.271484375 297.5 c 128,-1,23
 294.771484375 310 294.771484375 310 248.771484375 310 c 0,24,25
 198.771484375 310 198.771484375 310 133.771484375 290 c 2,26,-1
 118.771484375 286 l 1,27,-1
 108.771484375 367 l 1,28,-1
 122.771484375 373 l 2,29,30
 199.771484375 408 199.771484375 408 277.771484375 408 c 0,31,32
 366.771484375 408 366.771484375 408 397.771484375 374 c 0,33,34
 429.771484375 339 429.771484375 339 411.771484375 266 c 2,35,-1
 366.771484375 69 l 1,36,-1
 356.771484375 11 l 1,37,38
 317.771484375 -27 317.771484375 -27 300.771484375 -50 c 0,39,40
 283.771484375 -74 283.771484375 -74 279.771484375 -92 c 0,41,42
 277.771484375 -100 277.771484375 -100 279.271484375 -101.5 c 128,-1,43
 280.771484375 -103 280.771484375 -103 286.771484375 -103 c 0,44,45
 297.771484375 -103 297.771484375 -103 311.771484375 -96 c 2,46,-1
 328.771484375 -89 l 1,47,-1
 330.771484375 -172 l 1,48,-1
 319.771484375 -179 l 2,0,1
134.771484375 129 m 0,49,50
 126.771484375 93 126.771484375 93 172.771484375 93 c 0,51,52
 197.771484375 93 197.771484375 93 224.771484375 100 c 128,-1,53
 251.771484375 107 251.771484375 107 283.771484375 119 c 1,54,-1
 297.771484375 179 l 1,55,56
 211.771484375 176 211.771484375 176 172.771484375 163 c 0,57,58
 139.771484375 152 139.771484375 152 134.771484375 129 c 0,49,50
EndSplineSet
EndChar

StartChar: ae
Encoding: 230 230 145
Width: 448
Flags: W
CounterMasks: 1 fc
LayerCount: 2
Fore
SplineSet
179 250 m 1,0,-1
 192 306 l 1,1,-1
 136 306 l 1,2,-1
 159 403 l 1,3,-1
 383 403 l 1,4,-1
 368 339 l 1,5,-1
 425 339 l 1,6,-1
 382 153 l 1,7,-1
 269 153 l 1,8,-1
 256 97 l 1,9,-1
 369 97 l 1,10,-1
 347 0 l 1,11,-1
 66 0 l 1,12,-1
 80 64 l 1,13,-1
 23 64 l 1,14,-1
 52 186 l 1,15,-1
 108 186 l 1,16,-1
 123 250 l 1,17,-1
 179 250 l 1,0,-1
292 250 m 1,18,-1
 318 250 l 1,19,-1
 331 306 l 1,20,-1
 305 306 l 1,21,-1
 292 250 l 1,18,-1
157 153 m 1,22,-1
 130 153 l 1,23,-1
 117 97 l 1,24,-1
 144 97 l 1,25,-1
 157 153 l 1,22,-1
EndSplineSet
EndChar

StartChar: b
Encoding: 98 98 147
Width: 448
GlyphClass: 2
Flags: W
LayerCount: 2
Fore
SplineSet
253.169921875 640 m 1,0,-1
 196.169921875 392 l 1,1,2
 234.169921875 411 234.169921875 411 285.169921875 411 c 0,3,4
 374.169921875 411 374.169921875 411 400.169921875 351 c 0,5,6
 424.169921875 294 424.169921875 294 402.669921875 202 c 128,-1,7
 381.169921875 110 381.169921875 110 331.169921875 52 c 0,8,9
 277.169921875 -8 277.169921875 -8 187.169921875 -8 c 0,10,11
 72.169921875 -8 72.169921875 -8 45.169921875 42 c 1,12,-1
 35.169921875 64 l 1,13,-1
 35.169921875 92 l 1,14,-1
 160.169921875 640 l 1,15,-1
 253.169921875 640 l 1,0,-1
296.669921875 305 m 128,-1,17
 282.169921875 314 282.169921875 314 252.169921875 314 c 0,18,19
 198.169921875 314 198.169921875 314 173.169921875 291 c 1,20,-1
 131.169921875 113 l 1,21,22
 146.169921875 89 146.169921875 89 200.169921875 89 c 0,23,24
 230.169921875 89 230.169921875 89 249.169921875 98 c 0,25,26
 267.169921875 107 267.169921875 107 281.169921875 131 c 0,27,28
 294.169921875 155 294.169921875 155 304.669921875 201.5 c 128,-1,29
 315.169921875 248 315.169921875 248 313.169921875 272 c 0,30,16
 311.169921875 296 311.169921875 296 296.669921875 305 c 128,-1,17
EndSplineSet
EndChar

StartChar: c
Encoding: 99 99 148
Width: 448
GlyphClass: 2
Flags: W
LayerCount: 2
Fore
SplineSet
358.25 301 m 2,0,1
 338.25 307 338.25 307 318.75 310 c 128,-1,2
 299.25 313 299.25 313 284.25 313 c 0,3,4
 266.25 313 266.25 313 256.25 312.5 c 128,-1,5
 246.25 312 246.25 312 238.25 311 c 0,6,7
 221.25 308 221.25 308 210.25 303 c 0,8,9
 186.25 294 186.25 294 172.25 272 c 0,10,11
 158.25 247 158.25 247 147.75 201.5 c 128,-1,12
 137.25 156 137.25 156 139.25 133 c 0,13,14
 143.25 110 143.25 110 163.25 100 c 128,-1,15
 183.25 90 183.25 90 230.25 90 c 0,16,17
 267.25 90 267.25 90 312.25 102 c 2,18,-1
 326.25 106 l 1,19,-1
 322.25 18 l 1,20,-1
 309.25 13 l 2,21,22
 256.25 -7 256.25 -7 196.25 -7 c 0,23,24
 79.25 -7 79.25 -7 51.25 59 c 0,25,26
 30.25 111 30.25 111 51.25 201.5 c 128,-1,27
 72.25 292 72.25 292 117.25 344 c 0,28,29
 175.25 410 175.25 410 292.25 410 c 0,30,31
 352.25 410 352.25 410 396.25 390 c 2,32,-1
 407.25 386 l 1,33,-1
 370.25 297 l 1,34,-1
 358.25 301 l 2,0,1
EndSplineSet
EndChar

StartChar: ccedilla
Encoding: 231 231 151
Width: 448
GlyphClass: 2
Flags: W
LayerCount: 2
Fore
SplineSet
187.5 -15 m 1,0,1
 89.5 -8 89.5 -8 64.5 54 c 0,2,3
 43.5 106 43.5 106 65 198 c 128,-1,4
 86.5 290 86.5 290 131.5 342 c 0,5,6
 189.5 410 189.5 410 307.5 410 c 0,7,8
 367.5 410 367.5 410 411.5 390 c 2,9,-1
 422.5 386 l 1,10,-1
 385.5 296 l 1,11,-1
 372.5 300 l 2,12,13
 333.5 313 333.5 313 292.5 313 c 0,14,15
 250.5 313 250.5 313 226 302.5 c 128,-1,16
 201.5 292 201.5 292 186.5 268 c 0,17,18
 172.5 241 172.5 241 161 192 c 128,-1,19
 149.5 143 149.5 143 151.5 118 c 0,20,21
 155.5 93 155.5 93 175 82.5 c 128,-1,22
 194.5 72 194.5 72 241.5 72 c 0,23,24
 278.5 72 278.5 72 323.5 85 c 2,25,-1
 337.5 89 l 1,26,-1
 334.5 7 l 1,27,-1
 322.5 2 l 2,28,29
 305.5 -4 305.5 -4 281.5 -9 c 1,30,31
 258.5 -90 258.5 -90 213.5 -138 c 0,32,33
 154.5 -192 154.5 -192 38.5 -192 c 2,34,-1
 25.5 -192 l 1,35,-1
 45.5 -96 l 1,36,-1
 58.5 -95 l 2,37,38
 117.5 -93 117.5 -93 147.5 -74 c 0,39,40
 172.5 -59 172.5 -59 187.5 -15 c 1,0,1
EndSplineSet
EndChar

StartChar: d
Encoding: 100 100 154
Width: 448
GlyphClass: 2
Flags: W
LayerCount: 2
Fore
SplineSet
306.01171875 0 m 1,0,-1
 224.01171875 0 l 1,1,-1
 226.01171875 20 l 1,2,3
 183.01171875 -7 183.01171875 -7 123.01171875 -8 c 0,4,5
 34.01171875 -8 34.01171875 -8 9.01171875 52 c 0,6,7
 -13.98828125 109 -13.98828125 109 7.01171875 201 c 128,-1,8
 28.01171875 293 28.01171875 293 78.01171875 351 c 0,9,10
 131.01171875 411 131.01171875 411 220.01171875 411 c 0,11,12
 271.01171875 411 271.01171875 411 301.01171875 392 c 1,13,-1
 358.01171875 640 l 1,14,-1
 451.01171875 640 l 1,15,-1
 321.01171875 77 l 1,16,-1
 306.01171875 0 l 1,0,-1
278.01171875 291 m 1,17,18
 263.01171875 314 263.01171875 314 209.01171875 314 c 0,19,20
 179.01171875 314 179.01171875 314 160.01171875 305 c 0,21,22
 132.01171875 291 132.01171875 291 117.01171875 243 c 0,23,24
 111.01171875 225 111.01171875 225 106.51171875 205.5 c 128,-1,25
 102.01171875 186 102.01171875 186 99.01171875 173 c 0,26,27
 89.01171875 113 89.01171875 113 112.01171875 98 c 0,28,29
 126.01171875 89 126.01171875 89 157.01171875 89 c 0,30,31
 210.01171875 89 210.01171875 89 236.01171875 113 c 1,32,-1
 278.01171875 291 l 1,17,18
EndSplineSet
EndChar

StartChar: eth
Encoding: 240 240 155
Width: 448
Flags: W
LayerCount: 2
Fore
SplineSet
39.654296875 50.5 m 128,-1,1
 9.654296875 109 9.654296875 109 31.654296875 205 c 0,2,3
 46.654296875 270 46.654296875 270 77.654296875 318 c 128,-1,4
 108.654296875 366 108.654296875 366 150.654296875 392 c 0,5,6
 194.654296875 418 194.654296875 418 247.654296875 418 c 0,7,8
 279.654296875 418 279.654296875 418 308.654296875 410 c 1,9,10
 298.654296875 445 298.654296875 445 276.654296875 476 c 1,11,-1
 186.654296875 422 l 1,12,-1
 159.654296875 493 l 1,13,-1
 225.654296875 537 l 1,14,15
 212.654296875 551 212.654296875 551 186.654296875 575 c 1,16,-1
 253.654296875 654 l 1,17,18
 299.654296875 617 299.654296875 617 321.654296875 594 c 1,19,-1
 397.654296875 641 l 1,20,-1
 425.654296875 570 l 1,21,-1
 367.654296875 532 l 1,22,23
 435.654296875 414 435.654296875 414 398.654296875 253 c 0,24,25
 369.654296875 127 369.654296875 127 312.654296875 61 c 0,26,27
 253.654296875 -8 253.654296875 -8 157.654296875 -8 c 0,28,0
 69.654296875 -8 69.654296875 -8 39.654296875 50.5 c 128,-1,1
258.654296875 128 m 0,29,30
 286.654296875 174 286.654296875 174 307.654296875 264 c 0,31,32
 315.654296875 300 315.654296875 300 319.654296875 327 c 1,33,34
 286.654296875 350 286.654296875 350 241.154296875 350 c 128,-1,35
 195.654296875 350 195.654296875 350 170.654296875 318 c 0,36,37
 144.654296875 282 144.654296875 282 130.154296875 220 c 128,-1,38
 115.654296875 158 115.654296875 158 123.654296875 126 c 0,39,40
 135.654296875 89 135.654296875 89 183.654296875 89 c 0,41,42
 218.654296875 89 218.654296875 89 241.654296875 109 c 0,43,44
 250.654296875 117 250.654296875 117 258.654296875 128 c 0,29,30
EndSplineSet
EndChar

StartChar: dcroat
Encoding: 273 273 157
Width: 448
GlyphClass: 2
Flags: W
LayerCount: 2
Fore
SplineSet
440.830078125 640 m 1,0,-1
 414.830078125 527 l 1,1,-1
 462.830078125 527 l 1,2,-1
 441.830078125 434 l 1,3,-1
 392.830078125 434 l 1,4,-1
 308.830078125 69 l 1,5,-1
 294.830078125 0 l 1,6,-1
 212.830078125 0 l 1,7,-1
 214.830078125 20 l 1,8,9
 167.830078125 -7 167.830078125 -7 109.830078125 -8 c 0,10,11
 22.830078125 -8 22.830078125 -8 -2.169921875 52 c 0,12,13
 -26.169921875 109 -26.169921875 109 -4.669921875 201 c 128,-1,14
 16.830078125 293 16.830078125 293 66.830078125 351 c 0,15,16
 119.830078125 411 119.830078125 411 204.830078125 411 c 0,17,18
 252.830078125 411 252.830078125 411 283.830078125 392 c 1,19,-1
 292.830078125 434 l 1,20,-1
 174.830078125 434 l 1,21,-1
 195.830078125 527 l 1,22,-1
 314.830078125 527 l 1,23,-1
 340.830078125 640 l 1,24,-1
 440.830078125 640 l 1,0,-1
259.830078125 291 m 1,25,26
 242.830078125 314 242.830078125 314 192.830078125 314 c 0,27,28
 164.830078125 314 164.830078125 314 147.830078125 305 c 0,29,30
 121.830078125 291 121.830078125 291 105.830078125 243 c 0,31,32
 99.830078125 225 99.830078125 225 95.330078125 205.5 c 128,-1,33
 90.830078125 186 90.830078125 186 87.830078125 173 c 0,34,35
 77.830078125 113 77.830078125 113 100.830078125 98 c 0,36,37
 114.830078125 89 114.830078125 89 142.830078125 89 c 0,38,39
 193.830078125 89 193.830078125 89 222.830078125 113 c 1,40,-1
 259.830078125 291 l 1,25,26
EndSplineSet
EndChar

StartChar: e
Encoding: 101 101 158
Width: 448
GlyphClass: 2
Flags: W
LayerCount: 2
Fore
SplineSet
400.67578125 359 m 0,0,1
 430.67578125 304 430.67578125 304 408.67578125 208 c 0,2,3
 403.67578125 186 403.67578125 186 395.67578125 160 c 1,4,-1
 128.67578125 160 l 1,5,6
 123.67578125 118 123.67578125 118 140.67578125 101 c 0,7,8
 160.67578125 84 160.67578125 84 221.67578125 84 c 0,9,10
 271.67578125 84 271.67578125 84 332.67578125 101 c 2,11,-1
 349.67578125 105 l 1,12,-1
 349.67578125 23 l 1,13,-1
 336.67578125 17 l 2,14,15
 268.67578125 -13 268.67578125 -13 194.67578125 -13 c 0,16,17
 72.67578125 -13 72.67578125 -13 42.67578125 55 c 0,18,19
 18.67578125 108 18.67578125 108 40.17578125 202 c 128,-1,20
 61.67578125 296 61.67578125 296 114.67578125 355 c 0,21,22
 169.67578125 416 169.67578125 416 274.67578125 416 c 0,23,24
 369.67578125 416 369.67578125 416 400.67578125 359 c 0,0,1
311.67578125 303 m 0,25,26
 294.67578125 319 294.67578125 319 251.67578125 319 c 128,-1,27
 208.67578125 319 208.67578125 319 185.67578125 304 c 0,28,29
 163.67578125 289 163.67578125 289 151.67578125 255 c 1,30,-1
 322.67578125 255 l 1,31,32
 326.67578125 287 326.67578125 287 311.67578125 303 c 0,25,26
EndSplineSet
EndChar

StartChar: eogonek
Encoding: 281 281 167
Width: 448
GlyphClass: 2
Flags: W
LayerCount: 2
Fore
SplineSet
401.448242188 357 m 0,0,1
 430.448242188 299 430.448242188 299 408.448242188 199 c 0,2,3
 403.448242188 176 403.448242188 176 394.448242188 150 c 1,4,-1
 127.448242188 150 l 1,5,6
 120.448242188 102 120.448242188 102 138.448242188 81 c 0,7,8
 157.448242188 61 157.448242188 61 218.448242188 61 c 0,9,10
 268.448242188 61 268.448242188 61 330.448242188 81 c 2,11,-1
 346.448242188 86 l 1,12,-1
 347.448242188 8 l 1,13,-1
 335.448242188 3 l 2,14,15
 315.448242188 -5 315.448242188 -5 295.448242188 -11 c 1,16,17
 264.448242188 -38 264.448242188 -38 248.448242188 -57 c 0,18,19
 231.448242188 -76 231.448242188 -76 227.448242188 -93 c 0,20,21
 225.448242188 -100 225.448242188 -100 228.448242188 -101 c 0,22,23
 230.448242188 -103 230.448242188 -103 234.448242188 -103 c 128,-1,24
 238.448242188 -103 238.448242188 -103 241.448242188 -102.5 c 128,-1,25
 244.448242188 -102 244.448242188 -102 247.448242188 -102 c 0,26,27
 253.448242188 -101 253.448242188 -101 261.448242188 -97 c 2,28,-1
 277.448242188 -91 l 1,29,-1
 282.448242188 -172 l 1,30,-1
 270.448242188 -179 l 2,31,32
 238.448242188 -197 238.448242188 -197 201.448242188 -197 c 0,33,34
 148.448242188 -197 148.448242188 -197 124.448242188 -173 c 128,-1,35
 100.448242188 -149 100.448242188 -149 110.448242188 -107 c 128,-1,36
 120.448242188 -65 120.448242188 -65 164.448242188 -23 c 1,37,38
 68.4482421875 -15 68.4482421875 -15 42.4482421875 46 c 0,39,40
 18.4482421875 100 18.4482421875 100 40.9482421875 196.5 c 128,-1,41
 63.4482421875 293 63.4482421875 293 116.448242188 353 c 0,42,43
 172.448242188 416 172.448242188 416 276.448242188 416 c 0,44,45
 371.448242188 417 371.448242188 417 401.448242188 357 c 0,0,1
312.448242188 301 m 0,46,47
 296.448242188 319 296.448242188 319 253.448242188 319 c 128,-1,48
 210.448242188 319 210.448242188 319 187.448242188 302 c 0,49,50
 165.448242188 285 165.448242188 285 151.448242188 245 c 1,51,-1
 321.448242188 245 l 1,52,53
 326.448242188 283 326.448242188 283 312.448242188 301 c 0,46,47
EndSplineSet
EndChar

StartChar: uni0259
Encoding: 601 601 168
Width: 448
GlyphClass: 2
Flags: W
LayerCount: 2
Fore
SplineSet
252.82421875 416 m 0,0,1
 374.82421875 416 374.82421875 416 404.82421875 348 c 0,2,3
 428.82421875 295 428.82421875 295 407.32421875 201 c 128,-1,4
 385.82421875 107 385.82421875 107 332.82421875 48 c 0,5,6
 277.82421875 -13 277.82421875 -13 173.82421875 -13 c 0,7,8
 77.82421875 -13 77.82421875 -13 47.82421875 43.5 c 128,-1,9
 17.82421875 100 17.82421875 100 39.82421875 195 c 0,10,11
 44.82421875 217 44.82421875 217 52.82421875 243 c 1,12,-1
 319.82421875 243 l 1,13,14
 324.82421875 285 324.82421875 285 306.82421875 302 c 0,15,16
 286.82421875 319 286.82421875 319 225.82421875 319 c 0,17,18
 175.82421875 319 175.82421875 319 114.82421875 302 c 2,19,-1
 98.82421875 298 l 1,20,-1
 98.82421875 380 l 1,21,-1
 110.82421875 386 l 2,22,23
 178.82421875 416 178.82421875 416 252.82421875 416 c 0,0,1
135.82421875 100 m 0,24,25
 152.82421875 84 152.82421875 84 195.82421875 84 c 128,-1,26
 238.82421875 84 238.82421875 84 261.82421875 99 c 0,27,28
 283.82421875 114 283.82421875 114 295.82421875 148 c 1,29,-1
 125.82421875 148 l 1,30,31
 121.82421875 115 121.82421875 115 135.82421875 100 c 0,24,25
EndSplineSet
EndChar

StartChar: f
Encoding: 102 102 169
Width: 448
GlyphClass: 2
Flags: W
HStem: 306 97<77.5 117.5 247.5 354.5> 551 97<288.289 424.098>
DStem2: -7.5 -232 120.5 -117 0.225068 0.974343<140.858 556.227 676.1 806.17>
LayerCount: 2
Fore
SplineSet
120.5 -117 m 1,0,-1
 -7.5 -232 l 1,1,-1
 117.5 310 l 1,2,-1
 57.5 313 l 1,3,-1
 77.5 403 l 1,4,-1
 138.5 403 l 1,5,-1
 150.5 452 l 2,6,7
 173.5 550 173.5 550 219.5 599 c 0,8,9
 275.5 648 275.5 648 350.5 648 c 0,10,11
 398.5 648 398.5 648 442.5 638 c 2,12,-1
 455.5 635 l 1,13,-1
 418.5 535 l 1,14,15
 362.5 551 362.5 551 337.5 551 c 0,16,17
 305.5 551 305.5 551 287.5 528 c 0,18,19
 271.5 508 271.5 508 262.5 467 c 2,20,-1
 247.5 403 l 1,21,-1
 376.5 403 l 1,22,-1
 354.5 306 l 1,23,-1
 224.5 306 l 1,24,-1
 120.5 -117 l 1,0,-1
EndSplineSet
EndChar

StartChar: g
Encoding: 103 103 170
Width: 448
GlyphClass: 2
Flags: W
LayerCount: 2
Fore
SplineSet
121.5 351 m 0,0,1
 174.5 411 174.5 411 261.5 411 c 0,2,3
 319.5 411 319.5 411 353.5 384 c 1,4,-1
 360.5 403 l 1,5,-1
 442.5 403 l 1,6,-1
 424.5 333 l 1,7,-1
 339.5 -32 l 2,8,9
 319.5 -117 319.5 -117 268.5 -157 c 0,10,11
 216.5 -196 216.5 -196 131.5 -196 c 0,12,13
 66.5 -196 66.5 -196 17.5 -181 c 2,14,-1
 5.5 -177 l 1,15,-1
 40.5 -87 l 1,16,-1
 53.5 -90 l 2,17,18
 86.5 -99 86.5 -99 150.5 -99 c 0,19,20
 198.5 -99 198.5 -99 217 -84.5 c 128,-1,21
 235.5 -70 235.5 -70 243.5 -32 c 2,22,-1
 254.5 12 l 1,23,24
 213.5 -8 213.5 -8 163.5 -8 c 0,25,26
 76.5 -8 76.5 -8 52.5 52 c 0,27,28
 29.5 109 29.5 109 50.5 201.5 c 128,-1,29
 71.5 294 71.5 294 121.5 351 c 0,0,1
318.5 291 m 1,30,31
 300.5 314 300.5 314 249.5 314 c 0,32,33
 220.5 314 220.5 314 202.5 305 c 0,34,35
 175.5 291 175.5 291 160.5 243 c 0,36,37
 154.5 225 154.5 225 150 205.5 c 128,-1,38
 145.5 186 145.5 186 142.5 173 c 0,39,40
 132.5 113 132.5 113 155.5 98 c 0,41,42
 169.5 89 169.5 89 197.5 89 c 0,43,44
 247.5 89 247.5 89 277.5 113 c 1,45,-1
 318.5 291 l 1,30,31
EndSplineSet
Substitution2: "'ss01' Style Set 1 in Latin lookup 19 subtable" g.ss01
Substitution2: "'salt' Stylistic Alternatives in Latin lookup 18 subtable" g.ss01
Substitution2: "'aalt' Access All Alternates in Latin lookup 0 subtable" g.ss01
EndChar

StartChar: h
Encoding: 104 104 175
Width: 448
GlyphClass: 2
Flags: W
LayerCount: 2
Fore
SplineSet
238.5 640 m 1,0,-1
 177.5 373 l 1,1,2
 241.5 407 241.5 407 299.5 407 c 0,3,4
 359.5 407 359.5 407 385 374 c 128,-1,5
 410.5 341 410.5 341 392.5 265 c 2,6,-1
 357.5 112 l 1,7,8
 352.5 90 352.5 90 347.5 57 c 0,9,10
 348.5 53 348.5 53 353 48.5 c 128,-1,11
 357.5 44 357.5 44 363.5 44 c 0,12,13
 382.5 44 382.5 44 407.5 77 c 2,14,-1
 434.5 112 l 1,15,-1
 450.5 101 l 1,16,17
 409.5 38 409.5 38 380 14 c 128,-1,18
 350.5 -10 350.5 -10 315.5 -10 c 0,19,20
 284.5 -10 284.5 -10 271.5 8.5 c 128,-1,21
 258.5 27 258.5 27 259.5 49.5 c 128,-1,22
 260.5 72 260.5 72 268.5 106 c 1,23,-1
 300.5 244 l 2,24,25
 309.5 283 309.5 283 300.5 298 c 0,26,27
 293.5 310 293.5 310 262.5 310 c 0,28,29
 226.5 310 226.5 310 180.5 287 c 0,30,31
 166.5 280 166.5 280 153.5 272 c 1,32,-1
 96.5 24 l 1,33,-1
 -2.5 0 l 1,34,-1
 145.5 640 l 1,35,-1
 238.5 640 l 1,0,-1
EndSplineSet
EndChar

StartChar: hbar
Encoding: 295 295 176
Width: 448
GlyphClass: 2
Flags: W
LayerCount: 2
Fore
SplineSet
192 435 m 1,0,-1
 177 373 l 1,1,2
 241 407 241 407 299 407 c 0,3,4
 359 407 359 407 384.5 374 c 128,-1,5
 410 341 410 341 392 265 c 2,6,-1
 357 112 l 1,7,8
 352 90 352 90 348 57 c 0,9,10
 349 53 349 53 353 48.5 c 128,-1,11
 357 44 357 44 363 44 c 0,12,13
 382 44 382 44 407 77 c 2,14,-1
 435 112 l 1,15,-1
 450 101 l 1,16,17
 409 38 409 38 380 14 c 128,-1,18
 351 -10 351 -10 315 -10 c 0,19,20
 284 -10 284 -10 271.5 8.5 c 128,-1,21
 259 27 259 27 260 49.5 c 128,-1,22
 261 72 261 72 269 106 c 1,23,-1
 301 244 l 2,24,25
 310 283 310 283 301 298 c 0,26,27
 294 310 294 310 263 310 c 0,28,29
 227 310 227 310 181 287 c 0,30,31
 167 280 167 280 154 272 c 1,32,-1
 97 24 l 1,33,-1
 -2 0 l 1,34,-1
 98 435 l 1,35,-1
 49 435 l 1,36,-1
 71 528 l 1,37,-1
 120 528 l 1,38,-1
 145 640 l 1,39,-1
 239 640 l 1,40,-1
 213 528 l 1,41,-1
 335 528 l 1,42,-1
 314 435 l 1,43,-1
 192 435 l 1,0,-1
EndSplineSet
EndChar

StartChar: dotlessi
Encoding: 305 305 179
Width: 448
GlyphClass: 2
Flags: W
LayerCount: 2
Fore
SplineSet
289 295 m 1,0,-1
 247 112 l 1,1,2
 240 82 240 82 237 57 c 0,3,4
 238 53 238 53 242.5 48.5 c 128,-1,5
 247 44 247 44 253 44 c 0,6,7
 272 44 272 44 297 77 c 2,8,-1
 325 113 l 1,9,-1
 341 103 l 1,10,11
 300 40 300 40 270.5 15 c 128,-1,12
 241 -10 241 -10 204 -10 c 0,13,14
 181 -10 181 -10 167.5 0 c 128,-1,15
 154 10 154 10 151.5 28 c 128,-1,16
 149 46 149 46 151 64 c 0,17,18
 153 82 153 82 158 108 c 1,19,-1
 201 291 l 1,20,21
 206 313 206 313 210 346 c 0,22,23
 209 350 209 350 204.5 354.5 c 128,-1,24
 200 359 200 359 194 359 c 0,25,26
 175 359 175 359 150 326 c 2,27,-1
 122 290 l 1,28,-1
 107 301 l 1,29,30
 148 364 148 364 177.5 388.5 c 128,-1,31
 207 413 207 413 243 413 c 0,32,33
 274 413 274 413 287 394.5 c 128,-1,34
 300 376 300 376 298.5 353 c 128,-1,35
 297 330 297 330 289 295 c 1,0,-1
EndSplineSet
EndChar

StartChar: ij
Encoding: 307 307 185
Width: 448
GlyphClass: 2
Flags: W
LayerCount: 2
Fore
SplineSet
218.608398438 519 m 0,0,1
 194.608398438 499 194.608398438 499 166.608398438 499 c 128,-1,2
 138.608398438 499 138.608398438 499 123.608398438 519 c 128,-1,3
 108.608398438 539 108.608398438 539 116.608398438 574 c 128,-1,4
 124.608398438 609 124.608398438 609 148.608398438 629.5 c 128,-1,5
 172.608398438 650 172.608398438 650 200.608398438 650 c 128,-1,6
 228.608398438 650 228.608398438 650 243.608398438 630 c 0,7,8
 270.608398438 609 270.608398438 609 262.608398438 574 c 128,-1,9
 254.608398438 539 254.608398438 539 218.608398438 519 c 0,0,1
330.608398438 574 m 128,-1,11
 338.608398438 609 338.608398438 609 363.108398438 629.5 c 128,-1,12
 387.608398438 650 387.608398438 650 415.608398438 650 c 128,-1,13
 443.608398438 650 443.608398438 650 457.608398438 630 c 0,14,15
 472.608398438 609 472.608398438 609 464.608398438 574 c 128,-1,16
 456.608398438 539 456.608398438 539 432.608398438 519 c 128,-1,17
 408.608398438 499 408.608398438 499 380.608398438 499 c 128,-1,18
 352.608398438 499 352.608398438 499 337.608398438 519 c 0,19,10
 322.608398438 539 322.608398438 539 330.608398438 574 c 128,-1,11
168.608398438 291 m 1,20,-1
 103.608398438 12 l 1,21,-1
 5.6083984375 -10 l 1,22,-1
 74.6083984375 290 l 1,23,24
 79.6083984375 313 79.6083984375 313 84.6083984375 345 c 0,25,26
 83.6083984375 350 83.6083984375 350 79.1083984375 354.5 c 128,-1,27
 74.6083984375 359 74.6083984375 359 68.6083984375 359 c 0,28,29
 49.6083984375 359 49.6083984375 359 23.6083984375 323 c 2,30,-1
 -4.3916015625 284 l 1,31,-1
 -19.3916015625 294 l 1,32,33
 23.6083984375 361 23.6083984375 361 54.1083984375 387 c 128,-1,34
 84.6083984375 413 84.6083984375 413 120.608398438 413 c 0,35,36
 152.608398438 413 152.608398438 413 165.608398438 393.5 c 128,-1,37
 178.608398438 374 178.608398438 374 177.608398438 350.5 c 128,-1,38
 176.608398438 327 176.608398438 327 168.608398438 291 c 1,20,-1
39.6083984375 -102 m 1,39,40
 97.6083984375 -107 97.6083984375 -107 135.608398438 -107 c 0,41,42
 172.608398438 -107 172.608398438 -107 188.608398438 -92 c 128,-1,43
 204.608398438 -77 204.608398438 -77 212.608398438 -40 c 2,44,-1
 293.608398438 312 l 1,45,-1
 241.608398438 315 l 1,46,-1
 261.608398438 403 l 1,47,-1
 408.608398438 403 l 1,48,-1
 306.608398438 -40 l 2,49,50
 287.608398438 -124 287.608398438 -124 239.608398438 -162 c 128,-1,51
 191.608398438 -200 191.608398438 -200 123.608398438 -200 c 0,52,53
 66.6083984375 -200 66.6083984375 -200 23.6083984375 -194 c 2,54,-1
 10.6083984375 -192 l 1,55,-1
 39.6083984375 -102 l 1,39,40
EndSplineSet
EndChar

StartChar: iogonek
Encoding: 303 303 187
Width: 448
GlyphClass: 2
Flags: W
LayerCount: 2
Fore
SplineSet
351.89453125 519 m 128,-1,1
 327.39453125 499 327.39453125 499 299.39453125 499 c 128,-1,2
 271.39453125 499 271.39453125 499 256.39453125 519 c 128,-1,3
 241.39453125 539 241.39453125 539 249.39453125 574 c 128,-1,4
 257.39453125 609 257.39453125 609 281.89453125 629.5 c 128,-1,5
 306.39453125 650 306.39453125 650 334.39453125 650 c 128,-1,6
 362.39453125 650 362.39453125 650 377.39453125 630 c 0,7,8
 392.39453125 609 392.39453125 609 384.39453125 574 c 128,-1,0
 376.39453125 539 376.39453125 539 351.89453125 519 c 128,-1,1
201.39453125 -179 m 2,9,10
 169.39453125 -197 169.39453125 -197 132.39453125 -197 c 0,11,12
 90.39453125 -197 90.39453125 -197 72.39453125 -172.5 c 128,-1,13
 54.39453125 -148 54.39453125 -148 64.39453125 -107 c 0,14,15
 77.39453125 -51 77.39453125 -51 142.39453125 2 c 1,16,-1
 213.39453125 312 l 1,17,-1
 109.39453125 318 l 1,18,-1
 129.39453125 403 l 1,19,-1
 328.39453125 403 l 1,20,-1
 234.39453125 -1 l 1,21,22
 196.39453125 -35 196.39453125 -35 179.89453125 -55.5 c 128,-1,23
 163.39453125 -76 163.39453125 -76 159.39453125 -93 c 0,24,25
 158.39453125 -99 158.39453125 -99 159.39453125 -101 c 1,26,-1
 167.39453125 -103 l 1,27,28
 177.39453125 -103 177.39453125 -103 191.39453125 -97 c 2,29,-1
 208.39453125 -90 l 1,30,-1
 212.39453125 -172 l 1,31,-1
 201.39453125 -179 l 2,9,10
EndSplineSet
EndChar

StartChar: uni0237
Encoding: 567 567 190
Width: 448
GlyphClass: 2
Flags: W
LayerCount: 2
Fore
SplineSet
386.177734375 290 m 1,0,-1
 310.177734375 -40 l 2,1,2
 291.177734375 -124 291.177734375 -124 243.677734375 -162 c 128,-1,3
 196.177734375 -200 196.177734375 -200 130.177734375 -200 c 0,4,5
 99.177734375 -200 99.177734375 -200 65.177734375 -194 c 2,6,-1
 52.177734375 -192 l 1,7,-1
 81.177734375 -102 l 1,8,9
 126.177734375 -107 126.177734375 -107 147.177734375 -107 c 0,10,11
 178.177734375 -107 178.177734375 -107 193.177734375 -91.5 c 128,-1,12
 208.177734375 -76 208.177734375 -76 217.177734375 -39 c 2,13,-1
 293.177734375 290 l 1,14,15
 298.177734375 313 298.177734375 313 302.177734375 346 c 0,16,17
 301.177734375 351 301.177734375 351 297.177734375 355 c 128,-1,18
 293.177734375 359 293.177734375 359 288.177734375 359 c 0,19,20
 269.177734375 359 269.177734375 359 244.177734375 325 c 2,21,-1
 217.177734375 287 l 1,22,-1
 201.177734375 298 l 1,23,24
 242.177734375 363 242.177734375 363 271.177734375 388 c 128,-1,25
 300.177734375 413 300.177734375 413 336.177734375 413 c 0,26,27
 369.177734375 413 369.177734375 413 383.177734375 393.5 c 128,-1,28
 397.177734375 374 397.177734375 374 395.677734375 350 c 128,-1,29
 394.177734375 326 394.177734375 326 386.177734375 290 c 1,0,-1
EndSplineSet
EndChar

StartChar: k
Encoding: 107 107 192
Width: 448
GlyphClass: 2
Flags: W
LayerCount: 2
Fore
SplineSet
162.5 288 m 1,0,-1
 341.5 448 l 1,1,-1
 455.5 448 l 1,2,-1
 236.5 238 l 1,3,-1
 360.5 0 l 1,4,-1
 248.5 0 l 1,5,-1
 134.5 192 l 1,6,-1
 130.5 192 l 1,7,-1
 91.5 24 l 1,8,-1
 -7.5 0 l 1,9,-1
 140.5 640 l 1,10,-1
 233.5 640 l 1,11,-1
 152.5 288 l 1,12,-1
 162.5 288 l 1,0,-1
EndSplineSet
EndChar

StartChar: kgreenlandic
Encoding: 312 312 194
Width: 448
Flags: W
LayerCount: 2
Fore
SplineSet
160.5 260 m 1,0,-1
 337.5 403 l 1,1,-1
 450.5 403 l 1,2,-1
 236.5 214 l 1,3,-1
 365.5 0 l 1,4,-1
 253.5 0 l 1,5,-1
 135.5 172 l 1,6,-1
 130.5 172 l 1,7,-1
 96.5 22 l 1,8,-1
 -2.5 0 l 1,9,-1
 90.5 403 l 1,10,-1
 184.5 403 l 1,11,-1
 151.5 260 l 1,12,-1
 160.5 260 l 1,0,-1
EndSplineSet
EndChar

StartChar: l
Encoding: 108 108 195
Width: 448
GlyphClass: 2
Flags: W
HStem: -4 97<218.469 284.247> 620 20G<218.293 332.247>
DStem2: 122.247 132 215.247 133 0.22486 0.974391<-8.39774 426.933>
LayerCount: 2
Fore
SplineSet
221.247070312 640 m 1,0,-1
 332.247070312 640 l 1,1,-1
 215.247070312 133 l 2,2,3
 210.247070312 110 210.247070312 110 218.247070312 101 c 0,4,5
 225.247070312 93 225.247070312 93 243.247070312 93 c 0,6,7
 262.247070312 93 262.247070312 93 300.247070312 98 c 1,8,-1
 284.247070312 2 l 1,9,-1
 271.247070312 0 l 2,10,11
 243.247070312 -4 243.247070312 -4 216.247070312 -4 c 0,12,13
 160.247070312 -4 160.247070312 -4 132.747070312 28.5 c 128,-1,14
 105.247070312 61 105.247070312 61 122.247070312 132 c 2,15,-1
 218.247070312 548 l 1,16,-1
 208.247070312 552 l 1,17,-1
 221.247070312 640 l 1,0,-1
EndSplineSet
EndChar

StartChar: lslash
Encoding: 322 322 200
Width: 448
GlyphClass: 2
Flags: W
LayerCount: 2
Fore
SplineSet
266 0 m 2,0,1
 238 -4 238 -4 210 -4 c 0,2,3
 142 -4 142 -4 104 28 c 0,4,5
 72 60 72 60 88 132 c 2,6,-1
 122 280 l 1,7,-1
 78 250 l 1,8,-1
 51 325 l 1,9,-1
 147 391 l 1,10,-1
 183 544 l 1,11,-1
 123 549 l 1,12,-1
 144 640 l 1,13,-1
 321 640 l 1,14,-1
 279 458 l 1,15,-1
 371 521 l 1,16,-1
 397 442 l 1,17,-1
 254 348 l 1,18,-1
 204 132 l 2,19,20
 199 110 199 110 211 101 c 0,21,22
 220 93 220 93 238 93 c 0,23,24
 257 93 257 93 295 98 c 1,25,-1
 279 2 l 1,26,-1
 266 0 l 2,0,1
EndSplineSet
EndChar

StartChar: m
Encoding: 109 109 201
Width: 448
GlyphClass: 2
Flags: W
HStem: -11 52<329.5 411.462> 0 21G<-28.8846 49.2273 129.104 207.227> 309 97<133.255 226.5 279.071 378>
DStem2: -33.5 0 57.5 22 0.22486 0.974391<41.8988 340.085> 124.5 0 215.5 22 0.22613 0.974097<42.0079 309.942> 308.5 106 389.5 110 0.225242 0.974303<-33.8876 201.653>
LayerCount: 2
Fore
SplineSet
145.5 476 m 1,0,-1
 132.5 390 l 1,1,2
 164.5 406 164.5 406 206.5 406 c 0,3,4
 246.5 406 246.5 406 262.5 379 c 1,5,6
 275.5 389 275.5 389 289.5 395 c 0,7,8
 318.5 405 318.5 405 351.5 405 c 0,9,10
 404.5 405 404.5 405 425 377.5 c 128,-1,11
 445.5 350 445.5 350 432.5 296 c 2,12,-1
 389.5 110 l 1,13,14
 382.5 79 382.5 79 379.5 54 c 0,15,16
 380.5 50 380.5 50 385 45.5 c 128,-1,17
 389.5 41 389.5 41 394.5 41 c 0,18,19
 413.5 41 413.5 41 436.5 69 c 2,20,-1
 467.5 108 l 1,21,-1
 481.5 98 l 1,22,23
 442.5 37 442.5 37 413.5 13 c 128,-1,24
 384.5 -11 384.5 -11 349.5 -11 c 0,25,26
 309.5 -11 309.5 -11 303 20.5 c 128,-1,27
 296.5 52 296.5 52 308.5 106 c 1,28,-1
 348.5 277 l 2,29,30
 353.5 299 353.5 299 343.5 305 c 0,31,32
 338.5 308 338.5 308 319.5 308 c 128,-1,33
 300.5 308 300.5 308 280.5 302 c 1,34,-1
 215.5 22 l 1,35,-1
 124.5 0 l 1,36,-1
 188.5 278 l 2,37,38
 192.5 296 192.5 296 186.5 304 c 0,39,40
 182.5 309 182.5 309 163.5 309 c 0,41,42
 145.5 309 145.5 309 122.5 302 c 1,43,-1
 57.5 22 l 1,44,-1
 -33.5 0 l 1,45,-1
 44.5 338 l 1,46,-1
 68.5 351 l 1,47,-1
 145.5 476 l 1,0,-1
EndSplineSet
EndChar

StartChar: n
Encoding: 110 110 202
Width: 448
GlyphClass: 2
Flags: W
LayerCount: 2
Fore
SplineSet
383.5 374 m 0,0,1
 409.5 341 409.5 341 391.5 265 c 2,2,-1
 356.5 112 l 1,3,4
 351.5 90 351.5 90 346.5 57 c 0,5,6
 347.5 53 347.5 53 352 48.5 c 128,-1,7
 356.5 44 356.5 44 362.5 44 c 0,8,9
 381.5 44 381.5 44 407.5 77 c 2,10,-1
 434.5 112 l 1,11,-1
 450.5 101 l 1,12,13
 409.5 38 409.5 38 380 14 c 128,-1,14
 350.5 -10 350.5 -10 315.5 -10 c 0,15,16
 284.5 -10 284.5 -10 271.5 8.5 c 128,-1,17
 258.5 27 258.5 27 260 49.5 c 128,-1,18
 261.5 72 261.5 72 268.5 106 c 1,19,-1
 300.5 244 l 2,20,21
 309.5 283 309.5 283 300.5 298 c 0,22,23
 293.5 310 293.5 310 262.5 310 c 0,24,25
 226.5 310 226.5 310 180.5 287 c 0,26,27
 166.5 280 166.5 280 154.5 272 c 1,28,-1
 96.5 24 l 1,29,-1
 -2.5 0 l 1,30,-1
 72.5 308 l 1,31,-1
 85.5 324 l 1,32,-1
 102.5 340 l 1,33,34
 132.5 364 132.5 364 183.5 388 c 0,35,36
 231.5 409 231.5 409 273.5 409 c 0,37,38
 286.5 409 286.5 409 299.5 407 c 0,39,40
 365.5 397 365.5 397 383.5 374 c 0,0,1
EndSplineSet
EndChar

StartChar: eng
Encoding: 331 331 207
Width: 448
Flags: W
LayerCount: 2
Fore
SplineSet
202.576171875 403 m 1,0,-1
 198.576171875 369 l 1,1,2
 264.576171875 407 264.576171875 407 325.576171875 407 c 0,3,4
 384.576171875 407 384.576171875 407 411.576171875 372.5 c 128,-1,5
 438.576171875 338 438.576171875 338 419.576171875 259 c 2,6,-1
 359.576171875 -3 l 2,7,8
 343.576171875 -74 343.576171875 -74 306.576171875 -120.5 c 128,-1,9
 269.576171875 -167 269.576171875 -167 199.576171875 -195 c 2,10,-1
 184.576171875 -201 l 1,11,-1
 159.576171875 -118 l 1,12,-1
 176.576171875 -112 l 2,13,14
 220.576171875 -96 220.576171875 -96 237.576171875 -77 c 0,15,16
 254.576171875 -57 254.576171875 -57 264.576171875 -13 c 2,17,-1
 322.576171875 241 l 2,18,19
 331.576171875 281 331.576171875 281 325.576171875 297 c 0,20,21
 319.576171875 310 319.576171875 310 289.576171875 310 c 0,22,23
 254.576171875 310 254.576171875 310 208.576171875 286 c 0,24,25
 195.576171875 279 195.576171875 279 181.576171875 269 c 1,26,-1
 119.576171875 6 l 1,27,-1
 20.576171875 -16 l 1,28,-1
 100.576171875 332 l 1,29,-1
 115.576171875 403 l 1,30,-1
 202.576171875 403 l 1,0,-1
EndSplineSet
EndChar

StartChar: o
Encoding: 111 111 209
Width: 448
GlyphClass: 2
Flags: W
LayerCount: 2
Fore
SplineSet
50 48 m 0,0,1
 26 106 26 106 47.5 201 c 128,-1,2
 69 296 69 296 120 355 c 0,3,4
 174 416 174 416 273.5 416 c 128,-1,5
 373 416 373 416 398 355 c 0,6,7
 422 297 422 297 400.5 202.5 c 128,-1,8
 379 108 379 108 327 49 c 0,9,10
 272 -13 272 -13 173 -13 c 0,11,12
 75 -13 75 -13 50 48 c 0,0,1
197 84 m 0,13,14
 241 84 241 84 264 107 c 0,15,16
 288 133 288 133 303.5 201 c 128,-1,17
 319 269 319 269 307 296 c 0,18,19
 294 320 294 320 251 319 c 0,20,21
 228 319 228 319 212.5 313.5 c 128,-1,22
 197 308 197 308 184 295 c 0,23,24
 172 283 172 283 162 259 c 128,-1,25
 152 235 152 235 145 202 c 0,26,27
 129 134 129 134 140 107 c 0,28,29
 150 89 150 89 176 85 c 0,30,31
 185 84 185 84 197 84 c 0,13,14
EndSplineSet
EndChar

StartChar: oslash
Encoding: 248 248 217
Width: 448
GlyphClass: 2
Flags: W
LayerCount: 2
Fore
SplineSet
461.5 363 m 1,0,-1
 406.5 307 l 1,1,2
 413.5 260 413.5 260 399.5 196 c 0,3,4
 378.5 104 378.5 104 326.5 47 c 0,5,6
 272.5 -13 272.5 -13 175.5 -14 c 0,7,8
 110.5 -14 110.5 -14 75.5 21 c 1,9,-1
 39.5 -17 l 1,10,-1
 -13.5 41 l 1,11,-1
 41.5 96 l 1,12,13
 34.5 142 34.5 142 48.5 206 c 0,14,15
 69.5 299 69.5 299 120.5 356 c 0,16,17
 173.5 416 173.5 416 271.5 416 c 0,18,19
 336.5 416 336.5 416 371.5 381 c 1,20,-1
 418.5 464 l 1,21,-1
 461.5 363 l 1,0,-1
139.5 169 m 1,22,-1
 294.5 306 l 1,23,24
 281.5 319 281.5 319 250.5 319 c 0,25,26
 229.5 319 229.5 319 214.5 312.5 c 128,-1,27
 199.5 306 199.5 306 187 292.5 c 128,-1,28
 174.5 279 174.5 279 163 252 c 128,-1,29
 151.5 225 151.5 225 143.5 187 c 0,30,31
 141.5 178 141.5 178 139.5 169 c 1,22,-1
152.5 97 m 1,32,33
 165.5 84 165.5 84 196.5 83 c 0,34,35
 237.5 83 237.5 83 260.5 109 c 0,36,37
 286.5 139 286.5 139 304.5 215 c 0,38,39
 306.5 225 306.5 225 308.5 234 c 1,40,-1
 152.5 97 l 1,32,33
EndSplineSet
EndChar

StartChar: oe
Encoding: 339 339 220
Width: 448
Flags: W
CounterMasks: 1 38
LayerCount: 2
Fore
SplineSet
290 242 m 1,0,-1
 316 242 l 1,1,-1
 331 306 l 1,2,-1
 305 306 l 1,3,-1
 290 242 l 1,0,-1
165 306 m 1,4,-1
 117 97 l 1,5,-1
 144 97 l 1,6,-1
 192 306 l 1,7,-1
 165 306 l 1,4,-1
66 0 m 1,8,-1
 80 64 l 1,9,-1
 23 64 l 1,10,-1
 87 339 l 1,11,-1
 144 339 l 1,12,-1
 159 403 l 1,13,-1
 383 403 l 1,14,-1
 368 339 l 1,15,-1
 425 339 l 1,16,-1
 384 162 l 1,17,-1
 271 162 l 1,18,-1
 256 97 l 1,19,-1
 369 97 l 1,20,-1
 347 0 l 1,21,-1
 66 0 l 1,8,-1
EndSplineSet
EndChar

StartChar: p
Encoding: 112 112 221
Width: 448
GlyphClass: 2
Flags: W
LayerCount: 2
Fore
SplineSet
433.099609375 351 m 0,0,1
 457.099609375 294 457.099609375 294 436.099609375 202 c 128,-1,2
 415.099609375 110 415.099609375 110 365.099609375 52 c 0,3,4
 312.099609375 -8 312.099609375 -8 223.099609375 -8 c 0,5,6
 171.099609375 -8 171.099609375 -8 142.099609375 12 c 1,7,-1
 101.099609375 -168 l 1,8,-1
 2.099609375 -192 l 1,9,-1
 119.099609375 307 l 1,10,-1
 128.099609375 307 l 1,11,-1
 138.099609375 324 l 1,12,-1
 158.099609375 353 l 1,13,-1
 159.099609375 354 l 2,14,15
 218.099609375 411 218.099609375 411 317.099609375 411 c 0,16,17
 407.099609375 411 407.099609375 411 433.099609375 351 c 0,0,1
330.599609375 305 m 128,-1,19
 316.099609375 314 316.099609375 314 286.099609375 314 c 0,20,21
 232.099609375 314 232.099609375 314 207.099609375 291 c 1,22,-1
 165.099609375 113 l 1,23,24
 180.099609375 89 180.099609375 89 234.099609375 89 c 0,25,26
 264.099609375 89 264.099609375 89 283.099609375 98 c 0,27,28
 301.099609375 107 301.099609375 107 315.099609375 131 c 0,29,30
 328.099609375 155 328.099609375 155 338.599609375 201.5 c 128,-1,31
 349.099609375 248 349.099609375 248 347.099609375 272 c 0,32,18
 345.099609375 296 345.099609375 296 330.599609375 305 c 128,-1,19
EndSplineSet
EndChar

StartChar: thorn
Encoding: 254 254 222
Width: 448
Flags: W
LayerCount: 2
Fore
SplineSet
286.669921875 640 m 1,0,-1
 229.669921875 392 l 1,1,2
 267.669921875 411 267.669921875 411 318.669921875 411 c 0,3,4
 407.669921875 411 407.669921875 411 433.669921875 351 c 0,5,6
 457.669921875 294 457.669921875 294 436.169921875 202 c 128,-1,7
 414.669921875 110 414.669921875 110 364.669921875 52 c 0,8,9
 311.669921875 -8 311.669921875 -8 223.669921875 -8 c 0,10,11
 171.669921875 -8 171.669921875 -8 141.669921875 12 c 1,12,-1
 94.669921875 -192 l 1,13,-1
 1.669921875 -192 l 1,14,-1
 193.669921875 640 l 1,15,-1
 286.669921875 640 l 1,0,-1
330.169921875 305 m 128,-1,17
 315.669921875 314 315.669921875 314 285.669921875 314 c 0,18,19
 231.669921875 314 231.669921875 314 206.669921875 291 c 1,20,-1
 165.669921875 113 l 1,21,22
 180.669921875 89 180.669921875 89 233.669921875 89 c 0,23,24
 263.669921875 89 263.669921875 89 282.669921875 98 c 0,25,26
 300.669921875 107 300.669921875 107 314.669921875 131 c 0,27,28
 327.669921875 155 327.669921875 155 338.169921875 201.5 c 128,-1,29
 348.669921875 248 348.669921875 248 346.669921875 272 c 0,30,16
 344.669921875 296 344.669921875 296 330.169921875 305 c 128,-1,17
EndSplineSet
EndChar

StartChar: q
Encoding: 113 113 223
Width: 448
Flags: W
LayerCount: 2
Fore
SplineSet
323.51171875 -84 m 1,0,-1
 356.51171875 -64 l 1,1,-1
 333.51171875 -163 l 1,2,-1
 288.51171875 -192 l 1,3,-1
 203.51171875 -192 l 1,4,-1
 250.51171875 12 l 1,5,6
 209.51171875 -8 209.51171875 -8 159.51171875 -8 c 0,7,8
 72.51171875 -8 72.51171875 -8 48.51171875 52 c 0,9,10
 25.51171875 109 25.51171875 109 46.51171875 201 c 128,-1,11
 67.51171875 293 67.51171875 293 117.51171875 351 c 0,12,13
 170.51171875 411 170.51171875 411 258.51171875 411 c 0,14,15
 313.51171875 411 313.51171875 411 343.51171875 402 c 0,16,17
 370.51171875 393 370.51171875 393 378.51171875 377 c 1,18,-1
 403.51171875 342 l 1,19,-1
 411.51171875 311 l 1,20,-1
 405.51171875 277 l 1,21,-1
 323.51171875 -84 l 1,0,-1
314.51171875 291 m 1,22,23
 296.51171875 314 296.51171875 314 245.51171875 314 c 0,24,25
 216.51171875 314 216.51171875 314 198.51171875 305 c 0,26,27
 171.51171875 291 171.51171875 291 156.51171875 243 c 0,28,29
 150.51171875 225 150.51171875 225 146.01171875 205.5 c 128,-1,30
 141.51171875 186 141.51171875 186 138.51171875 173 c 0,31,32
 128.51171875 113 128.51171875 113 151.51171875 98 c 0,33,34
 165.51171875 89 165.51171875 89 193.51171875 89 c 0,35,36
 244.51171875 89 244.51171875 89 273.51171875 113 c 1,37,-1
 314.51171875 291 l 1,22,23
EndSplineSet
EndChar

StartChar: r
Encoding: 114 114 224
Width: 448
GlyphClass: 2
Flags: W
LayerCount: 2
Fore
SplineSet
115.5 321 m 1,0,-1
 38.5 1 l 1,1,-1
 116.5 1 l 1,2,-1
 181.5 285 l 1,3,4
 228.5 327 228.5 327 293.5 327 c 0,5,6
 295.5 327 295.5 327 368.5 310 c 1,7,-1
 409.5 400 l 1,8,9
 380.5 407 380.5 407 345.5 407 c 0,10,11
 202.5 407 202.5 407 149.5 358 c 1,12,-1
 115.5 321 l 1,0,-1
EndSplineSet
EndChar

StartChar: s
Encoding: 115 115 228
Width: 448
GlyphClass: 2
Flags: W
LayerCount: 2
Fore
SplineSet
74.5 106 m 2,0,1
 128.5 89 128.5 89 189.5 89 c 0,2,3
 254.5 89 254.5 89 273.5 105 c 0,4,5
 279.5 111 279.5 111 281.5 121 c 0,6,7
 285.5 136 285.5 136 273.5 145 c 0,8,9
 252.5 157 252.5 157 205.5 170 c 0,10,11
 158.5 183 158.5 183 135.5 196 c 128,-1,12
 112.5 209 112.5 209 99 233.5 c 128,-1,13
 85.5 258 85.5 258 94.5 296 c 0,14,15
 106.5 348 106.5 348 157 379.5 c 128,-1,16
 207.5 411 207.5 411 298.5 411 c 0,17,18
 364.5 411 364.5 411 414.5 394 c 2,19,-1
 426.5 389 l 1,20,-1
 388.5 299 l 1,21,-1
 375.5 303 l 2,22,23
 335.5 314 335.5 314 281.5 314 c 0,24,25
 211.5 314 211.5 314 192.5 295 c 0,26,27
 187.5 289 187.5 289 185.5 281 c 0,28,29
 181.5 265 181.5 265 196.5 257 c 0,30,31
 217.5 246 217.5 246 268.5 231 c 0,32,33
 311.5 219 311.5 219 332.5 207 c 0,34,35
 355.5 194 355.5 194 368.5 172 c 0,36,37
 382.5 148 382.5 148 374.5 109 c 0,38,39
 361.5 52 361.5 52 307.5 22 c 0,40,41
 281.5 7 281.5 7 252.5 0 c 0,42,43
 216.5 -7 216.5 -7 173.5 -8 c 0,44,45
 92.5 -8 92.5 -8 32.5 19 c 2,46,-1
 21.5 24 l 1,47,-1
 61.5 110 l 1,48,-1
 74.5 106 l 2,0,1
EndSplineSet
EndChar

StartChar: scedilla
Encoding: 351 351 231
Width: 448
GlyphClass: 2
Flags: W
LayerCount: 2
Fore
SplineSet
366.5 161 m 0,0,1
 380.5 135 380.5 135 370.5 94 c 0,2,3
 356.5 32 356.5 32 298.5 -2 c 1,4,5
 278.5 -88 278.5 -88 230.5 -137 c 0,6,7
 173.5 -192 173.5 -192 48.5 -192 c 2,8,-1
 34.5 -192 l 1,9,-1
 54.5 -96 l 1,10,-1
 67.5 -95 l 2,11,12
 108.5 -93 108.5 -93 135 -84 c 128,-1,13
 161.5 -75 161.5 -75 175.5 -55 c 0,14,15
 188.5 -38 188.5 -38 198.5 -7 c 1,16,17
 178.5 -8 178.5 -8 175.5 -8 c 0,18,-1
 172.5 -8 l 0,19,20
 92.5 -8 92.5 -8 32.5 19 c 2,21,-1
 21.5 24 l 1,22,-1
 61.5 110 l 1,23,-1
 74.5 106 l 2,24,25
 128.5 89 128.5 89 189.5 89 c 0,26,27
 254.5 89 254.5 89 273.5 105 c 0,28,29
 279.5 111 279.5 111 281.5 121 c 0,30,31
 285.5 136 285.5 136 273.5 145 c 0,32,33
 252.5 157 252.5 157 205.5 170 c 128,-1,34
 158.5 183 158.5 183 135.5 196 c 128,-1,35
 112.5 209 112.5 209 99 233.5 c 128,-1,36
 85.5 258 85.5 258 94.5 296 c 0,37,38
 106.5 348 106.5 348 157 379.5 c 128,-1,39
 207.5 411 207.5 411 298.5 411 c 0,40,41
 364.5 411 364.5 411 414.5 394 c 2,42,-1
 426.5 389 l 1,43,-1
 388.5 299 l 1,44,-1
 375.5 303 l 2,45,46
 335.5 314 335.5 314 281.5 314 c 0,47,48
 211.5 314 211.5 314 192.5 293 c 0,49,50
 187.5 287 187.5 287 185.5 278 c 0,51,52
 181.5 261 181.5 261 195.5 253 c 0,53,54
 216.5 241 216.5 241 266.5 226 c 0,55,56
 309.5 213 309.5 213 330.5 200 c 0,57,58
 353.5 186 353.5 186 366.5 161 c 0,0,1
EndSplineSet
Substitution2: "'locl' Localized Forms in Latin lookup 6 subtable" uni0219
Substitution2: "'aalt' Access All Alternates in Latin lookup 0 subtable" uni0219
EndChar

StartChar: germandbls
Encoding: 223 223 234
Width: 448
Flags: W
LayerCount: 2
Fore
SplineSet
308.776367188 133 m 0,0,1
 291.776367188 58 291.776367188 58 221.776367188 58 c 0,2,3
 200.776367188 58 200.776367188 58 177.776367188 63 c 1,4,-1
 164.776367188 33 l 1,5,6
 190.776367188 25 190.776367188 25 220.776367188 25 c 0,7,8
 265.776367188 25 265.776367188 25 299.776367188 53 c 0,9,10
 333.776367188 79 333.776367188 79 345.776367188 127 c 0,11,12
 349.776367188 146 349.776367188 146 348.776367188 157 c 0,13,14
 347.776367188 175 347.776367188 175 343.276367188 183.5 c 128,-1,15
 338.776367188 192 338.776367188 192 333.776367188 201 c 0,16,17
 322.776367188 217 322.776367188 217 302.276367188 236.5 c 128,-1,18
 281.776367188 256 281.776367188 256 271.776367188 273 c 0,19,20
 259.776367188 293 259.776367188 293 265.776367188 322 c 0,21,22
 270.776367188 345 270.776367188 345 285.276367188 360.5 c 128,-1,23
 299.776367188 376 299.776367188 376 327.276367188 397.5 c 128,-1,24
 354.776367188 419 354.776367188 419 371.776367188 440 c 0,25,26
 388.776367188 462 388.776367188 462 397.776367188 500 c 0,27,28
 410.776367188 555 410.776367188 555 385.776367188 585 c 128,-1,29
 360.776367188 615 360.776367188 615 307.276367188 615 c 128,-1,30
 253.776367188 615 253.776367188 615 214.276367188 582.5 c 128,-1,31
 174.776367188 550 174.776367188 550 158.776367188 480 c 2,32,-1
 45.7763671875 -9 l 1,33,-1
 82.7763671875 0 l 1,34,-1
 194.776367188 486 l 2,35,36
 206.776367188 540 206.776367188 540 239.776367188 564 c 0,37,38
 264.776367188 584 264.776367188 584 299.776367188 584 c 0,39,40
 333.776367188 584 333.776367188 584 348.776367188 567 c 0,41,42
 369.776367188 544 369.776367188 544 358.776367188 496 c 0,43,44
 351.776367188 464 351.776367188 464 334.776367188 444 c 0,45,46
 319.776367188 432 319.776367188 432 293.776367188 418 c 0,47,48
 268.776367188 405 268.776367188 405 254.776367188 394 c 0,49,50
 239.776367188 375 239.776367188 375 232.776367188 343 c 0,51,52
 223.776367188 302 223.776367188 302 233.776367188 280 c 0,53,54
 244.776367188 256 244.776367188 256 270.276367188 230.5 c 128,-1,55
 295.776367188 205 295.776367188 205 305.776367188 187 c 0,56,57
 315.776367188 165 315.776367188 165 308.776367188 133 c 0,0,1
EndSplineSet
EndChar

StartChar: longs
Encoding: 383 383 235
Width: 448
GlyphClass: 2
Flags: W
LayerCount: 2
Fore
SplineSet
156.5 403 m 1,0,-1
 217.5 403 l 1,1,-1
 228.5 452 l 2,2,3
 251.5 550 251.5 550 297.5 599 c 0,4,5
 352.5 648 352.5 648 428.5 648 c 0,6,7
 476.5 648 476.5 648 521.5 638 c 2,8,-1
 533.5 635 l 1,9,-1
 497.5 535 l 1,10,11
 440.5 551 440.5 551 415.5 551 c 0,12,13
 382.5 551 382.5 551 366.5 535 c 0,14,15
 352.5 521 352.5 521 345.5 492 c 2,16,-1
 209.5 -38 l 1,17,18
 191.5 -115 191.5 -115 147.5 -153 c 0,19,20
 94.5 -192 94.5 -192 19.5 -192 c 0,21,22
 -28.5 -192 -28.5 -192 -72.5 -182 c 2,23,-1
 -85.5 -179 l 1,24,-1
 -49.5 -85 l 1,25,26
 7.5 -95 7.5 -95 32.5 -95 c 0,27,28
 64.5 -95 64.5 -95 80.5 -80 c 0,29,30
 101.5 -67 101.5 -67 114.5 -42 c 1,31,-1
 196.5 313 l 1,32,-1
 136.5 315 l 1,33,-1
 156.5 403 l 1,0,-1
EndSplineSet
EndChar

StartChar: t
Encoding: 116 116 236
Width: 448
GlyphClass: 2
Flags: W
HStem: 306 97<78.4216 141.5 281.5 371.5> 316 87<74.5 141.5> 556 20G<197.876 321.5>
DStem2: 98.5 125 184.5 -36 0.21845 0.975848<-121.45 192.853 311.262 462.826>
LayerCount: 2
Fore
SplineSet
162.5 403 m 1,0,-1
 202.5 576 l 1,1,-1
 321.5 576 l 1,2,-1
 281.5 403 l 1,3,-1
 394.5 403 l 1,4,-1
 371.5 306 l 1,5,-1
 259.5 306 l 1,6,-1
 184.5 -36 l 1,7,-1
 117.5 -17 l 1,8,-1
 82.5 0 l 1,9,-1
 80.5 4 l 2,10,11
 74.5 23 74.5 23 98.5 125 c 2,12,-1
 141.5 313 l 1,13,-1
 53.5 316 l 1,14,-1
 74.5 403 l 1,15,-1
 162.5 403 l 1,0,-1
EndSplineSet
EndChar

StartChar: tbar
Encoding: 359 359 237
Width: 448
GlyphClass: 2
Flags: W
LayerCount: 2
Fore
SplineSet
317.5 5 m 1,0,-1
 304.5 2 l 2,1,2
 255.5 -8 255.5 -8 216.5 -8 c 0,3,4
 167.5 -8 167.5 -8 134.5 3 c 0,5,6
 101.5 13 101.5 13 88.5 35 c 0,7,8
 69.5 68 69.5 68 83.5 125 c 2,9,-1
 89.5 152 l 1,10,-1
 51.5 152 l 1,11,-1
 72.5 245 l 1,12,-1
 110.5 245 l 1,13,-1
 126.5 314 l 1,14,-1
 66.5 318 l 1,15,-1
 86.5 403 l 1,16,-1
 147.5 403 l 1,17,-1
 187.5 576 l 1,18,-1
 296.5 576 l 1,19,-1
 256.5 403 l 1,20,-1
 396.5 403 l 1,21,-1
 374.5 306 l 1,22,-1
 233.5 306 l 1,23,-1
 219.5 245 l 1,24,-1
 343.5 245 l 1,25,-1
 321.5 152 l 1,26,-1
 198.5 152 l 1,27,-1
 192.5 127 l 2,28,29
 188.5 109 188.5 109 198.5 101 c 0,30,31
 209.5 90 209.5 90 242.5 90 c 0,32,33
 276.5 90 276.5 90 314.5 98 c 2,34,-1
 328.5 101 l 1,35,-1
 317.5 5 l 1,0,-1
EndSplineSet
EndChar

StartChar: tcaron
Encoding: 357 357 238
Width: 448
Flags: W
LayerCount: 2
Fore
SplineSet
324 507.5 m 128,-1,1
 341.5 557 341.5 557 356.5 620 c 2,2,-1
 360.5 640 l 1,3,-1
 453.5 640 l 1,4,-1
 449.5 620 l 2,5,6
 432.5 546 432.5 546 406 485.5 c 128,-1,7
 379.5 425 379.5 425 341.5 369 c 2,8,-1
 331.5 354 l 1,9,-1
 267.5 387 l 1,10,-1
 277.5 405 l 2,11,0
 306.5 458 306.5 458 324 507.5 c 128,-1,1
75.5 403 m 1,12,-1
 112.5 561 l 1,13,-1
 214.5 561 l 1,14,-1
 178.5 403 l 1,15,-1
 265.5 403 l 1,16,-1
 242.5 306 l 1,17,-1
 156.5 306 l 1,18,-1
 116.5 134 l 2,19,20
 111.5 112 111.5 112 119.5 102 c 0,21,22
 129.5 90 129.5 90 161.5 90 c 0,23,24
 202.5 90 202.5 90 244.5 98 c 2,25,-1
 258.5 100 l 1,26,-1
 249.5 5 l 1,27,-1
 235.5 2 l 2,28,29
 183.5 -8 183.5 -8 136.5 -8 c 128,-1,30
 89.5 -8 89.5 -8 59.5 3 c 0,31,32
 29.5 13 29.5 13 17.5 35 c 0,33,34
 -1.5 68 -1.5 68 11.5 126 c 2,35,-1
 54.5 313 l 1,36,-1
 -5.5 317 l 1,37,-1
 14.5 403 l 1,38,-1
 75.5 403 l 1,12,-1
EndSplineSet
EndChar

StartChar: uni0163
Encoding: 355 355 239
Width: 448
GlyphClass: 2
Flags: W
LayerCount: 2
Fore
SplineSet
389 306 m 1,0,-1
 248 306 l 1,1,-1
 209 134 l 2,2,3
 204 112 204 112 213 102 c 0,4,5
 224 90 224 90 257 90 c 0,6,7
 291 90 291 90 329 98 c 2,8,-1
 343 100 l 1,9,-1
 332 5 l 1,10,-1
 299 -2 l 1,11,12
 275 -86 275 -86 229 -136 c 0,13,14
 175 -192 175 -192 51 -192 c 2,15,-1
 37 -192 l 1,16,-1
 57 -96 l 1,17,18
 85 -95 85 -95 98 -93 c 0,19,20
 127 -90 127 -90 147 -83 c 0,21,22
 173 -74 173 -74 187 -56 c 128,-1,23
 201 -38 201 -38 212 -7 c 1,24,25
 131 -3 131 -3 104 35 c 0,26,27
 85 68 85 68 98 126 c 2,28,-1
 141 313 l 1,29,-1
 81 316 l 1,30,-1
 101 403 l 1,31,-1
 162 403 l 1,32,-1
 202 576 l 1,33,-1
 311 576 l 1,34,-1
 271 403 l 1,35,-1
 411 403 l 1,36,-1
 389 306 l 1,0,-1
EndSplineSet
Substitution2: "'locl' Localized Forms in Latin lookup 6 subtable" uni021B
Substitution2: "'aalt' Access All Alternates in Latin lookup 0 subtable" uni021B
EndChar

StartChar: u
Encoding: 117 117 241
Width: 448
GlyphClass: 2
Flags: W
LayerCount: 2
Fore
SplineSet
343.681640625 54 m 1,0,-1
 249.681640625 12 l 1,1,2
 183.681640625 -4 183.681640625 -4 121.681640625 -4 c 0,3,4
 63.681640625 -4 63.681640625 -4 37.681640625 30 c 128,-1,5
 11.681640625 64 11.681640625 64 29.681640625 140 c 2,6,-1
 89.681640625 403 l 1,7,-1
 183.681640625 403 l 1,8,-1
 126.681640625 159 l 2,9,10
 117.681640625 121 117.681640625 121 126.681640625 105 c 0,11,12
 133.681640625 93 133.681640625 93 163.681640625 93 c 0,13,14
 188.681640625 93 188.681640625 93 216.681640625 104 c 128,-1,15
 244.681640625 115 244.681640625 115 269.681640625 132 c 1,16,-1
 332.681640625 403 l 1,17,-1
 425.681640625 403 l 1,18,-1
 352.681640625 86 l 1,19,-1
 343.681640625 54 l 1,0,-1
EndSplineSet
EndChar

StartChar: uogonek
Encoding: 371 371 249
Width: 448
GlyphClass: 2
Flags: W
LayerCount: 2
Fore
SplineSet
253.599609375 25 m 1,0,-1
 254.599609375 34 l 1,1,2
 187.599609375 -4 187.599609375 -4 122.599609375 -4 c 0,3,4
 62.599609375 -4 62.599609375 -4 35.599609375 30 c 128,-1,5
 8.599609375 64 8.599609375 64 26.599609375 140 c 2,6,-1
 86.599609375 403 l 1,7,-1
 180.599609375 403 l 1,8,-1
 123.599609375 159 l 2,9,10
 114.599609375 121 114.599609375 121 124.599609375 105 c 0,11,12
 132.599609375 93 132.599609375 93 162.599609375 93 c 0,13,14
 188.599609375 93 188.599609375 93 217.099609375 104 c 128,-1,15
 245.599609375 115 245.599609375 115 272.599609375 132 c 1,16,-1
 335.599609375 403 l 1,17,-1
 428.599609375 403 l 1,18,-1
 351.599609375 70 l 1,19,-1
 339.599609375 10 l 1,20,21
 311.599609375 -17 311.599609375 -17 300.099609375 -30.5 c 128,-1,22
 288.599609375 -44 288.599609375 -44 282.599609375 -51 c 0,23,24
 266.599609375 -74 266.599609375 -74 261.599609375 -92 c 0,25,26
 259.599609375 -100 259.599609375 -100 261.599609375 -101.5 c 128,-1,27
 263.599609375 -103 263.599609375 -103 268.599609375 -103 c 0,28,29
 279.599609375 -103 279.599609375 -103 294.599609375 -96 c 2,30,-1
 310.599609375 -89 l 1,31,-1
 313.599609375 -172 l 1,32,-1
 301.599609375 -179 l 2,33,34
 269.599609375 -197 269.599609375 -197 233.599609375 -197 c 0,35,36
 190.599609375 -197 190.599609375 -197 168.599609375 -171 c 0,37,38
 146.599609375 -146 146.599609375 -146 156.599609375 -102 c 0,39,40
 171.599609375 -36 171.599609375 -36 253.599609375 25 c 1,0,-1
EndSplineSet
EndChar

StartChar: v
Encoding: 118 118 252
Width: 448
GlyphClass: 2
Flags: W
LayerCount: 2
Fore
SplineSet
138.0703125 -2 m 1,0,-1
 73.0703125 -2 l 1,1,-1
 70.0703125 5 l 2,2,3
 27.0703125 90 27.0703125 90 15.5703125 179.5 c 128,-1,4
 4.0703125 269 4.0703125 269 21.0703125 388 c 2,5,-1
 23.0703125 403 l 1,6,-1
 111.0703125 403 l 1,7,8
 94.0703125 278 94.0703125 278 101.0703125 208 c 0,9,10
 107.0703125 150 107.0703125 150 127.0703125 92 c 1,11,12
 174.0703125 150 174.0703125 150 207.0703125 208 c 0,13,14
 246.0703125 278 246.0703125 278 282.0703125 390 c 2,15,-1
 287.0703125 403 l 1,16,17
 304.0703125 413 304.0703125 413 354.0703125 413 c 0,18,19
 390.0703125 413 390.0703125 413 408.5703125 388 c 128,-1,20
 427.0703125 363 427.0703125 363 437.0703125 299 c 1,21,-1
 416.0703125 288 l 1,22,-1
 406.0703125 323 l 2,23,24
 396.0703125 359 396.0703125 359 378.0703125 358 c 0,25,26
 372.0703125 358 372.0703125 358 365.5703125 353.5 c 128,-1,27
 359.0703125 349 359.0703125 349 356.0703125 345 c 2,28,-1
 354.0703125 337 l 0,29,-1
 375.0703125 403 l 1,30,-1
 370.0703125 388 l 2,31,32
 333.0703125 269 333.0703125 269 280.0703125 179.5 c 128,-1,33
 227.0703125 90 227.0703125 90 144.0703125 5 c 2,34,-1
 138.0703125 -2 l 1,0,-1
EndSplineSet
EndChar

StartChar: x
Encoding: 120 120 258
Width: 448
GlyphClass: 2
Flags: W
LayerCount: 2
Fore
SplineSet
363.5 111 m 1,0,1
 356.5 82 356.5 82 353.5 57 c 0,2,3
 354.5 53 354.5 53 359 48.5 c 128,-1,4
 363.5 44 363.5 44 369.5 44 c 0,5,6
 387.5 44 387.5 44 411.5 78 c 2,7,-1
 439.5 113 l 1,8,-1
 454.5 103 l 1,9,10
 413.5 39 413.5 39 384 14.5 c 128,-1,11
 354.5 -10 354.5 -10 316.5 -10 c 0,12,13
 272.5 -10 272.5 -10 265.5 23.5 c 128,-1,14
 258.5 57 258.5 57 271.5 113 c 1,15,16
 276.5 145 276.5 145 250.5 53 c 0,17,18
 251.5 85 251.5 85 243.5 108 c 0,19,20
 232.5 139 232.5 139 203.5 165 c 1,21,22
 162.5 139 162.5 139 135.5 104.5 c 128,-1,23
 108.5 70 108.5 70 90.5 14 c 2,24,-1
 86.5 0 l 1,25,-1
 -6.5 0 l 1,26,-1
 -2.5 15 l 2,27,28
 17.5 84 17.5 84 54.5 132 c 0,29,30
 85.5 173 85.5 173 130.5 204 c 1,31,32
 69.5 265 69.5 265 89.5 389 c 2,33,-1
 91.5 403 l 1,34,-1
 184.5 403 l 1,35,-1
 182.5 390 l 2,36,37
 173.5 326 173.5 326 183.5 293 c 0,38,39
 192.5 265 192.5 265 220.5 241 c 1,40,41
 259.5 265 259.5 265 282.5 293 c 0,42,43
 308.5 326 308.5 326 328.5 390 c 2,44,-1
 332.5 403 l 1,45,-1
 425.5 403 l 1,46,-1
 421.5 389 l 2,47,48
 401.5 321 401.5 321 366.5 273 c 0,49,50
 336.5 232 336.5 232 295.5 204 c 1,51,52
 338.5 160 338.5 160 344.5 98 c 0,53,54
 348.5 62 348.5 62 340.5 16 c 2,55,-1
 363.5 111 l 1,0,1
EndSplineSet
EndChar

StartChar: y
Encoding: 121 121 259
Width: 448
GlyphClass: 2
Flags: W
LayerCount: 2
Fore
SplineSet
436.5 403 m 1,0,-1
 432.5 388 l 2,1,2
 396.5 234 396.5 234 374.5 155 c 128,-1,3
 352.5 76 352.5 76 330.5 22 c 0,4,5
 291.5 -73 291.5 -73 225.5 -125 c 0,6,7
 149.5 -179 149.5 -179 25.5 -199 c 2,8,-1
 11.5 -201 l 1,9,-1
 13.5 -107 l 1,10,-1
 28.5 -105 l 2,11,12
 115.5 -90 115.5 -90 159.5 -60 c 0,13,14
 195.5 -35 195.5 -35 219.5 4 c 1,15,16
 134.5 19 134.5 19 95.5 58 c 0,17,18
 58.5 101 58.5 101 57 174 c 128,-1,19
 55.5 247 55.5 247 74.5 403 c 1,20,-1
 167.5 403 l 1,21,22
 149.5 247 149.5 247 152 184 c 128,-1,23
 154.5 121 154.5 121 179.5 95 c 0,24,25
 200.5 73 200.5 73 252.5 61 c 1,26,27
 271.5 112 271.5 112 290 182.5 c 128,-1,28
 308.5 253 308.5 253 339.5 388 c 2,29,-1
 343.5 403 l 1,30,-1
 436.5 403 l 1,0,-1
EndSplineSet
EndChar

StartChar: z
Encoding: 122 122 264
Width: 448
GlyphClass: 2
Flags: W
LayerCount: 2
Fore
SplineSet
417 333 m 1,0,-1
 298 226 l 1,1,-1
 379 224 l 5,2,-1
 367 179 l 5,3,-1
 247 178 l 1,4,-1
 124 68 l 1,5,-1
 359 67 l 1,6,-1
 343 0 l 1,7,-1
 15 0 l 1,8,-1
 31 71 l 1,9,-1
 148 180 l 1,10,-1
 84 181 l 1,11,-1
 96 231 l 1,12,-1
 193 228 l 1,13,-1
 329 331 l 1,14,-1
 106 336 l 1,15,-1
 122 403 l 1,16,-1
 433 403 l 1,17,-1
 417 333 l 1,0,-1
EndSplineSet
EndChar

StartChar: g.ss01
Encoding: 1114113 -1 268
Width: 448
GlyphClass: 2
Flags: W
LayerCount: 2
Fore
SplineSet
138.5 92 m 2,0,-1
 245.5 92 l 2,1,2
 328.5 92 328.5 92 357.5 53 c 0,3,4
 386.5 14 386.5 14 372.5 -49 c 0,5,6
 355.5 -123 355.5 -123 299.5 -161.5 c 128,-1,7
 243.5 -200 243.5 -200 137.5 -200 c 0,8,9
 32.5 -200 32.5 -200 -2.5 -159.5 c 128,-1,10
 -37.5 -119 -37.5 -119 -23.5 -59 c 0,11,12
 -17.5 -32 -17.5 -32 -0.5 -5 c 0,13,14
 11.5 14 11.5 14 28.5 30 c 1,15,16
 11.5 56 11.5 56 20.5 95 c 0,17,18
 29.5 133 29.5 133 66.5 165 c 0,19,20
 71.5 170 71.5 170 77.5 174 c 1,21,22
 52.5 211 52.5 211 65.5 268 c 0,23,24
 79.5 331 79.5 331 130.5 371 c 128,-1,25
 181.5 411 181.5 411 268.5 411 c 0,26,27
 303.5 411 303.5 411 330.5 403 c 1,28,-1
 475.5 403 l 1,29,-1
 456.5 318 l 1,30,-1
 407.5 316 l 1,31,32
 413.5 289 413.5 289 405.5 257 c 0,33,34
 391.5 198 391.5 198 341.5 157 c 0,35,36
 289.5 117 289.5 117 202.5 117 c 0,37,38
 160.5 117 160.5 117 133.5 128 c 1,39,40
 127.5 124 127.5 124 122.5 117.5 c 128,-1,41
 117.5 111 117.5 111 115.5 104 c 128,-1,42
 113.5 97 113.5 97 118.5 94 c 0,43,44
 123.5 92 123.5 92 138.5 92 c 2,0,-1
296.5 305 m 0,45,46
 282.5 318 282.5 318 246.5 318 c 128,-1,47
 210.5 318 210.5 318 190 304.5 c 128,-1,48
 169.5 291 169.5 291 163.5 265 c 128,-1,49
 157.5 239 157.5 239 168.5 226 c 0,50,51
 181.5 210 181.5 210 221.5 210 c 128,-1,52
 261.5 210 261.5 210 281.5 226 c 0,53,54
 298.5 239 298.5 239 304.5 264 c 0,55,56
 307.5 278 307.5 278 306.5 286 c 0,57,58
 303.5 299 303.5 299 296.5 305 c 0,45,46
250.5 -89 m 0,59,60
 270.5 -77 270.5 -77 275.5 -54 c 0,61,62
 279.5 -38 279.5 -38 274.5 -30 c 0,63,64
 263.5 -14 263.5 -14 215.5 -14 c 2,65,-1
 120.5 -14 l 2,66,67
 104.5 -14 104.5 -14 91.5 -12 c 1,68,69
 85.5 -20 85.5 -20 79.5 -30 c 128,-1,70
 73.5 -40 73.5 -40 71.5 -52 c 0,71,72
 66.5 -75 66.5 -75 79.5 -88 c 0,73,74
 89.5 -97 89.5 -97 122.5 -101 c 0,75,76
 140.5 -103 140.5 -103 162.5 -103 c 0,77,78
 225.5 -103 225.5 -103 250.5 -89 c 0,59,60
EndSplineSet
EndChar

StartChar: ordfeminine
Encoding: 170 170 269
Width: 448
Flags: W
LayerCount: 2
Fore
SplineSet
336.595703125 377 m 1,0,-1
 328.595703125 320 l 1,1,-1
 243.595703125 320 l 1,2,-1
 244.595703125 340 l 1,3,4
 224.595703125 331 224.595703125 331 207.595703125 325 c 0,5,6
 181.595703125 317 181.595703125 317 153.595703125 317 c 0,7,8
 110.595703125 317 110.595703125 317 87.595703125 342 c 128,-1,9
 64.595703125 367 64.595703125 367 74.595703125 409 c 0,10,11
 80.595703125 436 80.595703125 436 98.095703125 457.5 c 128,-1,12
 115.595703125 479 115.595703125 479 142.595703125 492 c 0,13,14
 189.595703125 515 189.595703125 515 279.595703125 520 c 1,15,16
 282.595703125 537 282.595703125 537 280.595703125 547 c 0,17,18
 279.595703125 549 279.595703125 549 278.095703125 551 c 128,-1,19
 276.595703125 553 276.595703125 553 268.095703125 555.5 c 128,-1,20
 259.595703125 558 259.595703125 558 242.595703125 558 c 0,21,22
 206.595703125 558 206.595703125 558 159.595703125 546 c 2,23,-1
 143.595703125 543 l 1,24,-1
 144.595703125 627 l 1,25,26
 191.595703125 639 191.595703125 639 219.095703125 642.5 c 128,-1,27
 246.595703125 646 246.595703125 646 269.595703125 646 c 0,28,29
 332.595703125 646 332.595703125 646 359.095703125 618.5 c 128,-1,30
 385.595703125 591 385.595703125 591 371.595703125 527 c 2,31,-1
 336.595703125 377 l 1,0,-1
170.595703125 412 m 0,32,33
 175.595703125 406 175.595703125 406 186.595703125 406 c 0,34,35
 217.595703125 406 217.595703125 406 257.595703125 426 c 1,36,-1
 266.595703125 462 l 1,37,38
 218.595703125 459 218.595703125 459 194.595703125 449 c 0,39,40
 182.595703125 444 182.595703125 444 177.095703125 438.5 c 128,-1,41
 171.595703125 433 171.595703125 433 170.095703125 424 c 128,-1,42
 168.595703125 415 168.595703125 415 170.595703125 412 c 0,32,33
EndSplineSet
EndChar

StartChar: ordmasculine
Encoding: 186 186 270
Width: 448
Flags: W
LayerCount: 2
Fore
SplineSet
86 359 m 128,-1,1
 60 406 60 406 77 480 c 128,-1,2
 94 554 94 554 142 601 c 128,-1,3
 190 648 190 648 262.5 648 c 128,-1,4
 335 648 335 648 362 600 c 0,5,6
 388 554 388 554 371 480 c 128,-1,7
 354 406 354 406 305.5 359 c 128,-1,8
 257 312 257 312 184.5 312 c 128,-1,0
 112 312 112 312 86 359 c 128,-1,1
242 560 m 128,-1,10
 213 560 213 560 198 543 c 0,11,12
 179 523 179 523 169 479.5 c 128,-1,13
 159 436 159 436 169 416 c 0,14,15
 177 400 177 400 206 400 c 128,-1,16
 235 400 235 400 250 416 c 0,17,18
 268 435 268 435 278.5 479 c 128,-1,19
 289 523 289 523 279 543 c 0,20,9
 271 560 271 560 242 560 c 128,-1,10
EndSplineSet
EndChar

StartChar: uni207F
Encoding: 8319 8319 271
Width: 448
Flags: W
LayerCount: 2
Fore
SplineSet
348.89453125 631 m 0,0,1
 398.89453125 605 398.89453125 605 377.89453125 515 c 2,2,-1
 332.89453125 320 l 1,3,-1
 242.89453125 320 l 1,4,-1
 285.89453125 504 l 2,5,6
 292.89453125 535 292.89453125 535 288.89453125 547 c 0,7,8
 285.89453125 554 285.89453125 554 268.89453125 554 c 0,9,10
 241.89453125 554 241.89453125 554 202.89453125 528 c 1,11,-1
 154.89453125 320 l 1,12,-1
 63.89453125 320 l 1,13,-1
 123.89453125 578 l 1,14,-1
 132.89453125 640 l 1,15,-1
 218.89453125 640 l 1,16,-1
 216.89453125 620 l 1,17,18
 258.89453125 643 258.89453125 643 299.89453125 643 c 0,19,20
 328.89453125 643 328.89453125 643 348.89453125 631 c 0,0,1
EndSplineSet
EndChar

StartChar: A.sups
Encoding: 1114114 -1 272
Width: 448
Flags: W
LayerCount: 2
Fore
SplineSet
156.5 640 m 1,0,-1
 365.5 640 l 1,1,-1
 292.5 320 l 1,2,-1
 201.5 320 l 1,3,-1
 227.5 432 l 1,4,-1
 198.5 432 l 1,5,-1
 173.5 320 l 1,6,-1
 82.5 320 l 1,7,-1
 156.5 640 l 1,0,-1
253.5 543 m 1,8,-1
 224.5 543 l 1,9,-1
 221.5 528 l 1,10,-1
 250.5 528 l 1,11,-1
 253.5 543 l 1,8,-1
EndSplineSet
EndChar

StartChar: B.sups
Encoding: 1114115 -1 273
Width: 448
Flags: W
LayerCount: 2
Fore
SplineSet
156.5 640 m 1,0,-1
 365.5 640 l 1,1,-1
 332.5 496 l 1,2,-1
 273.5 496 l 1,3,-1
 269.5 481 l 1,4,-1
 329.5 481 l 1,5,-1
 292.5 320 l 1,6,-1
 82.5 320 l 1,7,-1
 156.5 640 l 1,0,-1
195.5 417 m 1,8,-1
 224.5 417 l 1,9,-1
 231.5 448 l 1,10,-1
 202.5 448 l 1,11,-1
 195.5 417 l 1,8,-1
224.5 543 m 1,12,-1
 221.5 528 l 1,13,-1
 250.5 528 l 1,14,-1
 253.5 543 l 1,15,-1
 224.5 543 l 1,12,-1
EndSplineSet
EndChar

StartChar: C.sups
Encoding: 1114116 -1 274
Width: 448
Flags: W
LayerCount: 2
Fore
SplineSet
270.811523438 327 m 2,0,1
 233.811523438 316 233.811523438 316 194.811523438 316 c 0,2,3
 132.811523438 316 132.811523438 316 108.311523438 359 c 128,-1,4
 83.8115234375 402 83.8115234375 402 101.811523438 480 c 128,-1,5
 119.811523438 558 119.811523438 558 163.811523438 601 c 128,-1,6
 207.811523438 644 207.811523438 644 270.811523438 644 c 0,7,8
 308.811523438 644 308.811523438 644 340.811523438 633 c 2,9,-1
 353.811523438 629 l 1,10,-1
 327.811523438 580 l 1,11,12
 298.811523438 587 298.811523438 587 285.811523438 588.5 c 128,-1,13
 272.811523438 590 272.811523438 590 261.811523438 590 c 0,14,15
 238.811523438 590 238.811523438 590 224.811523438 572 c 0,16,17
 218.811523438 564 218.811523438 564 210.311523438 542.5 c 128,-1,18
 201.811523438 521 201.811523438 521 194.811523438 490 c 0,19,20
 182.811523438 439 182.811523438 439 180.811523438 414 c 0,21,22
 179.811523438 396 179.811523438 396 182.811523438 388 c 0,23,24
 188.811523438 370 188.811523438 370 210.811523438 370 c 0,25,26
 232.811523438 370 232.811523438 370 265.811523438 377 c 2,27,-1
 280.811523438 380 l 1,28,-1
 284.811523438 331 l 1,29,-1
 270.811523438 327 l 2,0,1
EndSplineSet
EndChar

StartChar: D.sups
Encoding: 1114117 -1 275
Width: 448
Flags: W
LayerCount: 2
Fore
SplineSet
262.5 560 m 1,0,-1
 233.5 560 l 1,1,-1
 200.5 417 l 1,2,-1
 229.5 417 l 1,3,-1
 262.5 560 l 1,0,-1
311.5 640 m 1,4,-1
 300.5 592 l 1,5,-1
 360.5 592 l 1,6,-1
 311.5 384 l 1,7,-1
 252.5 384 l 1,8,-1
 237.5 320 l 1,9,-1
 87.5 320 l 1,10,-1
 161.5 640 l 1,11,-1
 311.5 640 l 1,4,-1
EndSplineSet
EndChar

StartChar: E.sups
Encoding: 1114118 -1 276
Width: 448
Flags: W
CounterMasks: 1 e0
LayerCount: 2
Fore
SplineSet
198.5 432 m 1,0,-1
 195.5 417 l 1,1,-1
 314.5 417 l 1,2,-1
 292.5 320 l 1,3,-1
 82.5 320 l 1,4,-1
 156.5 640 l 1,5,-1
 365.5 640 l 1,6,-1
 343.5 543 l 1,7,-1
 224.5 543 l 1,8,-1
 221.5 528 l 1,9,-1
 340.5 528 l 1,10,-1
 317.5 432 l 1,11,-1
 198.5 432 l 1,0,-1
EndSplineSet
EndChar

StartChar: F.sups
Encoding: 1114119 -1 277
Width: 448
Flags: W
LayerCount: 2
Fore
SplineSet
198.5 432 m 1,0,-1
 173.5 320 l 1,1,-1
 82.5 320 l 1,2,-1
 156.5 640 l 1,3,-1
 365.5 640 l 1,4,-1
 345.5 551 l 1,5,-1
 226.5 551 l 1,6,-1
 219.5 520 l 1,7,-1
 319.5 520 l 1,8,-1
 299.5 432 l 1,9,-1
 198.5 432 l 1,0,-1
EndSplineSet
EndChar

StartChar: G.sups
Encoding: 1114120 -1 278
Width: 448
Flags: W
LayerCount: 2
Fore
SplineSet
337 545 m 1,0,-1
 285 320 l 1,1,-1
 135 320 l 1,2,-1
 150 384 l 1,3,-1
 90 384 l 1,4,-1
 138 592 l 1,5,-1
 198 592 l 1,6,-1
 209 640 l 1,7,-1
 358 640 l 1,8,-1
 340 560 l 1,9,-1
 221 560 l 1,10,-1
 188 417 l 1,11,-1
 217 417 l 1,12,-1
 246 545 l 1,13,-1
 337 545 l 1,0,-1
EndSplineSet
EndChar

StartChar: H.sups
Encoding: 1114121 -1 279
Width: 448
Flags: W
LayerCount: 2
Fore
SplineSet
82.5 320 m 1,0,-1
 156.5 640 l 1,1,-1
 246.5 640 l 1,2,-1
 220.5 524 l 1,3,-1
 249.5 524 l 1,4,-1
 275.5 640 l 1,5,-1
 365.5 640 l 1,6,-1
 292.5 320 l 1,7,-1
 201.5 320 l 1,8,-1
 228.5 436 l 1,9,-1
 199.5 436 l 1,10,-1
 173.5 320 l 1,11,-1
 82.5 320 l 1,0,-1
EndSplineSet
EndChar

StartChar: I.sups
Encoding: 1114122 -1 280
Width: 448
Flags: W
LayerCount: 2
Fore
SplineSet
245.5 374 m 1,0,-1
 303.5 369 l 1,1,-1
 292.5 320 l 1,2,-1
 82.5 320 l 1,3,-1
 94.5 369 l 1,4,-1
 154.5 374 l 1,5,-1
 203.5 586 l 1,6,-1
 145.5 591 l 1,7,-1
 156.5 640 l 1,8,-1
 365.5 640 l 1,9,-1
 354.5 591 l 1,10,-1
 293.5 586 l 1,11,-1
 245.5 374 l 1,0,-1
EndSplineSet
EndChar

StartChar: J.sups
Encoding: 1114123 -1 281
Width: 448
Flags: W
LayerCount: 2
Fore
SplineSet
232.5 320 m 1,0,-1
 82.5 320 l 1,1,-1
 105.5 417 l 1,2,-1
 224.5 417 l 1,3,-1
 253.5 543 l 1,4,-1
 134.5 543 l 1,5,-1
 156.5 640 l 1,6,-1
 365.5 640 l 1,7,-1
 306.5 384 l 1,8,-1
 247.5 384 l 1,9,-1
 232.5 320 l 1,0,-1
EndSplineSet
EndChar

StartChar: K.sups
Encoding: 1114124 -1 282
Width: 448
Flags: W
LayerCount: 2
Fore
SplineSet
329.5 481 m 1,0,-1
 292.5 320 l 1,1,-1
 201.5 320 l 1,2,-1
 231.5 448 l 1,3,-1
 202.5 448 l 1,4,-1
 173.5 320 l 1,5,-1
 82.5 320 l 1,6,-1
 156.5 640 l 1,7,-1
 246.5 640 l 1,8,-1
 221.5 528 l 1,9,-1
 250.5 528 l 1,10,-1
 275.5 640 l 1,11,-1
 365.5 640 l 1,12,-1
 332.5 496 l 1,13,-1
 273.5 496 l 1,14,-1
 269.5 481 l 1,15,-1
 329.5 481 l 1,0,-1
EndSplineSet
EndChar

StartChar: L.sups
Encoding: 1114125 -1 283
Width: 448
Flags: W
LayerCount: 2
Fore
SplineSet
273 640 m 1,0,-1
 220 409 l 1,1,-1
 339 409 l 1,2,-1
 319 320 l 1,3,-1
 109 320 l 1,4,-1
 183 640 l 1,5,-1
 273 640 l 1,0,-1
EndSplineSet
EndChar

StartChar: M.sups
Encoding: 1114126 -1 284
Width: 448
Flags: W
LayerCount: 2
Fore
SplineSet
160 640 m 1,0,-1
 369 640 l 1,1,-1
 288 287 l 1,2,-1
 198 287 l 1,3,-1
 213 351 l 1,4,-1
 184 351 l 1,5,-1
 169 287 l 1,6,-1
 79 287 l 1,7,-1
 160 640 l 1,0,-1
EndSplineSet
EndChar

StartChar: N.sups
Encoding: 1114127 -1 285
Width: 448
Flags: W
LayerCount: 2
Fore
SplineSet
87.5 320 m 1,0,-1
 161.5 640 l 1,1,-1
 311.5 640 l 1,2,-1
 300.5 592 l 1,3,-1
 360.5 592 l 1,4,-1
 297.5 320 l 1,5,-1
 206.5 320 l 1,6,-1
 262.5 560 l 1,7,-1
 233.5 560 l 1,8,-1
 178.5 320 l 1,9,-1
 87.5 320 l 1,0,-1
EndSplineSet
EndChar

StartChar: O.sups
Encoding: 1114128 -1 286
Width: 448
Flags: W
LayerCount: 2
Fore
SplineSet
156.5 640 m 1,0,-1
 365.5 640 l 1,1,-1
 292.5 320 l 1,2,-1
 82.5 320 l 1,3,-1
 156.5 640 l 1,0,-1
195.5 417 m 1,4,-1
 224.5 417 l 1,5,-1
 253.5 543 l 1,6,-1
 224.5 543 l 1,7,-1
 195.5 417 l 1,4,-1
EndSplineSet
EndChar

StartChar: P.sups
Encoding: 1114129 -1 287
Width: 448
Flags: W
LayerCount: 2
Fore
SplineSet
156.5 640 m 1,0,-1
 365.5 640 l 1,1,-1
 317.5 432 l 1,2,-1
 198.5 432 l 1,3,-1
 173.5 320 l 1,4,-1
 82.5 320 l 1,5,-1
 156.5 640 l 1,0,-1
253.5 543 m 1,6,-1
 224.5 543 l 1,7,-1
 221.5 528 l 1,8,-1
 250.5 528 l 1,9,-1
 253.5 543 l 1,6,-1
EndSplineSet
EndChar

StartChar: Q.sups
Encoding: 1114130 -1 288
Width: 448
Flags: W
LayerCount: 2
Fore
SplineSet
157 640 m 1,0,-1
 366 640 l 1,1,-1
 291 315 l 1,2,-1
 232 315 l 1,3,-1
 218 256 l 1,4,-1
 128 256 l 1,5,-1
 142 315 l 1,6,-1
 82 315 l 1,7,-1
 157 640 l 1,0,-1
196 417 m 1,8,-1
 225 417 l 1,9,-1
 254 543 l 1,10,-1
 225 543 l 1,11,-1
 196 417 l 1,8,-1
EndSplineSet
EndChar

StartChar: R.sups
Encoding: 1114131 -1 289
Width: 448
Flags: W
LayerCount: 2
Fore
SplineSet
329.5 481 m 1,0,-1
 292.5 320 l 1,1,-1
 201.5 320 l 1,2,-1
 231.5 448 l 1,3,-1
 202.5 448 l 1,4,-1
 173.5 320 l 1,5,-1
 82.5 320 l 1,6,-1
 156.5 640 l 1,7,-1
 365.5 640 l 1,8,-1
 332.5 496 l 1,9,-1
 273.5 496 l 1,10,-1
 269.5 481 l 1,11,-1
 329.5 481 l 1,0,-1
224.5 543 m 1,12,-1
 221.5 528 l 1,13,-1
 250.5 528 l 1,14,-1
 253.5 543 l 1,15,-1
 224.5 543 l 1,12,-1
EndSplineSet
EndChar

StartChar: S.sups
Encoding: 1114132 -1 290
Width: 448
Flags: W
LayerCount: 2
Fore
SplineSet
122.5 377 m 2,0,1
 156.5 370 156.5 370 187.5 370 c 0,2,3
 205.5 370 205.5 370 212.5 376 c 0,4,5
 218.5 381 218.5 381 222 393.5 c 128,-1,6
 225.5 406 225.5 406 222.5 409 c 0,7,8
 217.5 415 217.5 415 188.5 426 c 0,9,10
 153.5 440 153.5 440 139.5 464.5 c 0,11,12
 125.5 490 125.5 490 135.5 534 c 0,13,14
 146.5 582 146.5 582 181.5 612 c 0,15,16
 216.5 644 216.5 644 274.5 644 c 0,17,18
 314.5 644 314.5 644 351.5 634 c 2,19,-1
 364.5 630 l 1,20,-1
 338.5 580 l 1,21,-1
 324.5 583 l 2,22,23
 290.5 590 290.5 590 266.5 590 c 0,24,25
 252.5 590 252.5 590 244.5 585.5 c 128,-1,26
 236.5 581 236.5 581 234 569.5 c 128,-1,27
 231.5 558 231.5 558 233.5 556.5 c 128,-1,28
 235.5 555 235.5 555 238.5 553 c 0,29,30
 246.5 548 246.5 548 261.5 542 c 0,31,32
 301.5 528 301.5 528 317 503.5 c 128,-1,33
 332.5 479 332.5 479 320.5 427.5 c 128,-1,34
 308.5 376 308.5 376 272 346 c 128,-1,35
 235.5 316 235.5 316 180.5 316 c 0,36,37
 138.5 316 138.5 316 97.5 326 c 2,38,-1
 83.5 330 l 1,39,-1
 108.5 380 l 1,40,-1
 122.5 377 l 2,0,1
EndSplineSet
EndChar

StartChar: T.sups
Encoding: 1114133 -1 291
Width: 448
Flags: W
LayerCount: 2
Fore
SplineSet
101.5 551 m 1,0,-1
 122.5 640 l 1,1,-1
 346.5 640 l 1,2,-1
 326.5 551 l 1,3,-1
 259.5 551 l 1,4,-1
 205.5 320 l 1,5,-1
 115.5 320 l 1,6,-1
 168.5 551 l 1,7,-1
 101.5 551 l 1,0,-1
EndSplineSet
EndChar

StartChar: U.sups
Encoding: 1114134 -1 292
Width: 448
Flags: W
LayerCount: 2
Fore
SplineSet
217 417 m 1,0,-1
 268 640 l 1,1,-1
 358 640 l 1,2,-1
 285 320 l 1,3,-1
 135 320 l 1,4,-1
 150 384 l 1,5,-1
 90 384 l 1,6,-1
 149 640 l 1,7,-1
 239 640 l 1,8,-1
 188 417 l 1,9,-1
 217 417 l 1,0,-1
EndSplineSet
EndChar

StartChar: V.sups
Encoding: 1114135 -1 293
Width: 448
Flags: W
LayerCount: 2
Fore
SplineSet
181.677734375 287 m 1,0,-1
 109.677734375 287 l 1,1,-1
 115.677734375 330 l 2,2,3
 84.677734375 482 84.677734375 482 98.677734375 623 c 2,4,-1
 99.677734375 640 l 1,5,-1
 188.677734375 640 l 1,6,7
 181.677734375 577 181.677734375 577 179.177734375 527.5 c 128,-1,8
 176.677734375 478 176.677734375 478 177.677734375 428 c 1,9,10
 226.677734375 531 226.677734375 531 260.677734375 626 c 2,11,-1
 265.677734375 640 l 1,12,-1
 353.677734375 640 l 1,13,-1
 347.677734375 623 l 2,14,15
 293.677734375 474 293.677734375 474 195.677734375 330 c 2,16,-1
 181.677734375 287 l 1,0,-1
EndSplineSet
EndChar

StartChar: W.sups
Encoding: 1114136 -1 294
Width: 448
Flags: W
LayerCount: 2
Fore
SplineSet
250 640 m 1,0,-1
 236 576 l 1,1,-1
 265 576 l 1,2,-1
 279 640 l 1,3,-1
 369 640 l 1,4,-1
 288 287 l 1,5,-1
 79 287 l 1,6,-1
 160 640 l 1,7,-1
 250 640 l 1,0,-1
EndSplineSet
EndChar

StartChar: X.sups
Encoding: 1114137 -1 295
Width: 448
Flags: W
LayerCount: 2
Fore
SplineSet
329.5 481 m 1,0,-1
 292.5 320 l 1,1,-1
 201.5 320 l 1,2,-1
 231.5 448 l 1,3,-1
 202.5 448 l 1,4,-1
 173.5 320 l 1,5,-1
 82.5 320 l 1,6,-1
 120.5 481 l 1,7,-1
 179.5 481 l 1,8,-1
 182.5 496 l 1,9,-1
 123.5 496 l 1,10,-1
 156.5 640 l 1,11,-1
 246.5 640 l 1,12,-1
 221.5 528 l 1,13,-1
 250.5 528 l 1,14,-1
 275.5 640 l 1,15,-1
 365.5 640 l 1,16,-1
 332.5 496 l 1,17,-1
 273.5 496 l 1,18,-1
 269.5 481 l 1,19,-1
 329.5 481 l 1,0,-1
EndSplineSet
EndChar

StartChar: Y.sups
Encoding: 1114138 -1 296
Width: 448
Flags: W
LayerCount: 2
Fore
SplineSet
232.5 320 m 1,0,-1
 82.5 320 l 1,1,-1
 105.5 417 l 1,2,-1
 224.5 417 l 1,3,-1
 227.5 432 l 1,4,-1
 108.5 432 l 1,5,-1
 156.5 640 l 1,6,-1
 246.5 640 l 1,7,-1
 221.5 528 l 1,8,-1
 250.5 528 l 1,9,-1
 275.5 640 l 1,10,-1
 365.5 640 l 1,11,-1
 306.5 384 l 1,12,-1
 247.5 384 l 1,13,-1
 232.5 320 l 1,0,-1
EndSplineSet
EndChar

StartChar: Z.sups
Encoding: 1114139 -1 297
Width: 448
Flags: W
LayerCount: 2
Fore
SplineSet
292.5 320 m 1,0,-1
 82.5 320 l 1,1,-1
 120.5 481 l 1,2,-1
 179.5 481 l 1,3,-1
 190.5 528 l 1,4,-1
 250.5 528 l 1,5,-1
 253.5 543 l 1,6,-1
 134.5 543 l 1,7,-1
 156.5 640 l 1,8,-1
 365.5 640 l 1,9,-1
 332.5 496 l 1,10,-1
 273.5 496 l 1,11,-1
 262.5 448 l 1,12,-1
 202.5 448 l 1,13,-1
 195.5 417 l 1,14,-1
 314.5 417 l 1,15,-1
 292.5 320 l 1,0,-1
EndSplineSet
EndChar

StartChar: uni0411
Encoding: 1041 1041 299
Width: 448
Flags: W
LayerCount: 2
Fore
SplineSet
169 400 m 1,0,-1
 242 400 l 2,1,2
 346 400 346 400 385.5 347 c 128,-1,3
 425 294 425 294 403 199.5 c 128,-1,4
 381 105 381 105 318 52.5 c 128,-1,5
 255 0 255 0 150 0 c 2,6,-1
 -21 0 l 1,7,-1
 126 640 l 1,8,-1
 469 640 l 1,9,-1
 446 543 l 1,10,-1
 202 543 l 1,11,-1
 169 400 l 1,0,-1
99 97 m 1,12,-1
 164 97 l 2,13,14
 232 97 232 97 261 122 c 0,15,16
 290 148 290 148 302 200 c 128,-1,17
 314 252 314 252 297 278 c 0,18,19
 278 304 278 304 212 304 c 2,20,-1
 146 304 l 1,21,-1
 99 97 l 1,12,-1
EndSplineSet
EndChar

StartChar: uni0413
Encoding: 1043 1043 301
Width: 448
Flags: W
LayerCount: 2
Fore
SplineSet
116 640 m 1,0,-1
 479 640 l 1,1,-1
 457 543 l 1,2,-1
 192 543 l 1,3,-1
 66 0 l 1,4,-1
 -31 0 l 1,5,-1
 116 640 l 1,0,-1
EndSplineSet
EndChar

StartChar: uni0490
Encoding: 1168 1168 303
Width: 448
Flags: W
LayerCount: 2
Fore
SplineSet
374 640 m 1,0,-1
 403 768 l 1,1,-1
 494 768 l 1,2,-1
 442 543 l 1,3,-1
 177 543 l 1,4,-1
 51 0 l 1,5,-1
 -46 0 l 1,6,-1
 101 640 l 1,7,-1
 374 640 l 1,0,-1
EndSplineSet
EndChar

StartChar: uni0414
Encoding: 1044 1044 304
Width: 448
Flags: W
LayerCount: 2
Fore
SplineSet
379 543 m 1,0,-1
 351 543 l 1,1,-1
 283 305 l 1,2,-1
 212 305 l 1,3,-1
 164 97 l 1,4,-1
 270 97 l 1,5,-1
 379 543 l 1,0,-1
123 338 m 1,6,-1
 213 338 l 1,7,-1
 283 640 l 1,8,-1
 492 640 l 1,9,-1
 367 97 l 1,10,-1
 426 97 l 1,11,-1
 374 -128 l 1,12,-1
 284 -128 l 1,13,-1
 314 0 l 1,14,-1
 75 0 l 1,15,-1
 46 -128 l 1,16,-1
 -44 -128 l 1,17,-1
 8 97 l 1,18,-1
 67 97 l 1,19,-1
 123 338 l 1,6,-1
EndSplineSet
EndChar

StartChar: uni0416
Encoding: 1046 1046 308
Width: 448
Flags: W
CounterMasks: 1 1c
LayerCount: 2
Fore
SplineSet
332 336 m 1,0,-1
 402 640 l 1,1,-1
 493 640 l 1,2,-1
 415 304 l 1,3,-1
 355 304 l 1,4,-1
 348 272 l 1,5,-1
 408 272 l 1,6,-1
 345 0 l 1,7,-1
 255 0 l 1,8,-1
 310 240 l 1,9,-1
 250 240 l 1,10,-1
 195 0 l 1,11,-1
 105 0 l 1,12,-1
 160 240 l 1,13,-1
 101 240 l 1,14,-1
 45 0 l 1,15,-1
 -45 0 l 1,16,-1
 18 272 l 1,17,-1
 78 272 l 1,18,-1
 85 304 l 1,19,-1
 25 304 l 1,20,-1
 103 640 l 1,21,-1
 193 640 l 1,22,-1
 123 336 l 1,23,-1
 183 336 l 1,24,-1
 253 640 l 1,25,-1
 343 640 l 1,26,-1
 273 336 l 1,27,-1
 332 336 l 1,0,-1
EndSplineSet
EndChar

StartChar: uni0417
Encoding: 1047 1047 309
Width: 448
Flags: W
LayerCount: 2
Fore
SplineSet
114.5 336 m 1,0,-1
 253.5 336 l 1,1,-1
 268.5 400 l 1,2,-1
 338.5 400 l 1,3,-1
 373.5 549 l 1,4,-1
 104.5 549 l 1,5,-1
 125.5 640 l 1,6,-1
 424.5 640 l 1,7,-1
 411.5 580 l 1,8,-1
 470.5 580 l 1,9,-1
 421.5 368 l 1,10,-1
 362.5 368 l 1,11,-1
 340.5 272 l 1,12,-1
 399.5 272 l 1,13,-1
 351.5 64 l 1,14,-1
 291.5 64 l 1,15,-1
 277.5 0 l 1,16,-1
 -22.5 0 l 1,17,-1
 0.5 97 l 1,18,-1
 268.5 97 l 1,19,-1
 301.5 240 l 1,20,-1
 92.5 240 l 1,21,-1
 114.5 336 l 1,0,-1
EndSplineSet
EndChar

StartChar: uni0418
Encoding: 1048 1048 310
Width: 448
GlyphClass: 2
Flags: W
HStem: 0 21G<-33 83.0769 235 337.625> 620 20G<109.406 212 365.821 481>
DStem2: -33 0 122 250 0.223858 0.974622<278.353 656.665> 122 250 325 390 0.550246 0.835003<0 228.6> 235 0 333 0 0.225304 0.974288<22.0798 400.25>
LayerCount: 2
Fore
SplineSet
70 0 m 1,0,-1
 -33 0 l 1,1,-1
 114 640 l 1,2,-1
 212 640 l 1,3,-1
 122 250 l 1,4,-1
 379 640 l 1,5,-1
 481 640 l 1,6,-1
 333 0 l 1,7,-1
 235 0 l 1,8,-1
 325 390 l 1,9,-1
 70 0 l 1,0,-1
EndSplineSet
EndChar

StartChar: uni041B
Encoding: 1051 1051 315
Width: 448
Flags: W
LayerCount: 2
Fore
SplineSet
506.5 640 m 1,0,-1
 359.5 0 l 1,1,-1
 261.5 0 l 1,2,-1
 386.5 543 l 1,3,-1
 293.5 543 l 1,4,-1
 269.5 438 l 2,5,6
 231.5 275 231.5 275 167.5 173 c 128,-1,7
 103.5 71 103.5 71 20.5 -8 c 2,8,-1
 8.5 -21 l 1,9,-1
 -58.5 34 l 1,10,-1
 -45.5 47 l 2,11,12
 0.5 95 0.5 95 33.5 141.5 c 128,-1,13
 66.5 188 66.5 188 98.5 265 c 0,14,15
 131.5 341 131.5 341 157.5 455 c 2,16,-1
 200.5 640 l 1,17,-1
 506.5 640 l 1,0,-1
EndSplineSet
EndChar

StartChar: uni041F
Encoding: 1055 1055 319
Width: 448
Flags: W
HStem: 0 21G<-33 68.6409 235 337.625> 543 97<190 361>
DStem2: -33 0 64 0 0.223858 0.974622<21.7143 579.14> 235 0 333 0 0.225304 0.974288<22.0798 557.427>
LayerCount: 2
Fore
SplineSet
114 640 m 1,0,-1
 481 640 l 1,1,-1
 333 0 l 1,2,-1
 235 0 l 1,3,-1
 361 543 l 1,4,-1
 190 543 l 1,5,-1
 64 0 l 1,6,-1
 -33 0 l 1,7,-1
 114 640 l 1,0,-1
EndSplineSet
EndChar

StartChar: uni0424
Encoding: 1060 1060 325
Width: 448
Flags: W
CounterMasks: 1 0e
LayerCount: 2
Fore
SplineSet
369 496 m 1,0,-1
 310 496 l 1,1,-1
 229 144 l 1,2,-1
 288 144 l 1,3,-1
 369 496 l 1,0,-1
419 579 m 1,4,-1
 405 518 l 1,5,-1
 465 518 l 1,6,-1
 373 122 l 1,7,-1
 313 122 l 1,8,-1
 299 61 l 1,9,-1
 209 61 l 1,10,-1
 195 0 l 1,11,-1
 105 0 l 1,12,-1
 119 61 l 1,13,-1
 29 61 l 1,14,-1
 43 122 l 1,15,-1
 -17 122 l 1,16,-1
 75 518 l 1,17,-1
 134 518 l 1,18,-1
 148 579 l 1,19,-1
 239 579 l 1,20,-1
 253 640 l 1,21,-1
 343 640 l 1,22,-1
 329 579 l 1,23,-1
 419 579 l 1,4,-1
219 496 m 1,24,-1
 160 496 l 1,25,-1
 79 144 l 1,26,-1
 138 144 l 1,27,-1
 219 496 l 1,24,-1
EndSplineSet
EndChar

StartChar: uni0427
Encoding: 1063 1063 327
Width: 448
Flags: W
LayerCount: 2
Fore
SplineSet
193.124023438 0 m 1,0,-1
 256.124023438 270 l 1,1,2
 185.124023438 236 185.124023438 236 120.124023438 236 c 0,3,4
 54.1240234375 236 54.1240234375 236 25.6240234375 274.5 c 128,-1,5
 -2.8759765625 313 -2.8759765625 313 17.1240234375 400 c 2,6,-1
 72.1240234375 640 l 1,7,-1
 170.124023438 640 l 1,8,-1
 117.124023438 411 l 2,9,10
 106.124023438 365 106.124023438 365 116.124023438 347 c 0,11,12
 124.124023438 332 124.124023438 332 159.124023438 332 c 0,13,14
 187.124023438 332 187.124023438 332 219.124023438 345.5 c 128,-1,15
 251.124023438 359 251.124023438 359 281.124023438 378 c 1,16,-1
 341.124023438 640 l 1,17,-1
 439.124023438 640 l 1,18,-1
 291.124023438 0 l 1,19,-1
 193.124023438 0 l 1,0,-1
EndSplineSet
EndChar

StartChar: uni0426
Encoding: 1062 1062 328
Width: 448
Flags: W
LayerCount: 2
Fore
SplineSet
295 0 m 1,0,-1
 -33 0 l 1,1,-1
 114 640 l 1,2,-1
 212 640 l 1,3,-1
 87 97 l 1,4,-1
 258 97 l 1,5,-1
 383 640 l 1,6,-1
 481 640 l 1,7,-1
 355 97 l 1,8,-1
 415 97 l 1,9,-1
 363 -128 l 1,10,-1
 265 -128 l 1,11,-1
 295 0 l 1,0,-1
EndSplineSet
EndChar

StartChar: uni0428
Encoding: 1064 1064 329
Width: 448
Flags: W
HStem: 0 97<36.5 127.5 217.5 308.5> 620 20G<66.875 161.5 247.896 343.5 429.859 524.5>
DStem2: -76.5 0 36.5 97 0.225304 0.974288<119.965 656.89> 127.5 97 217.5 97 0.226039 0.974118<20.3435 557.201> 308.5 97 376.5 0 0.225304 0.974288<0 557.427>
LayerCount: 2
Fore
SplineSet
376.5 0 m 1,0,-1
 -76.5 0 l 1,1,-1
 71.5 640 l 1,2,-1
 161.5 640 l 1,3,-1
 36.5 97 l 1,4,-1
 127.5 97 l 1,5,-1
 252.5 640 l 1,6,-1
 343.5 640 l 1,7,-1
 217.5 97 l 1,8,-1
 308.5 97 l 1,9,-1
 434.5 640 l 1,10,-1
 524.5 640 l 1,11,-1
 376.5 0 l 1,0,-1
EndSplineSet
EndChar

StartChar: uni0429
Encoding: 1065 1065 330
Width: 448
Flags: W
LayerCount: 2
Fore
SplineSet
310.5 0 m 1,0,-1
 -76.5 0 l 1,1,-1
 71.5 640 l 1,2,-1
 161.5 640 l 1,3,-1
 36.5 97 l 1,4,-1
 127.5 97 l 1,5,-1
 252.5 640 l 1,6,-1
 343.5 640 l 1,7,-1
 217.5 97 l 1,8,-1
 308.5 97 l 1,9,-1
 434.5 640 l 1,10,-1
 524.5 640 l 1,11,-1
 399.5 97 l 1,12,-1
 430.5 97 l 1,13,-1
 378.5 -128 l 1,14,-1
 281.5 -128 l 1,15,-1
 310.5 0 l 1,0,-1
EndSplineSet
EndChar

StartChar: uni040F
Encoding: 1039 1039 331
Width: 448
Flags: W
CounterMasks: 1 38
LayerCount: 2
Fore
SplineSet
90 0 m 1,0,-1
 -33 0 l 1,1,-1
 114 640 l 1,2,-1
 212 640 l 1,3,-1
 87 97 l 1,4,-1
 258 97 l 1,5,-1
 383 640 l 1,6,-1
 481 640 l 1,7,-1
 333 0 l 1,8,-1
 209 0 l 1,9,-1
 180 -128 l 1,10,-1
 61 -128 l 1,11,-1
 90 0 l 1,0,-1
EndSplineSet
EndChar

StartChar: uni042C
Encoding: 1068 1068 332
Width: 448
Flags: W
LayerCount: 2
Fore
SplineSet
198.033203125 400 m 1,0,-1
 274.033203125 400 l 2,1,2
 376.033203125 400 376.033203125 400 415.033203125 347 c 128,-1,3
 454.033203125 294 454.033203125 294 432.033203125 199.5 c 128,-1,4
 410.033203125 105 410.033203125 105 347.033203125 52.5 c 128,-1,5
 284.033203125 0 284.033203125 0 181.033203125 0 c 2,6,-1
 8.033203125 0 l 1,7,-1
 155.033203125 640 l 1,8,-1
 253.033203125 640 l 1,9,-1
 198.033203125 400 l 1,0,-1
128.033203125 97 m 1,10,-1
 195.033203125 97 l 2,11,12
 261.033203125 97 261.033203125 97 291.033203125 122 c 0,13,14
 319.033203125 148 319.033203125 148 331.033203125 200 c 128,-1,15
 343.033203125 252 343.033203125 252 326.033203125 278 c 0,16,17
 308.033203125 304 308.033203125 304 243.033203125 304 c 2,18,-1
 175.033203125 304 l 1,19,-1
 128.033203125 97 l 1,10,-1
EndSplineSet
EndChar

StartChar: uni042A
Encoding: 1066 1066 333
Width: 448
Flags: W
LayerCount: 2
Fore
SplineSet
197.9296875 400 m 1,0,-1
 273.9296875 400 l 2,1,2
 375.9296875 400 375.9296875 400 414.9296875 347 c 128,-1,3
 453.9296875 294 453.9296875 294 432.4296875 199.5 c 128,-1,4
 410.9296875 105 410.9296875 105 347.9296875 52.5 c 128,-1,5
 284.9296875 0 284.9296875 0 166.9296875 0 c 2,6,-1
 7.9296875 0 l 1,7,-1
 132.9296875 543 l 1,8,-1
 67.9296875 543 l 1,9,-1
 90.9296875 640 l 1,10,-1
 252.9296875 640 l 1,11,-1
 197.9296875 400 l 1,0,-1
127.9296875 97 m 1,12,-1
 182.9296875 97 l 2,13,14
 255.9296875 97 255.9296875 97 289.9296875 122 c 0,15,16
 319.9296875 148 319.9296875 148 331.4296875 200 c 128,-1,17
 342.9296875 252 342.9296875 252 324.9296875 278 c 0,18,19
 302.9296875 304 302.9296875 304 230.9296875 304 c 2,20,-1
 175.9296875 304 l 1,21,-1
 127.9296875 97 l 1,12,-1
EndSplineSet
EndChar

StartChar: uni042B
Encoding: 1067 1067 334
Width: 448
Flags: W
LayerCount: 2
Fore
SplineSet
239.5 0 m 1,0,-1
 387.5 640 l 1,1,-1
 477.5 640 l 1,2,-1
 329.5 0 l 1,3,-1
 239.5 0 l 1,0,-1
165.5 304 m 1,4,-1
 131.5 304 l 1,5,-1
 83.5 97 l 1,6,-1
 118.5 97 l 1,7,-1
 165.5 304 l 1,4,-1
225.5 400 m 1,8,-1
 210.5 336 l 1,9,-1
 282.5 336 l 1,10,-1
 219.5 64 l 1,11,-1
 147.5 64 l 1,12,-1
 132.5 0 l 1,13,-1
 -29.5 0 l 1,14,-1
 118.5 640 l 1,15,-1
 208.5 640 l 1,16,-1
 153.5 400 l 1,17,-1
 225.5 400 l 1,8,-1
EndSplineSet
EndChar

StartChar: uni0409
Encoding: 1033 1033 335
Width: 448
Flags: W
LayerCount: 2
Fore
SplineSet
66 0 m 1,0,-1
 -24 0 l 1,1,-1
 13 161 l 1,2,-1
 73 161 l 1,3,-1
 183 640 l 1,4,-1
 423 640 l 1,5,-1
 368 400 l 1,6,-1
 427 400 l 1,7,-1
 413 336 l 1,8,-1
 472 336 l 1,9,-1
 409 64 l 1,10,-1
 350 64 l 1,11,-1
 335 0 l 1,12,-1
 185 0 l 1,13,-1
 311 543 l 1,14,-1
 272 543 l 1,15,-1
 176 128 l 1,16,-1
 96 128 l 1,17,-1
 66 0 l 1,0,-1
374 304 m 1,18,-1
 346 304 l 1,19,-1
 298 97 l 1,20,-1
 327 97 l 1,21,-1
 374 304 l 1,18,-1
EndSplineSet
EndChar

StartChar: uni040A
Encoding: 1034 1034 336
Width: 448
Flags: W
LayerCount: 2
Fore
SplineSet
344.5 304 m 1,0,-1
 315.5 304 l 1,1,-1
 268.5 97 l 1,2,-1
 296.5 97 l 1,3,-1
 344.5 304 l 1,0,-1
397.5 400 m 1,4,-1
 382.5 336 l 1,5,-1
 442.5 336 l 1,6,-1
 379.5 64 l 1,7,-1
 319.5 64 l 1,8,-1
 305.5 0 l 1,9,-1
 155.5 0 l 1,10,-1
 210.5 240 l 1,11,-1
 151.5 240 l 1,12,-1
 95.5 0 l 1,13,-1
 5.5 0 l 1,14,-1
 153.5 640 l 1,15,-1
 243.5 640 l 1,16,-1
 173.5 336 l 1,17,-1
 233.5 336 l 1,18,-1
 303.5 640 l 1,19,-1
 393.5 640 l 1,20,-1
 338.5 400 l 1,21,-1
 397.5 400 l 1,4,-1
EndSplineSet
EndChar

StartChar: uni0404
Encoding: 1028 1028 338
Width: 448
GlyphClass: 2
Flags: W
LayerCount: 2
Fore
SplineSet
298.75390625 6 m 2,0,1
 245.75390625 -9 245.75390625 -9 187.75390625 -9 c 0,2,3
 86.75390625 -9 86.75390625 -9 40.75390625 24 c 0,4,5
 0.75390625 57 0.75390625 57 -3.24609375 129 c 128,-1,6
 -7.24609375 201 -7.24609375 201 20.25390625 319 c 128,-1,7
 47.75390625 437 47.75390625 437 83.75390625 507 c 0,8,9
 121.75390625 580 121.75390625 580 176.75390625 614 c 0,10,11
 237.75390625 647 237.75390625 647 338.75390625 647 c 0,12,13
 392.75390625 647 392.75390625 647 437.75390625 635 c 2,14,-1
 451.75390625 631 l 1,15,-1
 410.75390625 538 l 1,16,17
 377.75390625 546 377.75390625 546 364.75390625 547 c 0,18,19
 341.75390625 550 341.75390625 550 323.75390625 550 c 0,20,21
 254.75390625 550 254.75390625 550 219.75390625 530 c 0,22,23
 184.75390625 509 184.75390625 509 164.75390625 465 c 0,24,25
 146.75390625 420 146.75390625 420 127.75390625 336 c 1,26,-1
 341.75390625 336 l 1,27,-1
 319.75390625 240 l 1,28,-1
 106.75390625 240 l 1,29,30
 93.75390625 168 93.75390625 168 101.75390625 136 c 0,31,32
 108.75390625 115 108.75390625 115 128.75390625 104 c 0,33,34
 155.75390625 88 155.75390625 88 216.75390625 88 c 0,35,36
 256.75390625 88 256.75390625 88 299.75390625 99 c 2,37,-1
 315.75390625 103 l 1,38,-1
 313.75390625 10 l 1,39,-1
 298.75390625 6 l 2,0,1
EndSplineSet
EndChar

StartChar: uni042D
Encoding: 1069 1069 339
Width: 448
GlyphClass: 2
Flags: W
LayerCount: 2
Fore
SplineSet
454.24609375 508.5 m 128,-1,1
 458.24609375 437 458.24609375 437 430.74609375 319 c 128,-1,2
 403.24609375 201 403.24609375 201 366.24609375 129.5 c 128,-1,3
 329.24609375 58 329.24609375 58 274.24609375 24 c 0,4,5
 213.24609375 -9 213.24609375 -9 112.24609375 -9 c 0,6,7
 53.24609375 -9 53.24609375 -9 7.24609375 6 c 2,8,-1
 -6.75390625 10 l 1,9,-1
 35.24609375 103 l 1,10,-1
 49.24609375 99 l 2,11,12
 87.24609375 88 87.24609375 88 127.24609375 88 c 0,13,14
 159.24609375 88 159.24609375 88 177.24609375 91 c 0,15,16
 207.24609375 96 207.24609375 96 223.24609375 104 c 0,17,18
 256.24609375 119 256.24609375 119 275.24609375 151 c 0,19,20
 292.24609375 184 292.24609375 184 307.24609375 240 c 1,21,-1
 109.24609375 240 l 1,22,-1
 131.24609375 336 l 1,23,-1
 331.24609375 336 l 1,24,25
 357.24609375 453 357.24609375 453 351.24609375 493 c 0,26,27
 345.24609375 517 345.24609375 517 328.24609375 530 c 0,28,29
 302.24609375 550 302.24609375 550 233.24609375 550 c 0,30,31
 196.24609375 550 196.24609375 550 156.24609375 541 c 2,32,-1
 141.24609375 538 l 1,33,-1
 142.24609375 631 l 1,34,-1
 158.24609375 635 l 2,35,36
 209.24609375 647 209.24609375 647 263.24609375 647 c 0,37,38
 364.24609375 647 364.24609375 647 410.24609375 614 c 0,39,0
 450.24609375 580 450.24609375 580 454.24609375 508.5 c 128,-1,1
EndSplineSet
EndChar

StartChar: uni040B
Encoding: 1035 1035 343
Width: 448
Flags: W
LayerCount: 2
Fore
SplineSet
395 543 m 1,0,-1
 246 543 l 1,1,-1
 213 400 l 1,2,-1
 362 400 l 1,3,-1
 348 336 l 1,4,-1
 407 336 l 1,5,-1
 329 0 l 1,6,-1
 239 0 l 1,7,-1
 309 304 l 1,8,-1
 190 304 l 1,9,-1
 120 0 l 1,10,-1
 30 0 l 1,11,-1
 155 543 l 1,12,-1
 36 543 l 1,13,-1
 59 640 l 1,14,-1
 418 640 l 1,15,-1
 395 543 l 1,0,-1
EndSplineSet
EndChar

StartChar: uni042E
Encoding: 1070 1070 344
Width: 448
Flags: W
LayerCount: 2
Fore
SplineSet
291.5 64 m 1,0,-1
 277.5 0 l 1,1,-1
 186.5 0 l 1,2,-1
 201.5 64 l 1,3,-1
 121.5 64 l 1,4,-1
 162.5 240 l 1,5,-1
 123.5 240 l 1,6,-1
 67.5 0 l 1,7,-1
 -22.5 0 l 1,8,-1
 125.5 640 l 1,9,-1
 215.5 640 l 1,10,-1
 145.5 336 l 1,11,-1
 184.5 336 l 1,12,-1
 240.5 579 l 1,13,-1
 320.5 579 l 1,14,-1
 334.5 640 l 1,15,-1
 424.5 640 l 1,16,-1
 410.5 579 l 1,17,-1
 470.5 579 l 1,18,-1
 351.5 64 l 1,19,-1
 291.5 64 l 1,0,-1
240.5 97 m 1,20,-1
 268.5 97 l 1,21,-1
 379.5 576 l 1,22,-1
 350.5 576 l 1,23,-1
 240.5 97 l 1,20,-1
EndSplineSet
EndChar

StartChar: uni042F
Encoding: 1071 1071 345
Width: 448
GlyphClass: 2
Flags: W
LayerCount: 2
Fore
SplineSet
320.5 640 m 2,0,-1
 492.5 640 l 1,1,-1
 344.5 0 l 1,2,-1
 246.5 0 l 1,3,-1
 298.5 224 l 1,4,-1
 265.5 224 l 1,5,6
 188.5 195 188.5 195 139.5 147.5 c 128,-1,7
 90.5 100 90.5 100 59.5 15 c 2,8,-1
 54.5 0 l 1,9,-1
 -44.5 0 l 1,10,-1
 -39.5 17 l 2,11,12
 -8.5 112 -8.5 112 44.5 178 c 0,13,14
 83.5 226 83.5 226 133.5 253 c 1,15,16
 93.5 270 93.5 270 73.5 304 c 0,17,18
 46.5 353 46.5 353 66.5 434 c 0,19,20
 88.5 531 88.5 531 152.5 585 c 0,21,22
 218.5 640 218.5 640 320.5 640 c 2,0,-1
321.5 322 m 1,23,-1
 372.5 543 l 1,24,-1
 306.5 543 l 2,25,26
 242.5 543 242.5 543 213.5 517 c 0,27,28
 182.5 489 182.5 489 169.5 431.5 c 128,-1,29
 156.5 374 156.5 374 173.5 347 c 0,30,31
 189.5 322 189.5 322 255.5 322 c 2,32,-1
 321.5 322 l 1,23,-1
EndSplineSet
EndChar

StartChar: uni0402
Encoding: 1026 1026 346
Width: 448
Flags: W
LayerCount: 2
Fore
SplineSet
285 64 m 1,0,-1
 270 0 l 1,1,-1
 180 0 l 1,2,-1
 202 97 l 1,3,-1
 262 97 l 1,4,-1
 309 304 l 1,5,-1
 190 304 l 1,6,-1
 120 0 l 1,7,-1
 30 0 l 1,8,-1
 155 543 l 1,9,-1
 36 543 l 1,10,-1
 59 640 l 1,11,-1
 418 640 l 1,12,-1
 395 543 l 1,13,-1
 246 543 l 1,14,-1
 213 400 l 1,15,-1
 362 400 l 1,16,-1
 348 336 l 1,17,-1
 407 336 l 1,18,-1
 344 64 l 1,19,-1
 285 64 l 1,0,-1
EndSplineSet
EndChar

StartChar: uni0431
Encoding: 1073 1073 348
Width: 448
Flags: W
LayerCount: 2
Fore
SplineSet
288.133789062 51.5 m 128,-1,1
 231.133789062 -7 231.133789062 -7 141.133789062 -8 c 1,2,3
 43.1337890625 -8 43.1337890625 -8 16.1337890625 60 c 0,4,5
 -9.8662109375 125 -9.8662109375 125 24.1337890625 271 c 0,6,7
 48.1337890625 373 48.1337890625 373 76.1337890625 436.5 c 128,-1,8
 104.133789062 500 104.133789062 500 158.133789062 542 c 0,9,10
 215.133789062 587 215.133789062 587 325.133789062 602 c 0,11,12
 358.133789062 606 358.133789062 606 380.133789062 610.5 c 128,-1,13
 402.133789062 615 402.133789062 615 426.133789062 624 c 2,14,-1
 443.133789062 630 l 1,15,-1
 437.133789062 543 l 1,16,17
 412.133789062 530 412.133789062 530 402.633789062 526.5 c 128,-1,18
 393.133789062 523 393.133789062 523 389.133789062 522 c 0,19,20
 359.133789062 512 359.133789062 512 309.133789062 505 c 0,21,22
 234.133789062 495 234.133789062 495 199.133789062 464 c 0,23,24
 172.133789062 442 172.133789062 442 155.133789062 399 c 1,25,26
 203.133789062 417 203.133789062 417 254.133789062 417 c 0,27,28
 335.133789062 417 335.133789062 417 362.633789062 361 c 128,-1,29
 390.133789062 305 390.133789062 305 367.633789062 207.5 c 128,-1,0
 345.133789062 110 345.133789062 110 288.133789062 51.5 c 128,-1,1
282.133789062 320 m 0,30,31
 273.133789062 350 273.133789062 350 228.133789062 350 c 0,32,33
 177.133789062 350 177.133789062 350 132.133789062 324 c 1,34,-1
 123.133789062 288 l 2,35,36
 105.133789062 210 105.133789062 210 101.633789062 167 c 128,-1,37
 98.1337890625 124 98.1337890625 124 112.633789062 106.5 c 128,-1,38
 127.133789062 89 127.133789062 89 161.133789062 89 c 0,39,40
 207.133789062 89 207.133789062 89 234.133789062 121 c 0,41,42
 261.133789062 158 261.133789062 158 275.633789062 221.5 c 128,-1,43
 290.133789062 285 290.133789062 285 282.133789062 320 c 0,30,31
EndSplineSet
EndChar

StartChar: uni0432
Encoding: 1074 1074 349
Width: 448
Flags: W
LayerCount: 2
Fore
SplineSet
335 323 m 1,0,-1
 179 323 l 1,1,-1
 163 252 l 1,2,-1
 319 252 l 1,3,-1
 335 323 l 1,0,-1
383 403 m 1,4,-1
 372 356 l 1,5,-1
 429 356 l 1,6,-1
 397 219 l 1,7,-1
 341 219 l 1,8,-1
 333 188 l 1,9,-1
 390 188 l 1,10,-1
 361 64 l 1,11,-1
 305 64 l 1,12,-1
 290 0 l 1,13,-1
 19 0 l 1,14,-1
 112 403 l 1,15,-1
 383 403 l 1,4,-1
127 97 m 1,16,-1
 283 97 l 1,17,-1
 296 155 l 1,18,-1
 141 155 l 1,19,-1
 127 97 l 1,16,-1
EndSplineSet
EndChar

StartChar: uni0433
Encoding: 1075 1075 350
Width: 448
Flags: W
LayerCount: 2
Fore
SplineSet
108 403 m 1,0,-1
 433 403 l 1,1,-1
 410 306 l 1,2,-1
 179 306 l 1,3,-1
 113 21 l 1,4,-1
 15 0 l 1,5,-1
 108 403 l 1,0,-1
EndSplineSet
EndChar

StartChar: uni0491
Encoding: 1169 1169 352
Width: 448
Flags: W
LayerCount: 2
Fore
SplineSet
330.5 403 m 1,0,-1
 370.5 576 l 1,1,-1
 456.5 576 l 1,2,-1
 394.5 306 l 1,3,-1
 155.5 306 l 1,4,-1
 89.5 21 l 1,5,-1
 -8.5 0 l 1,6,-1
 84.5 403 l 1,7,-1
 330.5 403 l 1,0,-1
EndSplineSet
EndChar

StartChar: uni0434
Encoding: 1076 1076 353
Width: 448
Flags: W
LayerCount: 2
Fore
SplineSet
241 403 m 1,0,-1
 465 403 l 1,1,-1
 394 97 l 1,2,-1
 451 97 l 1,3,-1
 399 -128 l 1,4,-1
 306 -128 l 1,5,-1
 335 0 l 1,6,-1
 106 0 l 1,7,-1
 76 -128 l 1,8,-1
 -17 -128 l 1,9,-1
 35 97 l 1,10,-1
 88 97 l 1,11,12
 130 155 130 155 155 216.5 c 128,-1,13
 180 278 180 278 241 403 c 1,0,-1
187 97 m 1,14,-1
 294 97 l 1,15,-1
 349 306 l 1,16,-1
 300 306 l 1,17,18
 270 204 270 204 216 139 c 0,19,20
 203 118 203 118 187 97 c 1,14,-1
EndSplineSet
EndChar

StartChar: uni0436
Encoding: 1078 1078 357
Width: 448
Flags: W
CounterMasks: 1 1c
LayerCount: 2
Fore
SplineSet
320.5 252 m 1,0,-1
 355.5 403 l 1,1,-1
 441.5 403 l 1,2,-1
 399.5 219 l 1,3,-1
 342.5 219 l 1,4,-1
 339.5 204 l 1,5,-1
 395.5 204 l 1,6,-1
 373.5 109 l 1,7,8
 366.5 78 366.5 78 363.5 54 c 0,9,10
 364.5 50 364.5 50 368.5 45.5 c 128,-1,11
 372.5 41 372.5 41 378.5 41 c 0,12,13
 396.5 41 396.5 41 418.5 69 c 2,14,-1
 448.5 108 l 1,15,-1
 461.5 98 l 1,16,17
 422.5 37 422.5 37 393.5 13 c 128,-1,18
 364.5 -11 364.5 -11 329.5 -11 c 0,19,20
 288.5 -11 288.5 -11 281.5 21.5 c 128,-1,21
 274.5 54 274.5 54 287.5 108 c 1,22,-1
 302.5 171 l 1,23,-1
 249.5 171 l 1,24,-1
 215.5 22 l 1,25,-1
 124.5 0 l 1,26,-1
 163.5 171 l 1,27,-1
 111.5 171 l 1,28,-1
 77.5 22 l 1,29,-1
 -13.5 0 l 1,30,-1
 33.5 204 l 1,31,-1
 90.5 204 l 1,32,-1
 93.5 219 l 1,33,-1
 36.5 219 l 1,34,-1
 79.5 403 l 1,35,-1
 165.5 403 l 1,36,-1
 130.5 252 l 1,37,-1
 182.5 252 l 1,38,-1
 217.5 403 l 1,39,-1
 303.5 403 l 1,40,-1
 268.5 252 l 1,41,-1
 320.5 252 l 1,0,-1
EndSplineSet
EndChar

StartChar: uni0437
Encoding: 1079 1079 358
Width: 448
Flags: W
LayerCount: 2
Fore
SplineSet
45.5 97 m 1,0,-1
 279.5 97 l 1,1,-1
 293.5 155 l 1,2,-1
 110.5 155 l 1,3,-1
 132.5 252 l 1,4,-1
 315.5 252 l 1,5,-1
 331.5 323 l 1,6,-1
 97.5 323 l 1,7,-1
 116.5 403 l 1,8,-1
 379.5 403 l 1,9,-1
 368.5 356 l 1,10,-1
 425.5 356 l 1,11,-1
 393.5 219 l 1,12,-1
 337.5 219 l 1,13,-1
 330.5 188 l 1,14,-1
 386.5 188 l 1,15,-1
 358.5 64 l 1,16,-1
 301.5 64 l 1,17,-1
 286.5 0 l 1,18,-1
 22.5 0 l 1,19,-1
 45.5 97 l 1,0,-1
EndSplineSet
EndChar

StartChar: uni043A
Encoding: 1082 1082 362
Width: 448
Flags: W
LayerCount: 2
Fore
SplineSet
368.5 146 m 1,0,-1
 359.5 108 l 1,1,2
 352.5 77 352.5 77 349.5 54 c 0,3,4
 350.5 50 350.5 50 354.5 45.5 c 128,-1,5
 358.5 41 358.5 41 363.5 41 c 0,6,7
 381.5 41 381.5 41 403.5 68 c 2,8,-1
 433.5 106 l 1,9,-1
 447.5 96 l 1,10,11
 408.5 36 408.5 36 379 12.5 c 128,-1,12
 349.5 -11 349.5 -11 315.5 -11 c 0,13,14
 274.5 -11 274.5 -11 267.5 21 c 128,-1,15
 260.5 53 260.5 53 273.5 108 c 1,16,-1
 274.5 113 l 1,17,-1
 205.5 113 l 1,18,-1
 216.5 161 l 1,19,-1
 123.5 161 l 1,20,-1
 91.5 22 l 1,21,-1
 0.5 0 l 1,22,-1
 93.5 403 l 1,23,-1
 179.5 403 l 1,24,-1
 145.5 258 l 1,25,-1
 238.5 258 l 1,26,-1
 251.5 311 l 1,27,-1
 319.5 311 l 1,28,-1
 341.5 403 l 1,29,-1
 427.5 403 l 1,30,-1
 399.5 283 l 1,31,-1
 342.5 283 l 1,32,-1
 329.5 225 l 1,33,-1
 266.5 225 l 1,34,-1
 259.5 194 l 1,35,-1
 322.5 194 l 1,36,-1
 311.5 146 l 1,37,-1
 368.5 146 l 1,0,-1
EndSplineSet
EndChar

StartChar: uni043B
Encoding: 1083 1083 364
Width: 448
Flags: W
LayerCount: 2
Fore
SplineSet
71.5 64 m 1,0,-1
 56.5 0 l 1,1,-1
 -29.5 0 l 1,2,-1
 -7.5 97 l 1,3,-1
 49.5 97 l 1,4,-1
 71.5 189 l 1,5,-1
 132.5 189 l 1,6,-1
 181.5 403 l 1,7,-1
 455.5 403 l 1,8,-1
 387.5 110 l 1,9,10
 380.5 79 380.5 79 377.5 54 c 0,11,12
 378.5 50 378.5 50 382.5 45.5 c 128,-1,13
 386.5 41 386.5 41 391.5 41 c 0,14,15
 409.5 41 409.5 41 432.5 72 c 2,16,-1
 463.5 115 l 1,17,-1
 477.5 105 l 1,18,19
 437.5 40 437.5 40 407.5 14.5 c 128,-1,20
 377.5 -11 377.5 -11 342.5 -11 c 0,21,22
 301.5 -11 301.5 -11 295 20.5 c 128,-1,23
 288.5 52 288.5 52 300.5 106 c 1,24,-1
 346.5 306 l 1,25,-1
 258.5 306 l 1,26,-1
 224.5 162 l 1,27,-1
 159.5 162 l 1,28,-1
 136.5 64 l 1,29,-1
 71.5 64 l 1,0,-1
EndSplineSet
EndChar

StartChar: uni043C
Encoding: 1084 1084 365
Width: 448
Flags: W
CounterMasks: 1 1c
LayerCount: 2
Fore
SplineSet
274.5 339 m 1,0,-1
 288.5 403 l 1,1,-1
 429.5 403 l 1,2,-1
 361.5 110 l 1,3,4
 354.5 79 354.5 79 351.5 54 c 0,5,6
 352.5 50 352.5 50 356.5 45.5 c 128,-1,7
 360.5 41 360.5 41 366.5 41 c 0,8,9
 384.5 41 384.5 41 405.5 69 c 2,10,-1
 435.5 108 l 1,11,-1
 449.5 97 l 1,12,13
 410.5 36 410.5 36 381 12.5 c 128,-1,14
 351.5 -11 351.5 -11 317.5 -11 c 0,15,16
 276.5 -11 276.5 -11 269.5 20.5 c 128,-1,17
 262.5 52 262.5 52 274.5 106 c 1,18,-1
 321.5 306 l 1,19,-1
 295.5 306 l 1,20,-1
 245.5 87 l 1,21,-1
 129.5 87 l 1,22,-1
 180.5 306 l 1,23,-1
 154.5 306 l 1,24,-1
 89.5 22 l 1,25,-1
 -1.5 0 l 1,26,-1
 91.5 403 l 1,27,-1
 231.5 403 l 1,28,-1
 217.5 339 l 1,29,-1
 274.5 339 l 1,0,-1
EndSplineSet
EndChar

StartChar: uni043D
Encoding: 1085 1085 366
Width: 448
Flags: W
HStem: -10 54<297 370.682> 0 21G<2.11538 80> 156 97<149.5 276.5> 383 20G<85.8846 184.5 328.833 426.5>
DStem2: -2.5 0 96.5 24 0.22486 0.974391<45.6465 181.237 280.7 413.592> 265.5 108 359.5 112 0.224618 0.974447<-29.5738 49.2442 148.707 302.736>
LayerCount: 2
Fore
SplineSet
333.5 403 m 1,0,-1
 426.5 403 l 1,1,-1
 359.5 112 l 1,2,3
 354.5 90 354.5 90 350.5 57 c 0,4,5
 351.5 53 351.5 53 355.5 48.5 c 128,-1,6
 359.5 44 359.5 44 364.5 44 c 0,7,8
 383.5 44 383.5 44 407.5 76 c 2,9,-1
 434.5 111 l 1,10,-1
 450.5 101 l 1,11,12
 408.5 38 408.5 38 379 14 c 128,-1,13
 349.5 -10 349.5 -10 312.5 -10 c 0,14,15
 281.5 -10 281.5 -10 268.5 9 c 128,-1,16
 255.5 28 255.5 28 256.5 50.5 c 128,-1,17
 257.5 73 257.5 73 265.5 108 c 1,18,-1
 276.5 156 l 1,19,-1
 127.5 156 l 1,20,-1
 96.5 24 l 1,21,-1
 -2.5 0 l 1,22,-1
 90.5 403 l 1,23,-1
 184.5 403 l 1,24,-1
 149.5 253 l 1,25,-1
 298.5 253 l 1,26,-1
 333.5 403 l 1,0,-1
EndSplineSet
EndChar

StartChar: uni0444
Encoding: 1092 1092 374
Width: 448
Flags: W
CounterMasks: 1 0e
LayerCount: 2
Fore
SplineSet
325.5 306 m 1,0,-1
 298.5 306 l 1,1,-1
 250.5 97 l 1,2,-1
 276.5 97 l 1,3,-1
 325.5 306 l 1,0,-1
377.5 403 m 1,4,-1
 362.5 339 l 1,5,-1
 419.5 339 l 1,6,-1
 355.5 64 l 1,7,-1
 298.5 64 l 1,8,-1
 283.5 0 l 1,9,-1
 228.5 0 l 1,10,-1
 220.5 -32 l 1,11,12
 202.5 -112 202.5 -112 156.5 -152 c 0,13,14
 101.5 -192 101.5 -192 23.5 -192 c 0,15,16
 -25.5 -192 -25.5 -192 -71.5 -182 c 2,17,-1
 -84.5 -179 l 1,18,-1
 -48.5 -84 l 1,19,20
 12.5 -95 12.5 -95 38.5 -95 c 0,21,22
 72.5 -95 72.5 -95 89.5 -79 c 0,23,24
 102.5 -64 102.5 -64 106.5 -36 c 1,25,-1
 115.5 0 l 1,26,-1
 59.5 0 l 1,27,-1
 74.5 64 l 1,28,-1
 17.5 64 l 1,29,-1
 80.5 339 l 1,30,-1
 137.5 339 l 1,31,-1
 152.5 403 l 1,32,-1
 208.5 403 l 1,33,-1
 221.5 460 l 1,34,35
 243.5 554 243.5 554 290.5 601 c 0,36,37
 347.5 648 347.5 648 424.5 648 c 0,38,39
 473.5 648 473.5 648 519.5 638 c 2,40,-1
 532.5 635 l 1,41,-1
 496.5 535 l 1,42,43
 437.5 551 437.5 551 410.5 551 c 0,44,45
 376.5 551 376.5 551 357.5 528 c 0,46,47
 343.5 508 343.5 508 335.5 467 c 1,48,-1
 321.5 403 l 1,49,-1
 377.5 403 l 1,4,-1
185.5 306 m 1,50,-1
 159.5 306 l 1,51,-1
 111.5 97 l 1,52,-1
 137.5 97 l 1,53,-1
 185.5 306 l 1,50,-1
EndSplineSet
EndChar

StartChar: uni0447
Encoding: 1095 1095 376
Width: 448
Flags: W
LayerCount: 2
Fore
SplineSet
241.681640625 114 m 1,0,-1
 246.681640625 133 l 1,1,2
 181.681640625 99 181.681640625 99 123.681640625 98 c 0,3,4
 63.681640625 98 63.681640625 98 37.681640625 132.5 c 128,-1,5
 11.681640625 167 11.681640625 167 29.681640625 245 c 2,6,-1
 65.681640625 403 l 1,7,-1
 159.681640625 403 l 1,8,-1
 126.681640625 261 l 2,9,10
 117.681640625 223 117.681640625 223 126.681640625 208 c 0,11,12
 133.681640625 196 133.681640625 196 163.681640625 195 c 0,13,14
 202.681640625 195 202.681640625 195 252.681640625 223 c 0,15,16
 261.681640625 228 261.681640625 228 269.681640625 234 c 1,17,-1
 308.681640625 403 l 1,18,-1
 401.681640625 403 l 1,19,-1
 334.681640625 112 l 1,20,21
 329.681640625 90 329.681640625 90 325.681640625 57 c 0,22,23
 326.681640625 53 326.681640625 53 330.681640625 48.5 c 128,-1,24
 334.681640625 44 334.681640625 44 339.681640625 44 c 0,25,26
 358.681640625 44 358.681640625 44 383.681640625 78 c 2,27,-1
 410.681640625 114 l 1,28,-1
 425.681640625 102 l 1,29,30
 383.681640625 39 383.681640625 39 354.181640625 14.5 c 128,-1,31
 324.681640625 -10 324.681640625 -10 287.681640625 -10 c 0,32,33
 256.681640625 -10 256.681640625 -10 243.681640625 9.5 c 128,-1,34
 230.681640625 29 230.681640625 29 232.181640625 53 c 128,-1,35
 233.681640625 77 233.681640625 77 241.681640625 114 c 1,0,-1
EndSplineSet
EndChar

StartChar: uni0446
Encoding: 1094 1094 377
Width: 448
Flags: W
LayerCount: 2
Fore
SplineSet
129.5 97 m 1,0,-1
 270.5 97 l 1,1,-1
 341.5 403 l 1,2,-1
 434.5 403 l 1,3,-1
 364.5 97 l 1,4,-1
 420.5 97 l 1,5,-1
 368.5 -128 l 1,6,-1
 275.5 -128 l 1,7,-1
 305.5 0 l 1,8,-1
 13.5 0 l 1,9,-1
 106.5 403 l 1,10,-1
 200.5 403 l 1,11,-1
 129.5 97 l 1,0,-1
EndSplineSet
EndChar

StartChar: uni0449
Encoding: 1097 1097 379
Width: 448
Flags: W
LayerCount: 2
Fore
SplineSet
-31.5 0 m 1,0,-1
 61.5 403 l 1,1,-1
 147.5 403 l 1,2,-1
 76.5 97 l 1,3,-1
 156.5 97 l 1,4,-1
 227.5 403 l 1,5,-1
 313.5 403 l 1,6,-1
 242.5 97 l 1,7,-1
 322.5 97 l 1,8,-1
 392.5 403 l 1,9,-1
 479.5 403 l 1,10,-1
 408.5 97 l 1,11,-1
 438.5 97 l 1,12,-1
 386.5 -128 l 1,13,-1
 293.5 -128 l 1,14,-1
 322.5 0 l 1,15,-1
 -31.5 0 l 1,0,-1
EndSplineSet
EndChar

StartChar: uni044C
Encoding: 1100 1100 381
Width: 448
Flags: W
LayerCount: 2
Fore
SplineSet
322.5 214 m 1,0,-1
 166.5 214 l 1,1,-1
 139.5 97 l 1,2,-1
 295.5 97 l 1,3,-1
 322.5 214 l 1,0,-1
374.5 311 m 1,4,-1
 359.5 247 l 1,5,-1
 416.5 247 l 1,6,-1
 373.5 64 l 1,7,-1
 317.5 64 l 1,8,-1
 302.5 0 l 1,9,-1
 31.5 0 l 1,10,-1
 124.5 403 l 1,11,-1
 210.5 403 l 1,12,-1
 189.5 311 l 1,13,-1
 374.5 311 l 1,4,-1
EndSplineSet
EndChar

StartChar: uni044A
Encoding: 1098 1098 382
Width: 448
Flags: W
LayerCount: 2
Fore
SplineSet
332 210 m 1,0,-1
 176 210 l 1,1,-1
 150 97 l 1,2,-1
 306 97 l 1,3,-1
 332 210 l 1,0,-1
384 307 m 1,4,-1
 369 243 l 1,5,-1
 426 243 l 1,6,-1
 384 64 l 1,7,-1
 328 64 l 1,8,-1
 313 0 l 1,9,-1
 41 0 l 1,10,-1
 109 294 l 1,11,12
 116 325 116 325 120 349 c 0,13,14
 119 353 119 353 114.5 357.5 c 128,-1,15
 110 362 110 362 105 362 c 0,16,17
 87 362 87 362 65 335 c 2,18,-1
 36 299 l 1,19,-1
 22 310 l 1,20,21
 61 368 61 368 90 391 c 128,-1,22
 119 414 119 414 154 414 c 0,23,24
 195 414 195 414 202 383 c 0,25,26
 209 354 209 354 199 307 c 1,27,-1
 384 307 l 1,4,-1
EndSplineSet
EndChar

StartChar: uni044B
Encoding: 1099 1099 383
Width: 448
Flags: W
LayerCount: 2
Fore
SplineSet
276 109 m 1,0,-1
 344 403 l 1,1,-1
 430 403 l 1,2,-1
 362 110 l 1,3,4
 355 79 355 79 352 54 c 0,5,6
 353 50 353 50 357 45.5 c 128,-1,7
 361 41 361 41 367 41 c 0,8,9
 385 41 385 41 407 70 c 2,10,-1
 437 110 l 1,11,-1
 451 100 l 1,12,13
 411 38 411 38 381.5 13.5 c 128,-1,14
 352 -11 352 -11 318 -11 c 0,15,16
 277 -11 277 -11 270 21.5 c 128,-1,17
 263 54 263 54 276 109 c 1,0,-1
166 218 m 1,18,-1
 133 218 l 1,19,-1
 104 91 l 1,20,-1
 137 91 l 1,21,-1
 166 218 l 1,18,-1
222 304 m 1,22,-1
 209 247 l 1,23,-1
 277 247 l 1,24,-1
 235 61 l 1,25,-1
 166 61 l 1,26,-1
 152 0 l 1,27,-1
 -3 0 l 1,28,-1
 90 403 l 1,29,-1
 176 403 l 1,30,-1
 153 304 l 1,31,-1
 222 304 l 1,22,-1
EndSplineSet
EndChar

StartChar: uni0459
Encoding: 1113 1113 384
Width: 448
Flags: W
LayerCount: 2
Fore
SplineSet
137 25 m 1,0,-1
 26 0 l 1,1,-1
 119 403 l 1,2,-1
 345 403 l 1,3,-1
 322 303 l 1,4,-1
 379 303 l 1,5,-1
 365 245 l 1,6,-1
 422 245 l 1,7,-1
 379 58 l 1,8,-1
 322 58 l 1,9,-1
 309 0 l 1,10,-1
 166 0 l 1,11,-1
 238 316 l 1,12,-1
 137 25 l 1,0,-1
329 216 m 1,13,-1
 302 216 l 1,14,-1
 272 87 l 1,15,-1
 300 87 l 1,16,-1
 329 216 l 1,13,-1
EndSplineSet
EndChar

StartChar: uni045A
Encoding: 1114 1114 385
Width: 448
Flags: W
LayerCount: 2
Fore
SplineSet
328 217 m 1,0,-1
 300 217 l 1,1,-1
 270 85 l 1,2,-1
 297 85 l 1,3,-1
 328 217 l 1,0,-1
378 306 m 1,4,-1
 365 250 l 1,5,-1
 422 250 l 1,6,-1
 377 56 l 1,7,-1
 320 56 l 1,8,-1
 307 0 l 1,9,-1
 164 0 l 1,10,-1
 199 153 l 1,11,-1
 147 153 l 1,12,-1
 116 20 l 1,13,-1
 26 0 l 1,14,-1
 119 403 l 1,15,-1
 205 403 l 1,16,-1
 169 250 l 1,17,-1
 222 250 l 1,18,-1
 257 403 l 1,19,-1
 343 403 l 1,20,-1
 321 306 l 1,21,-1
 378 306 l 1,4,-1
EndSplineSet
EndChar

StartChar: uni0454
Encoding: 1108 1108 387
Width: 448
GlyphClass: 2
Flags: W
LayerCount: 2
Fore
SplineSet
317.51171875 13 m 2,0,1
 261.51171875 -7 261.51171875 -7 197.51171875 -7 c 0,2,3
 73.51171875 -7 73.51171875 -7 43.51171875 59 c 0,4,5
 20.51171875 111 20.51171875 111 41.51171875 201.5 c 128,-1,6
 62.51171875 292 62.51171875 292 109.51171875 344 c 0,7,8
 170.51171875 410 170.51171875 410 294.51171875 410 c 0,9,10
 358.51171875 410 358.51171875 410 404.51171875 390 c 2,11,-1
 416.51171875 386 l 1,12,-1
 380.51171875 299 l 1,13,-1
 365.51171875 302 l 2,14,15
 322.51171875 313 322.51171875 313 274.51171875 313 c 0,16,17
 216.51171875 313 216.51171875 313 188.51171875 298 c 0,18,19
 164.51171875 284 164.51171875 284 151.51171875 249 c 1,20,-1
 358.51171875 249 l 1,21,-1
 335.51171875 152 l 1,22,-1
 128.51171875 152 l 1,23,24
 124.51171875 114 124.51171875 114 142.51171875 99 c 0,25,26
 163.51171875 82 163.51171875 82 221.51171875 83 c 0,27,28
 269.51171875 83 269.51171875 83 317.51171875 93 c 2,29,-1
 333.51171875 96 l 1,30,-1
 331.51171875 17 l 1,31,-1
 317.51171875 13 l 2,0,1
EndSplineSet
EndChar

StartChar: uni044D
Encoding: 1101 1101 388
Width: 448
GlyphClass: 2
Flags: W
CounterMasks: 1 e0
LayerCount: 2
Fore
SplineSet
355.642578125 392 m 0,0,1
 440.642578125 349 440.642578125 349 406.642578125 201 c 0,2,3
 385.642578125 111 385.642578125 111 338.642578125 59 c 0,4,5
 277.642578125 -7 277.642578125 -7 153.642578125 -7 c 0,6,7
 89.642578125 -7 89.642578125 -7 42.642578125 13 c 2,8,-1
 31.642578125 18 l 1,9,-1
 67.642578125 104 l 1,10,-1
 81.642578125 101 l 2,11,12
 125.642578125 90 125.642578125 90 178.642578125 90 c 0,13,14
 231.642578125 90 231.642578125 90 259.642578125 105 c 0,15,16
 283.642578125 119 283.642578125 119 296.642578125 153 c 1,17,-1
 89.642578125 153 l 1,18,-1
 111.642578125 250 l 1,19,-1
 318.642578125 250 l 1,20,21
 321.642578125 284 321.642578125 284 304.642578125 298 c 0,22,23
 283.642578125 313 283.642578125 313 224.642578125 313 c 0,24,25
 176.642578125 313 176.642578125 313 128.642578125 303 c 2,26,-1
 112.642578125 299 l 1,27,-1
 116.642578125 386 l 1,28,-1
 129.642578125 390 l 2,29,30
 185.642578125 410 185.642578125 410 249.642578125 410 c 0,31,32
 315.642578125 410 315.642578125 410 355.642578125 392 c 0,0,1
EndSplineSet
EndChar

StartChar: uni045B
Encoding: 1115 1115 392
Width: 448
GlyphClass: 2
Flags: W
LayerCount: 2
Fore
SplineSet
192 435 m 1,0,-1
 177 373 l 1,1,2
 241 407 241 407 299 407 c 0,3,4
 359 407 359 407 384.5 374 c 128,-1,5
 410 341 410 341 393 265 c 2,6,-1
 357 112 l 1,7,8
 352 90 352 90 348 57 c 0,9,10
 349 53 349 53 353 48.5 c 128,-1,11
 357 44 357 44 363 44 c 0,12,13
 382 44 382 44 407 77 c 2,14,-1
 435 112 l 1,15,-1
 450 101 l 1,16,17
 409 38 409 38 380 14 c 128,-1,18
 351 -10 351 -10 315 -10 c 0,19,20
 284 -10 284 -10 271.5 8.5 c 128,-1,21
 259 27 259 27 260 49.5 c 128,-1,22
 261 72 261 72 269 106 c 1,23,-1
 301 244 l 2,24,25
 310 283 310 283 301 298 c 0,26,27
 294 310 294 310 263 310 c 0,28,29
 227 310 227 310 181 287 c 0,30,31
 167 280 167 280 154 272 c 1,32,-1
 97 24 l 1,33,-1
 -2 0 l 1,34,-1
 98 435 l 1,35,-1
 58 435 l 1,36,-1
 79 528 l 1,37,-1
 120 528 l 1,38,-1
 146 640 l 1,39,-1
 239 640 l 1,40,-1
 213 528 l 1,41,-1
 345 528 l 1,42,-1
 324 435 l 1,43,-1
 192 435 l 1,0,-1
EndSplineSet
EndChar

StartChar: uni044E
Encoding: 1102 1102 393
Width: 448
Flags: W
LayerCount: 2
Fore
SplineSet
310 56 m 1,0,-1
 297 0 l 1,1,-1
 210 0 l 1,2,-1
 223 56 l 1,3,-1
 147 56 l 1,4,-1
 169 153 l 1,5,-1
 135 153 l 1,6,-1
 104 20 l 1,7,-1
 14 0 l 1,8,-1
 107 403 l 1,9,-1
 193 403 l 1,10,-1
 157 250 l 1,11,-1
 191 250 l 1,12,-1
 214 347 l 1,13,-1
 291 347 l 1,14,-1
 304 403 l 1,15,-1
 390 403 l 1,16,-1
 377 347 l 1,17,-1
 434 347 l 1,18,-1
 367 56 l 1,19,-1
 310 56 l 1,0,-1
259 85 m 1,20,-1
 287 85 l 1,21,-1
 341 319 l 1,22,-1
 313 319 l 1,23,-1
 259 85 l 1,20,-1
EndSplineSet
EndChar

StartChar: uni044F
Encoding: 1103 1103 394
Width: 448
Flags: W
LayerCount: 2
Fore
SplineSet
102 58 m 1,0,-1
 94 22 l 1,1,-1
 3 0 l 1,2,-1
 24 91 l 1,3,-1
 80 91 l 1,4,-1
 99 169 l 1,5,-1
 42 169 l 1,6,-1
 81 339 l 1,7,-1
 138 339 l 1,8,-1
 153 403 l 1,9,-1
 424 403 l 1,10,-1
 356 110 l 1,11,12
 349 79 349 79 346 54 c 0,13,14
 347 50 347 50 351 45.5 c 128,-1,15
 355 41 355 41 360 41 c 0,16,17
 378 41 378 41 401 71 c 2,18,-1
 431 113 l 1,19,-1
 445 101 l 1,20,21
 405 38 405 38 375.5 13.5 c 128,-1,22
 346 -11 346 -11 311 -11 c 0,23,24
 270 -11 270 -11 264 23 c 0,25,26
 258 54 258 54 269 105 c 1,27,-1
 176 105 l 1,28,-1
 165 58 l 1,29,-1
 102 58 l 1,0,-1
315 306 m 1,30,-1
 159 306 l 1,31,-1
 135 202 l 1,32,-1
 291 202 l 1,33,-1
 315 306 l 1,30,-1
EndSplineSet
EndChar

StartChar: uni0452
Encoding: 1106 1106 395
Width: 448
GlyphClass: 2
Flags: W
LayerCount: 2
Fore
SplineSet
127.5 199 m 1,0,-1
 360.5 199 l 1,1,-1
 332.5 127 l 1,2,-1
 251.5 127 l 1,3,-1
 158.5 72 l 1,4,-1
 105.5 72 l 1,5,-1
 171.5 127 l 1,6,-1
 87.5 127 l 1,7,-1
 127.5 199 l 1,0,-1
EndSplineSet
EndChar

StartChar: uni0394
Encoding: 916 916 399
Width: 448
Flags: W
LayerCount: 2
Fore
SplineSet
415.745117188 0 m 1,0,-1
 2.7451171875 0 l 1,1,-1
 7.7451171875 17 l 2,2,3
 63.7451171875 197 63.7451171875 197 137.745117188 356.5 c 128,-1,4
 211.745117188 516 211.745117188 516 303.745117188 634 c 2,5,-1
 310.745117188 643 l 1,6,-1
 404.745117188 643 l 1,7,-1
 407.745117188 634 l 2,8,9
 444.745117188 516 444.745117188 516 445.245117188 356.5 c 128,-1,10
 445.745117188 197 445.745117188 197 418.745117188 17 c 2,11,-1
 415.745117188 0 l 1,0,-1
329.745117188 520 m 1,12,13
 223.745117188 349 223.745117188 349 132.745117188 97 c 1,14,-1
 329.745117188 97 l 1,15,16
 356.745117188 349 356.745117188 349 329.745117188 520 c 1,12,13
EndSplineSet
EndChar

StartChar: Theta
Encoding: 920 920 403
Width: 448
GlyphClass: 2
Flags: W
LayerCount: 2
Fore
SplineSet
427.94921875 320 m 128,-1,1
 390.44921875 158 390.44921875 158 327.44921875 76 c 0,2,3
 260.44921875 -10 260.44921875 -10 147.44921875 -10 c 0,4,5
 25.44921875 -10 25.44921875 -10 3.44921875 96 c 0,6,7
 -13.55078125 176 -13.55078125 176 18.44921875 319 c 0,8,9
 56.44921875 482 56.44921875 482 120.44921875 564 c 0,10,11
 188.44921875 650 188.44921875 650 299.44921875 650 c 0,12,13
 357.44921875 650 357.44921875 650 395.44921875 627 c 0,14,15
 427.44921875 605 427.44921875 605 440.44921875 564 c 0,16,0
 465.44921875 482 465.44921875 482 427.94921875 320 c 128,-1,1
332.44921875 531 m 128,-1,18
 314.44921875 551 314.44921875 551 276.94921875 551 c 128,-1,19
 239.44921875 551 239.44921875 551 212.44921875 531 c 0,20,21
 162.44921875 492 162.44921875 492 124.44921875 336 c 1,22,-1
 330.44921875 336 l 1,23,24
 347.44921875 414 347.44921875 414 349.44921875 463 c 0,25,17
 350.44921875 511 350.44921875 511 332.44921875 531 c 128,-1,18
105.44921875 123 m 0,26,27
 121.44921875 89 121.44921875 89 170.44921875 89 c 0,28,29
 195.44921875 89 195.44921875 89 214.94921875 97 c 128,-1,30
 234.44921875 105 234.44921875 105 250.44921875 123 c 0,31,32
 281.44921875 158 281.44921875 158 306.44921875 240 c 1,33,-1
 103.44921875 240 l 1,34,35
 90.44921875 158 90.44921875 158 105.44921875 123 c 0,26,27
EndSplineSet
EndChar

StartChar: Lambda
Encoding: 923 923 406
Width: 448
GlyphClass: 2
Flags: W
LayerCount: 2
Fore
SplineSet
101.745117188 0 m 1,0,-1
 1.7451171875 0 l 1,1,-1
 6.7451171875 17 l 2,2,3
 61.7451171875 196 61.7451171875 196 136.245117188 355.5 c 128,-1,4
 210.745117188 515 210.745117188 515 304.745117188 634 c 2,5,-1
 311.745117188 643 l 1,6,-1
 403.745117188 643 l 1,7,8
 445.745117188 516 445.745117188 516 446.245117188 356 c 128,-1,9
 446.745117188 196 446.745117188 196 419.745117188 17 c 2,10,-1
 416.745117188 0 l 1,11,-1
 316.745117188 0 l 1,12,13
 359.745117188 320 359.745117188 320 329.745117188 520 c 1,14,15
 242.745117188 377 242.745117188 377 163.745117188 174 c 0,16,17
 133.745117188 98 133.745117188 98 101.745117188 0 c 1,0,-1
EndSplineSet
EndChar

StartChar: Xi
Encoding: 926 926 409
Width: 448
Flags: W
LayerCount: 2
Fore
SplineSet
465 543 m 1,0,-1
 90 543 l 1,1,-1
 112 640 l 1,2,-1
 488 640 l 1,3,-1
 465 543 l 1,0,-1
350 240 m 1,4,-1
 65 240 l 1,5,-1
 87 336 l 1,6,-1
 372 336 l 1,7,-1
 350 240 l 1,4,-1
345 0 m 1,8,-1
 -40 0 l 1,9,-1
 -18 97 l 1,10,-1
 367 97 l 1,11,-1
 345 0 l 1,8,-1
EndSplineSet
EndChar

StartChar: Sigma
Encoding: 931 931 413
Width: 448
Flags: W
CounterMasks: 1 e0
LayerCount: 2
Fore
SplineSet
329.5 0 m 1,0,-1
 -29.5 0 l 1,1,-1
 7.5 161 l 1,2,-1
 67.5 161 l 1,3,-1
 93.5 272 l 1,4,-1
 154.5 272 l 1,5,-1
 176.5 368 l 1,6,-1
 115.5 368 l 1,7,-1
 144.5 496 l 1,8,-1
 85.5 496 l 1,9,-1
 118.5 640 l 1,10,-1
 477.5 640 l 1,11,-1
 455.5 543 l 1,12,-1
 186.5 543 l 1,13,-1
 182.5 528 l 1,14,-1
 253.5 528 l 1,15,-1
 223.5 400 l 1,16,-1
 301.5 400 l 1,17,-1
 264.5 240 l 1,18,-1
 186.5 240 l 1,19,-1
 160.5 128 l 1,20,-1
 90.5 128 l 1,21,-1
 83.5 97 l 1,22,-1
 352.5 97 l 1,23,-1
 329.5 0 l 1,0,-1
EndSplineSet
EndChar

StartChar: Psi
Encoding: 936 936 418
Width: 448
Flags: W
CounterMasks: 1 1c
LayerCount: 2
Fore
SplineSet
297 336 m 1,0,-1
 367 640 l 1,1,-1
 458 640 l 1,2,-1
 380 304 l 1,3,-1
 320 304 l 1,4,-1
 306 240 l 1,5,-1
 215 240 l 1,6,-1
 160 0 l 1,7,-1
 70 0 l 1,8,-1
 125 240 l 1,9,-1
 35 240 l 1,10,-1
 50 304 l 1,11,-1
 -10 304 l 1,12,-1
 68 640 l 1,13,-1
 158 640 l 1,14,-1
 88 336 l 1,15,-1
 148 336 l 1,16,-1
 218 640 l 1,17,-1
 308 640 l 1,18,-1
 238 336 l 1,19,-1
 297 336 l 1,0,-1
EndSplineSet
EndChar

StartChar: uni03A9
Encoding: 937 937 419
Width: 448
Flags: W
LayerCount: 2
Fore
SplineSet
328.623046875 156 m 1,0,-1
 314.623046875 97 l 1,1,-1
 389.623046875 97 l 1,2,-1
 366.623046875 0 l 1,3,-1
 194.623046875 0 l 1,4,-1
 242.623046875 205 l 1,5,-1
 254.623046875 207 l 2,6,7
 291.623046875 215 291.623046875 215 313.623046875 251 c 0,8,9
 338.623046875 292 338.623046875 292 359.623046875 377 c 0,10,11
 382.623046875 477 382.623046875 477 369.623046875 516 c 0,12,13
 358.623046875 551 358.623046875 551 295.623046875 551 c 128,-1,14
 232.623046875 551 232.623046875 551 206.623046875 516 c 0,15,16
 176.623046875 477 176.623046875 477 152.623046875 377 c 0,17,18
 132.623046875 291 132.623046875 291 139.623046875 251 c 0,19,20
 145.623046875 215 145.623046875 215 178.623046875 207 c 2,21,-1
 189.623046875 205 l 1,22,-1
 142.623046875 0 l 1,23,-1
 -29.376953125 0 l 1,24,-1
 -6.376953125 97 l 1,25,-1
 67.623046875 97 l 1,26,-1
 81.623046875 157 l 1,27,28
 13.623046875 215 13.623046875 215 52.623046875 381 c 0,29,30
 52.623046875 382 l 0,31,32
 82.623046875 513 82.623046875 513 144.623046875 581 c 0,33,34
 208.623046875 650 208.623046875 650 321.623046875 650 c 0,35,36
 431.623046875 650 431.623046875 650 462.623046875 581 c 0,37,38
 492.623046875 515 492.623046875 515 461.623046875 382 c 0,39,40
 441.623046875 293 441.623046875 293 408.623046875 238.5 c 128,-1,41
 375.623046875 184 375.623046875 184 328.623046875 156 c 1,0,-1
EndSplineSet
EndChar

StartChar: uni03D2
Encoding: 978 978 429
Width: 448
Flags: W
LayerCount: 2
Fore
SplineSet
94 548 m 1,0,-1
 35 548 l 1,1,-1
 56 640 l 1,2,-1
 146 640 l 1,3,-1
 131 576 l 1,4,-1
 203 576 l 1,5,-1
 174 448 l 1,6,-1
 209 448 l 1,7,-1
 238 576 l 1,8,-1
 310 576 l 1,9,-1
 325 640 l 1,10,-1
 415 640 l 1,11,-1
 394 548 l 1,12,-1
 334 548 l 1,13,-1
 306 426 l 1,14,-1
 241 426 l 1,15,-1
 142 0 l 1,16,-1
 33 0 l 1,17,-1
 132 426 l 1,18,-1
 66 426 l 1,19,-1
 94 548 l 1,0,-1
EndSplineSet
EndChar

StartChar: alpha
Encoding: 945 945 430
Width: 448
Flags: W
LayerCount: 2
Fore
SplineSet
25.2529296875 52 m 0,0,1
 8.2529296875 108 8.2529296875 108 29.7529296875 201.5 c 128,-1,2
 51.2529296875 295 51.2529296875 295 94.2529296875 351 c 0,3,4
 140.252929688 411 140.252929688 411 219.252929688 411 c 0,5,6
 288.252929688 411 288.252929688 411 323.252929688 353 c 1,7,-1
 338.252929688 407 l 1,8,-1
 430.252929688 400 l 1,9,-1
 402.252929688 312 l 2,10,11
 382.252929688 248 382.252929688 248 371.252929688 202 c 1,12,13
 360.252929688 156 360.252929688 156 351.252929688 91 c 2,14,-1
 338.252929688 3 l 1,15,-1
 243.252929688 -4 l 1,16,-1
 253.252929688 51 l 1,17,18
 191.252929688 -8 191.252929688 -8 122.252929688 -8 c 0,19,20
 43.2529296875 -8 43.2529296875 -8 25.2529296875 52 c 0,0,1
206.752929688 314 m 128,-1,22
 179.252929688 314 179.252929688 314 162.252929688 294 c 0,23,24
 143.252929688 269 143.252929688 269 128.252929688 201.5 c 128,-1,25
 113.252929688 134 113.252929688 134 120.252929688 109 c 0,26,27
 124.252929688 99 124.252929688 99 131.752929688 94 c 128,-1,28
 139.252929688 89 139.252929688 89 154.252929688 89 c 0,29,30
 183.252929688 89 183.252929688 89 217.252929688 117 c 128,-1,31
 251.252929688 145 251.252929688 145 277.252929688 202 c 1,32,33
 277.252929688 259 277.252929688 259 255.752929688 286.5 c 128,-1,21
 234.252929688 314 234.252929688 314 206.752929688 314 c 128,-1,22
EndSplineSet
EndChar

StartChar: beta
Encoding: 946 946 431
Width: 448
Flags: W
LayerCount: 2
Fore
SplineSet
328 305 m 1,0,-1
 198 305 l 1,1,-1
 219 395 l 1,2,-1
 349 395 l 1,3,-1
 383 543 l 1,4,-1
 227 543 l 1,5,-1
 138 157 l 1,6,-1
 216 157 l 1,7,-1
 203 97 l 1,8,-1
 280 97 l 1,9,-1
 328 305 l 1,0,-1
168 64 m 1,10,-1
 117 64 l 1,11,-1
 57 -192 l 1,12,-1
 -29 -192 l 1,13,-1
 149 576 l 1,14,-1
 205 576 l 1,15,-1
 220 640 l 1,16,-1
 435 640 l 1,17,-1
 420 576 l 1,18,-1
 477 576 l 1,19,-1
 428 365 l 1,20,-1
 371 365 l 1,21,-1
 364 336 l 1,22,-1
 421 336 l 1,23,-1
 358 64 l 1,24,-1
 302 64 l 1,25,-1
 287 0 l 1,26,-1
 154 0 l 1,27,-1
 168 64 l 1,10,-1
EndSplineSet
EndChar

StartChar: gamma
Encoding: 947 947 432
Width: 448
Flags: W
LayerCount: 2
Fore
SplineSet
189.896484375 16 m 1,0,-1
 141.896484375 -192 l 1,1,-1
 27.896484375 -192 l 1,2,-1
 75.896484375 16 l 1,3,4
 38.896484375 107 38.896484375 107 29.896484375 203.5 c 128,-1,5
 20.896484375 300 20.896484375 300 40.896484375 430 c 2,6,-1
 42.896484375 446 l 1,7,-1
 140.896484375 452 l 1,8,-1
 137.896484375 436 l 2,9,10
 118.896484375 312 118.896484375 312 125.896484375 234 c 0,11,12
 131.896484375 169 131.896484375 169 152.896484375 104 c 1,13,14
 203.896484375 169 203.896484375 169 240.896484375 234 c 0,15,16
 283.896484375 312 283.896484375 312 321.896484375 436 c 2,17,-1
 326.896484375 452 l 1,18,-1
 420.896484375 446 l 1,19,-1
 415.896484375 430 l 2,20,21
 375.896484375 301 375.896484375 301 321.896484375 202 c 0,22,23
 268.896484375 107 268.896484375 107 189.896484375 16 c 1,0,-1
EndSplineSet
EndChar

StartChar: delta
Encoding: 948 948 433
Width: 448
Flags: W
LayerCount: 2
Fore
SplineSet
358.55859375 332.5 m 128,-1,1
 382.55859375 278 382.55859375 278 363.55859375 194 c 0,2,3
 351.55859375 142 351.55859375 142 323.55859375 95 c 128,-1,4
 295.55859375 48 295.55859375 48 250.55859375 17 c 0,5,6
 204.55859375 -13 204.55859375 -13 134.05859375 -13 c 128,-1,7
 63.55859375 -13 63.55859375 -13 32.55859375 17 c 0,8,9
 2.55859375 47 2.55859375 47 -3.44140625 91 c 0,10,11
 -9.44140625 135 -9.44140625 135 1.55859375 181 c 0,12,13
 17.55859375 251 17.55859375 251 64.55859375 308 c 0,14,15
 103.55859375 356 103.55859375 356 158.55859375 389 c 1,16,17
 142.55859375 408 142.55859375 408 135.55859375 429 c 0,18,19
 125.55859375 460 125.55859375 460 134.55859375 502 c 0,20,21
 148.55859375 563 148.55859375 563 195.55859375 602 c 0,22,23
 248.55859375 642 248.55859375 642 345.55859375 642 c 0,24,25
 387.55859375 642 387.55859375 642 453.55859375 633 c 1,26,-1
 423.55859375 539 l 1,27,28
 358.55859375 545 358.55859375 545 326.55859375 545 c 0,29,30
 289.55859375 545 289.55859375 545 268.55859375 534.5 c 128,-1,31
 247.55859375 524 247.55859375 524 241.55859375 500 c 0,32,33
 237.55859375 481 237.55859375 481 244.55859375 468 c 0,34,35
 253.55859375 454 253.55859375 454 286.55859375 429 c 0,36,0
 334.55859375 387 334.55859375 387 358.55859375 332.5 c 128,-1,1
228.55859375 113 m 0,37,38
 256.55859375 144 256.55859375 144 271.55859375 208 c 0,39,40
 291.55859375 294 291.55859375 294 238.55859375 353 c 1,41,42
 173.55859375 321 173.55859375 321 142.55859375 286 c 0,43,44
 112.55859375 248 112.55859375 248 100.05859375 194 c 128,-1,45
 87.55859375 140 87.55859375 140 100.55859375 111 c 0,46,47
 115.55859375 84 115.55859375 84 155.55859375 84 c 0,48,49
 199.55859375 84 199.55859375 84 228.55859375 113 c 0,37,38
EndSplineSet
EndChar

StartChar: epsilon
Encoding: 949 949 434
Width: 448
Flags: W
LayerCount: 2
Fore
SplineSet
81.5 64 m 1,0,-1
 24.5 64 l 1,1,-1
 53.5 188 l 1,2,-1
 110.5 188 l 1,3,-1
 117.5 219 l 1,4,-1
 60.5 219 l 1,5,-1
 92.5 356 l 1,6,-1
 149.5 356 l 1,7,-1
 160.5 403 l 1,8,-1
 423.5 403 l 1,9,-1
 404.5 323 l 1,10,-1
 170.5 323 l 1,11,-1
 154.5 252 l 1,12,-1
 336.5 252 l 1,13,-1
 314.5 155 l 1,14,-1
 132.5 155 l 1,15,-1
 118.5 97 l 1,16,-1
 352.5 97 l 1,17,-1
 330.5 0 l 1,18,-1
 67.5 0 l 1,19,-1
 81.5 64 l 1,0,-1
EndSplineSet
EndChar

StartChar: zeta
Encoding: 950 950 435
Width: 448
Flags: W
LayerCount: 2
Fore
SplineSet
276.877929688 47 m 0,0,1
 309.877929688 18 309.877929688 18 292.877929688 -54 c 0,2,3
 277.877929688 -119 277.877929688 -119 233.377929688 -155.5 c 128,-1,4
 188.877929688 -192 188.877929688 -192 123.877929688 -192 c 0,5,6
 82.8779296875 -192 82.8779296875 -192 51.8779296875 -183 c 2,7,-1
 37.8779296875 -180 l 1,8,-1
 70.8779296875 -91 l 1,9,10
 118.877929688 -95 118.877929688 -95 137.877929688 -95 c 128,-1,11
 156.877929688 -95 156.877929688 -95 168.877929688 -92 c 0,12,13
 179.877929688 -89 179.877929688 -89 184.877929688 -86 c 0,14,15
 194.877929688 -77 194.877929688 -77 199.877929688 -54.5 c 128,-1,16
 204.877929688 -32 204.877929688 -32 195.877929688 -22 c 0,17,18
 181.877929688 -10 181.877929688 -10 133.877929688 -7 c 0,19,20
 34.8779296875 0 34.8779296875 0 9.8779296875 64 c 0,21,22
 -14.1220703125 126 -14.1220703125 126 10.8779296875 232 c 128,-1,23
 35.8779296875 338 35.8779296875 338 112.877929688 428 c 0,24,25
 170.877929688 495 170.877929688 495 252.877929688 543 c 1,26,-1
 98.8779296875 543 l 1,27,-1
 121.877929688 640 l 1,28,-1
 449.877929688 640 l 1,29,-1
 428.877929688 549 l 1,30,-1
 419.877929688 545 l 2,31,32
 295.877929688 489 295.877929688 489 212.877929688 408 c 0,33,34
 133.877929688 328 133.877929688 328 108.877929688 218 c 0,35,36
 96.8779296875 165 96.8779296875 165 97.8779296875 138 c 0,37,38
 100.877929688 111 100.877929688 111 119.877929688 98 c 128,-1,39
 138.877929688 85 138.877929688 85 184.877929688 80 c 0,40,41
 246.877929688 75 246.877929688 75 276.877929688 47 c 0,0,1
EndSplineSet
EndChar

StartChar: eta
Encoding: 951 951 436
Width: 448
Flags: W
LayerCount: 2
Fore
SplineSet
202.732421875 403 m 1,0,-1
 198.732421875 369 l 1,1,2
 266.732421875 407 266.732421875 407 329.732421875 407 c 0,3,4
 387.732421875 407 387.732421875 407 412.732421875 372 c 128,-1,5
 437.732421875 337 437.732421875 337 419.732421875 255 c 2,6,-1
 320.732421875 -170 l 1,7,-1
 222.732421875 -192 l 1,8,-1
 322.732421875 239 l 2,9,10
 332.732421875 281 332.732421875 281 325.732421875 297 c 0,11,12
 319.732421875 310 319.732421875 310 289.732421875 310 c 0,13,14
 254.732421875 310 254.732421875 310 208.732421875 286 c 0,15,16
 195.732421875 279 195.732421875 279 181.732421875 269 c 1,17,-1
 114.732421875 -16 l 1,18,-1
 20.732421875 -16 l 1,19,-1
 101.732421875 332 l 1,20,-1
 115.732421875 403 l 1,21,-1
 202.732421875 403 l 1,0,-1
EndSplineSet
EndChar

StartChar: theta
Encoding: 952 952 437
Width: 448
Flags: W
LayerCount: 2
Fore
SplineSet
150.5 353 m 1,0,-1
 91.5 97 l 1,1,-1
 253.5 97 l 1,2,-1
 301.5 306 l 1,3,-1
 168.5 306 l 1,4,-1
 182.5 366 l 1,5,-1
 124.5 366 l 1,6,-1
 172.5 576 l 1,7,-1
 231.5 576 l 1,8,-1
 246.5 640 l 1,9,-1
 408.5 640 l 1,10,-1
 393.5 576 l 1,11,-1
 450.5 576 l 1,12,-1
 331.5 64 l 1,13,-1
 275.5 64 l 1,14,-1
 260.5 0 l 1,15,-1
 40.5 0 l 1,16,-1
 54.5 64 l 1,17,-1
 -2.5 64 l 1,18,-1
 64.5 353 l 1,19,-1
 150.5 353 l 1,0,-1
262.5 543 m 1,20,-1
 225.5 384 l 1,21,-1
 319.5 384 l 1,22,-1
 356.5 543 l 1,23,-1
 262.5 543 l 1,20,-1
EndSplineSet
EndChar

StartChar: iota
Encoding: 953 953 438
Width: 448
Flags: W
HStem: -4 97<252.742 324.5> 359 54<179.959 259>
VStem: 107.5 233
DStem2: 160.5 116 250.5 127 0.22688 0.973923<6.11688 234.346>
LayerCount: 2
Fore
SplineSet
201.5 292 m 1,0,1
 206.5 314 206.5 314 210.5 346 c 0,2,3
 209.5 350 209.5 350 205 354.5 c 128,-1,4
 200.5 359 200.5 359 194.5 359 c 0,5,6
 175.5 359 175.5 359 150.5 327 c 2,7,-1
 123.5 292 l 1,8,-1
 107.5 302 l 1,9,10
 148.5 365 148.5 365 178 389 c 128,-1,11
 207.5 413 207.5 413 243.5 413 c 0,12,13
 274.5 413 274.5 413 287 394.5 c 128,-1,14
 299.5 376 299.5 376 298.5 354 c 128,-1,15
 297.5 332 297.5 332 290.5 297 c 1,16,-1
 250.5 127 l 2,17,18
 245.5 107 245.5 107 255.5 100 c 0,19,20
 263.5 93 263.5 93 281.5 93 c 0,21,22
 300.5 93 300.5 93 340.5 97 c 1,23,-1
 324.5 2 l 1,24,-1
 311.5 0 l 2,25,26
 283.5 -4 283.5 -4 256.5 -4 c 0,27,28
 201.5 -4 201.5 -4 174 24.5 c 128,-1,29
 146.5 53 146.5 53 160.5 116 c 2,30,-1
 201.5 292 l 1,0,1
EndSplineSet
EndChar

StartChar: lambda
Encoding: 955 955 440
Width: 448
Flags: W
LayerCount: 2
Fore
SplineSet
120 543 m 1,0,-1
 142 640 l 1,1,-1
 297 640 l 1,2,-1
 283 576 l 1,3,-1
 351 576 l 1,4,-1
 322 448 l 1,5,-1
 385 448 l 1,6,-1
 343 269 l 1,7,-1
 400 269 l 1,8,-1
 365 118 l 1,9,10
 357 83 357 83 353 56 c 0,11,12
 353 51 353 51 357.5 46 c 128,-1,13
 362 41 362 41 368 41 c 0,14,15
 386 41 386 41 409 74 c 2,16,-1
 440 119 l 1,17,-1
 453 107 l 1,18,19
 412 41 412 41 382.5 15 c 128,-1,20
 353 -11 353 -11 319 -11 c 0,21,22
 278 -11 278 -11 272 25 c 128,-1,23
 266 61 266 61 280 122 c 1,24,-1
 308 243 l 1,25,-1
 239 243 l 1,26,-1
 253 304 l 1,27,-1
 220 304 l 1,28,-1
 190 176 l 1,29,-1
 121 176 l 1,30,-1
 81 0 l 1,31,-1
 -5 0 l 1,32,-1
 43 208 l 1,33,-1
 100 208 l 1,34,-1
 129 336 l 1,35,-1
 192 336 l 1,36,-1
 206 396 l 1,37,-1
 274 396 l 1,38,-1
 281 424 l 1,39,-1
 212 424 l 1,40,-1
 240 543 l 1,41,-1
 120 543 l 1,0,-1
EndSplineSet
EndChar

StartChar: xi
Encoding: 958 958 443
Width: 448
Flags: W
LayerCount: 2
Fore
SplineSet
294.442382812 22 m 128,-1,1
 307.942382812 -6 307.942382812 -6 296.942382812 -54 c 0,2,3
 281.942382812 -119 281.942382812 -119 237.442382812 -155.5 c 128,-1,4
 192.942382812 -192 192.942382812 -192 127.942382812 -192 c 0,5,6
 85.9423828125 -192 85.9423828125 -192 53.9423828125 -183 c 2,7,-1
 39.9423828125 -180 l 1,8,-1
 72.9423828125 -91 l 1,9,10
 121.942382812 -95 121.942382812 -95 140.942382812 -95 c 128,-1,11
 159.942382812 -95 159.942382812 -95 171.942382812 -92 c 0,12,13
 182.942382812 -89 182.942382812 -89 187.942382812 -86 c 0,14,15
 197.942382812 -78 197.942382812 -78 202.942382812 -58 c 0,16,17
 206.942382812 -40 206.942382812 -40 203.942382812 -31 c 0,18,19
 197.942382812 -14 197.942382812 -14 116.942382812 -1 c 0,20,21
 43.9423828125 11 43.9423828125 11 16.4423828125 49.5 c 128,-1,22
 -11.0576171875 88 -11.0576171875 88 4.9423828125 156 c 0,23,24
 21.9423828125 228 21.9423828125 228 88.9423828125 274 c 0,25,26
 103.942382812 284 103.942382812 284 120.942382812 293 c 1,27,28
 68.9423828125 330 68.9423828125 330 75.9423828125 404 c 0,29,30
 76.9423828125 417 76.9423828125 417 80.9423828125 430 c 0,31,32
 95.9423828125 496 95.9423828125 496 151.942382812 543 c 1,33,-1
 109.942382812 543 l 1,34,-1
 132.942382812 640 l 1,35,-1
 448.942382812 640 l 1,36,-1
 426.942382812 543 l 1,37,-1
 333.942382812 543 l 2,38,39
 295.942382812 543 295.942382812 543 260.942382812 527 c 0,40,41
 216.942382812 507 216.942382812 507 191.942382812 472 c 0,42,43
 178.942382812 454 178.942382812 454 174.942382812 434 c 0,44,45
 162.942382812 384 162.942382812 384 189.942382812 360 c 0,46,47
 216.942382812 336 216.942382812 336 303.942382812 336 c 2,48,-1
 317.942382812 336 l 1,49,-1
 294.942382812 240 l 1,50,-1
 281.942382812 240 l 2,51,52
 182.942382812 240 182.942382812 240 140.942382812 218 c 0,53,54
 107.942382812 198 107.942382812 198 98.9423828125 159 c 0,55,56
 91.9423828125 128 91.9423828125 128 104.942382812 109 c 0,57,58
 123.942382812 89 123.942382812 89 178.942382812 81 c 0,59,60
 228.942382812 72 228.942382812 72 254.942382812 61 c 128,-1,0
 280.942382812 50 280.942382812 50 294.442382812 22 c 128,-1,1
EndSplineSet
EndChar

StartChar: pi
Encoding: 960 960 445
Width: 448
Flags: W
LayerCount: 2
Fore
SplineSet
90.5 403 m 1,0,-1
 426.5 403 l 1,1,-1
 359.5 112 l 1,2,3
 354.5 90 354.5 90 350.5 57 c 0,4,5
 351.5 53 351.5 53 355.5 48.5 c 128,-1,6
 359.5 44 359.5 44 364.5 44 c 0,7,8
 383.5 44 383.5 44 407.5 76 c 2,9,-1
 434.5 111 l 1,10,-1
 450.5 101 l 1,11,12
 408.5 38 408.5 38 379 14 c 128,-1,13
 349.5 -10 349.5 -10 312.5 -10 c 0,14,15
 281.5 -10 281.5 -10 268.5 8.5 c 128,-1,16
 255.5 27 255.5 27 256 49 c 128,-1,17
 256.5 71 256.5 71 264.5 106 c 1,18,-1
 311.5 306 l 1,19,-1
 161.5 306 l 1,20,-1
 96.5 24 l 1,21,-1
 -2.5 0 l 1,22,-1
 90.5 403 l 1,0,-1
EndSplineSet
EndChar

StartChar: rho
Encoding: 961 961 446
Width: 448
Flags: W
LayerCount: 2
Fore
SplineSet
308.779296875 413 m 0,0,1
 406.779296875 413 406.779296875 413 432.779296875 352 c 0,2,3
 457.779296875 294 457.779296875 294 436.279296875 202 c 128,-1,4
 414.779296875 110 414.779296875 110 364.779296875 52 c 0,5,6
 311.779296875 -8 311.779296875 -8 223.779296875 -8 c 0,7,8
 171.779296875 -8 171.779296875 -8 141.779296875 12 c 1,9,-1
 100.779296875 -168 l 1,10,-1
 1.779296875 -192 l 1,11,-1
 83.779296875 163 l 2,12,13
 105.779296875 260 105.779296875 260 125.779296875 303 c 0,14,15
 152.779296875 361 152.779296875 361 197.779296875 387 c 0,16,17
 242.779296875 413 242.779296875 413 308.779296875 413 c 0,0,1
233.779296875 89 m 0,18,19
 258.779296875 89 258.779296875 89 276.779296875 96 c 0,20,21
 299.779296875 106 299.779296875 106 314.779296875 136 c 0,22,23
 328.779296875 166 328.779296875 166 341.279296875 219 c 128,-1,24
 353.779296875 272 353.779296875 272 353.779296875 300 c 0,25,26
 351.779296875 328 351.779296875 328 337.779296875 338.5 c 128,-1,27
 323.779296875 349 323.779296875 349 293.779296875 349 c 0,28,29
 268.779296875 349 268.779296875 349 249.779296875 341 c 0,30,31
 228.779296875 331 228.779296875 331 216.779296875 307 c 128,-1,32
 204.779296875 283 204.779296875 283 185.779296875 200 c 0,33,34
 184.779296875 195 184.779296875 195 183.779296875 191 c 2,35,-1
 165.779296875 116 l 1,36,37
 180.779296875 89 180.779296875 89 233.779296875 89 c 0,18,19
EndSplineSet
EndChar

StartChar: uni03C2
Encoding: 962 962 447
Width: 448
Flags: W
LayerCount: 2
Fore
SplineSet
269.830078125 313 m 0,0,1
 218.830078125 313 218.830078125 313 192.830078125 294 c 0,2,3
 178.830078125 284 178.830078125 284 168.830078125 266 c 0,4,5
 153.830078125 237 153.830078125 237 141.330078125 184.5 c 128,-1,6
 128.830078125 132 128.830078125 132 130.830078125 105 c 0,7,8
 132.830078125 81 132.830078125 81 151.830078125 71 c 0,9,10
 171.830078125 60 171.830078125 60 219.830078125 55 c 0,11,12
 281.830078125 50 281.830078125 50 311.830078125 25 c 0,13,14
 344.830078125 -2 344.830078125 -2 330.830078125 -66 c 0,15,16
 316.830078125 -125 316.830078125 -125 273.330078125 -158.5 c 128,-1,17
 229.830078125 -192 229.830078125 -192 164.830078125 -192 c 0,18,19
 122.830078125 -192 122.830078125 -192 91.830078125 -183 c 2,20,-1
 77.830078125 -180 l 1,21,-1
 110.830078125 -91 l 1,22,23
 158.830078125 -95 158.830078125 -95 178.330078125 -95 c 128,-1,24
 197.830078125 -95 197.830078125 -95 209.830078125 -92 c 0,25,26
 220.830078125 -89 220.830078125 -89 224.830078125 -86 c 0,27,28
 234.830078125 -78 234.830078125 -78 239.830078125 -57.5 c 128,-1,29
 244.830078125 -37 244.830078125 -37 234.830078125 -28 c 0,30,31
 220.830078125 -17 220.830078125 -17 171.830078125 -14 c 0,32,33
 73.830078125 -7 73.830078125 -7 49.830078125 50 c 0,34,35
 25.830078125 105 25.830078125 105 47.330078125 197.5 c 128,-1,36
 68.830078125 290 68.830078125 290 114.830078125 343 c 0,37,38
 173.830078125 411 173.830078125 411 288.830078125 410 c 0,39,40
 355.830078125 410 355.830078125 410 400.830078125 390 c 2,41,-1
 410.830078125 386 l 1,42,-1
 372.830078125 296 l 1,43,-1
 359.830078125 300 l 2,44,45
 319.830078125 313 319.830078125 313 269.830078125 313 c 0,0,1
EndSplineSet
EndChar

StartChar: sigma
Encoding: 963 963 448
Width: 448
Flags: W
LayerCount: 2
Fore
SplineSet
427.720703125 306 m 1,0,-1
 361.720703125 306 l 1,1,2
 375.720703125 259 375.720703125 259 359.720703125 186 c 0,3,4
 339.720703125 98 339.720703125 98 287.720703125 44 c 0,5,6
 233.720703125 -13 233.720703125 -13 149.720703125 -13 c 0,7,8
 37.720703125 -13 37.720703125 -13 11.720703125 46 c 0,9,10
 -13.279296875 103 -13.279296875 103 8.220703125 195 c 128,-1,11
 29.720703125 287 29.720703125 287 80.720703125 344 c 0,12,13
 133.720703125 403 133.720703125 403 246.720703125 403 c 2,14,-1
 449.720703125 403 l 1,15,-1
 427.720703125 306 l 1,0,-1
172.720703125 84 m 0,16,17
 207.720703125 84 207.720703125 84 227.720703125 106 c 0,18,19
 249.720703125 131 249.720703125 131 264.720703125 195 c 128,-1,20
 279.720703125 259 279.720703125 259 268.720703125 284 c 0,21,22
 258.720703125 306 258.720703125 306 224.720703125 306 c 0,23,24
 197.720703125 306 197.720703125 306 178.720703125 300.5 c 128,-1,25
 159.720703125 295 159.720703125 295 145.720703125 284 c 0,26,27
 132.720703125 273 132.720703125 273 122.720703125 250.5 c 128,-1,28
 112.720703125 228 112.720703125 228 105.720703125 195 c 0,29,30
 90.720703125 130 90.720703125 130 103.720703125 106 c 0,31,32
 119.720703125 84 119.720703125 84 172.720703125 84 c 0,16,17
EndSplineSet
EndChar

StartChar: upsilon
Encoding: 965 965 450
Width: 448
Flags: W
LayerCount: 2
Fore
SplineSet
203.522460938 448 m 1,0,1
 173.522460938 342 173.522460938 342 150.522460938 238 c 0,2,3
 133.522460938 165 133.522460938 165 134.522460938 127 c 0,4,5
 135.522460938 104 135.522460938 104 150.522460938 93 c 0,6,7
 164.522460938 85 164.522460938 85 192.522460938 85 c 128,-1,8
 220.522460938 85 220.522460938 85 239.022460938 97 c 128,-1,9
 257.522460938 109 257.522460938 109 273.522460938 141 c 0,10,11
 287.522460938 173 287.522460938 173 302.522460938 235 c 0,12,13
 314.522460938 285 314.522460938 285 313.522460938 312 c 0,14,15
 312.522460938 339 312.522460938 339 301.022460938 352.5 c 128,-1,16
 289.522460938 366 289.522460938 366 264.522460938 379 c 2,17,-1
 251.522460938 386 l 1,18,-1
 310.522460938 465 l 1,19,-1
 324.522460938 459 l 2,20,21
 384.522460938 433 384.522460938 433 403.522460938 381 c 128,-1,22
 422.522460938 329 422.522460938 329 399.522460938 232 c 0,23,24
 373.522460938 119 373.522460938 119 321.522460938 56 c 0,25,26
 293.522460938 23 293.522460938 23 258.522460938 6 c 0,27,28
 219.522460938 -12 219.522460938 -12 167.522460938 -12 c 0,29,30
 109.522460938 -12 109.522460938 -12 78.5224609375 11 c 0,31,32
 42.5224609375 38 42.5224609375 38 36.5224609375 96 c 0,33,34
 32.5224609375 139 32.5224609375 139 53.5224609375 232 c 0,35,36
 76.5224609375 331 76.5224609375 331 112.522460938 434 c 2,37,-1
 117.522460938 448 l 1,38,-1
 203.522460938 448 l 1,0,1
EndSplineSet
EndChar

StartChar: chi
Encoding: 967 967 452
Width: 448
Flags: W
LayerCount: 2
Fore
SplineSet
219.5 -201 m 1,0,-1
 221.5 -185 l 2,1,2
 237.5 -83 237.5 -83 232.5 -26 c 0,3,4
 228.5 17 228.5 17 211.5 53 c 1,5,-1
 27.5 -203 l 1,6,-1
 -51.5 -173 l 1,7,-1
 149.5 112 l 1,8,9
 113.5 173 113.5 173 103 231.5 c 128,-1,10
 92.5 290 92.5 290 96.5 375 c 2,11,-1
 97.5 390 l 1,12,-1
 195.5 409 l 1,13,-1
 194.5 394 l 2,14,15
 191.5 314 191.5 314 198.5 265 c 0,16,17
 203.5 229 203.5 229 217.5 195 c 1,18,-1
 385.5 463 l 1,19,-1
 345.5 377 l 0,20,21
 369.5 413 369.5 413 414.5 413 c 0,22,23
 451.5 413 451.5 413 469.5 388 c 128,-1,24
 487.5 363 487.5 363 499.5 299 c 1,25,-1
 479.5 288 l 1,26,-1
 468.5 327 l 2,27,28
 459.5 360 459.5 360 441.5 360 c 0,29,30
 438.5 360 438.5 360 436 358 c 128,-1,31
 433.5 356 433.5 356 429.5 351 c 0,32,33
 425.5 346 425.5 346 425.5 345 c 0,34,-1
 448.5 378 l 1,35,-1
 276.5 131 l 1,36,37
 314.5 72 314.5 72 323.5 4.5 c 128,-1,38
 332.5 -63 332.5 -63 316.5 -176 c 2,39,-1
 314.5 -191 l 1,40,-1
 219.5 -201 l 1,0,-1
EndSplineSet
EndChar

StartChar: psi
Encoding: 968 968 453
Width: 448
Flags: W
LayerCount: 2
Fore
SplineSet
393.462890625 235.5 m 128,-1,1
 371.462890625 139 371.462890625 139 346.462890625 96 c 0,2,3
 299.462890625 12 299.462890625 12 217.462890625 -4 c 1,4,-1
 173.462890625 -192 l 1,5,-1
 60.462890625 -192 l 1,6,-1
 103.462890625 -4 l 1,7,8
 28.462890625 13 28.462890625 13 20.462890625 95 c 0,9,10
 15.462890625 138 15.462890625 138 37.462890625 232 c 0,11,12
 60.462890625 332 60.462890625 332 96.462890625 434 c 2,13,-1
 101.462890625 448 l 1,14,-1
 183.462890625 448 l 1,15,16
 151.462890625 332 151.462890625 332 125.462890625 218 c 0,17,18
 107.462890625 140 107.462890625 140 107.462890625 97 c 0,19,20
 107.462890625 73 107.462890625 73 124.462890625 60 c 1,21,-1
 252.462890625 640 l 1,22,-1
 366.462890625 640 l 1,23,-1
 227.462890625 61 l 1,24,25
 249.462890625 74 249.462890625 74 260.462890625 98 c 0,26,27
 279.462890625 138 279.462890625 138 298.462890625 218 c 0,28,29
 324.462890625 332 324.462890625 332 346.462890625 448 c 1,30,-1
 428.462890625 448 l 1,31,0
 415.462890625 332 415.462890625 332 393.462890625 235.5 c 128,-1,1
EndSplineSet
EndChar

StartChar: omega
Encoding: 969 969 454
Width: 448
Flags: W
LayerCount: 2
Fore
SplineSet
305 64 m 1,0,-1
 290 0 l 1,1,-1
 204 0 l 1,2,-1
 219 64 l 1,3,-1
 166 64 l 1,4,-1
 152 0 l 1,5,-1
 66 0 l 1,6,-1
 80 64 l 1,7,-1
 23 64 l 1,8,-1
 87 339 l 1,9,-1
 144 339 l 1,10,-1
 159 403 l 1,11,-1
 245 403 l 1,12,-1
 222 306 l 1,13,-1
 166 306 l 1,14,-1
 117 97 l 1,15,-1
 145 97 l 1,16,-1
 181 255 l 1,17,-1
 292 255 l 1,18,-1
 256 97 l 1,19,-1
 283 97 l 1,20,-1
 331 306 l 1,21,-1
 274 306 l 1,22,-1
 297 403 l 1,23,-1
 383 403 l 1,24,-1
 368 339 l 1,25,-1
 425 339 l 1,26,-1
 362 64 l 1,27,-1
 305 64 l 1,0,-1
EndSplineSet
EndChar

StartChar: uni03D5
Encoding: 981 981 466
Width: 448
Flags: W
LayerCount: 2
Fore
SplineSet
131.564453125 52 m 1,0,-1
 211.564453125 400 l 1,1,2
 255.564453125 403 255.564453125 403 279.564453125 403 c 0,3,4
 374.564453125 403 374.564453125 403 401.564453125 351 c 0,5,6
 427.564453125 300 427.564453125 300 402.564453125 195 c 0,7,8
 382.564453125 106 382.564453125 106 338.564453125 50 c 0,9,10
 296.564453125 -3 296.564453125 -3 231.564453125 -17 c 1,11,-1
 190.564453125 -192 l 1,12,-1
 75.564453125 -192 l 1,13,-1
 115.564453125 -17 l 1,14,15
 44.564453125 0 44.564453125 0 34.564453125 75 c 0,16,17
 28.564453125 115 28.564453125 115 48.564453125 202 c 0,18,19
 69.564453125 295 69.564453125 295 104.564453125 390 c 2,20,-1
 109.564453125 403 l 1,21,-1
 195.564453125 403 l 1,22,23
 165.564453125 295 165.564453125 295 141.564453125 190 c 0,24,25
 124.564453125 116 124.564453125 116 124.564453125 77 c 0,26,27
 125.564453125 62 125.564453125 62 131.564453125 52 c 1,0,-1
307.564453125 315 m 1,28,-1
 250.564453125 66 l 1,29,30
 281.564453125 97 281.564453125 97 304.564453125 195 c 0,31,32
 321.564453125 269 321.564453125 269 317.564453125 296 c 0,33,34
 314.564453125 309 314.564453125 309 307.564453125 315 c 1,28,-1
EndSplineSet
EndChar

StartChar: zero
Encoding: 48 48 467
Width: 448
Flags: W
LayerCount: 2
Fore
SplineSet
176 72 m 128,-1,1
 215 72 215 72 242 96 c 0,2,3
 291 139 291 139 326 288 c 0,4,5
 337 334 337 334 342 370 c 1,6,-1
 274 268 l 1,7,-1
 120 96 l 2,8,9
 120 95 l 0,10,0
 137 72 137 72 176 72 c 128,-1,1
23 63 m 1,11,12
 21 67 21 67 20 72 c 0,13,14
 -7 153 -7 153 24 289 c 128,-1,15
 55 425 55 425 120 505 c 0,16,17
 188 589 188 589 296 588 c 0,18,19
 368 588 368 588 404 554 c 1,20,-1
 470 637 l 1,21,-1
 495 613 l 1,22,-1
 431 510 l 2,23,24
 432 507 432 507 433 505 c 0,25,26
 460 426 460 426 427 287 c 0,27,28
 396 152 396 152 332 71 c 0,29,30
 264 -13 264 -13 156 -13 c 0,31,32
 86 -13 86 -13 50 21 c 1,33,-1
 -26 -74 l 1,34,-1
 -47 -47 l 1,35,-1
 23 63 l 1,11,12
191 316 m 1,36,-1
 333 477 l 2,37,38
 332 479 332 479 331 480 c 0,39,40
 314 504 314 504 275 504 c 0,41,42
 251 504 251 504 232 495 c 0,43,44
 208 484 208 484 188 458 c 0,45,46
 152 406 152 406 125 288 c 0,47,48
 113 235 113 235 108 196 c 1,49,-1
 191 316 l 1,36,-1
EndSplineSet
Substitution2: "'sinf' Scientific Inferiors in Latin lookup 17 subtable" uni2080
Substitution2: "'zero' Slashed Zero in Latin lookup 14 subtable" zero.zero
Substitution2: "'dnom' Denominators in Latin lookup 11 subtable" zero.dnom
Substitution2: "'numr' Numerators in Latin lookup 10 subtable" zero.numr
Substitution2: "'sups' Superscript in Latin lookup 9 subtable" uni2070
Substitution2: "'subs' Subscript in Latin lookup 8 subtable" uni2080
AlternateSubs2: "'aalt' Access All Alternates in Latin lookup 1 subtable" uni2080 uni2070 zero.numr zero.dnom zero.zero
EndChar

StartChar: one
Encoding: 49 49 468
Width: 448
Flags: W
LayerCount: 2
Fore
SplineSet
339.5 580 m 1,0,-1
 206.5 0 l 1,1,-1
 108.5 0 l 1,2,-1
 208.5 433 l 1,3,-1
 154.5 395 l 1,4,-1
 108.5 469 l 1,5,-1
 271.5 580 l 1,6,-1
 339.5 580 l 1,0,-1
EndSplineSet
Substitution2: "'sinf' Scientific Inferiors in Latin lookup 17 subtable" uni2081
Substitution2: "'dnom' Denominators in Latin lookup 11 subtable" one.dnom
Substitution2: "'numr' Numerators in Latin lookup 10 subtable" one.numr
Substitution2: "'sups' Superscript in Latin lookup 9 subtable" uni00B9
Substitution2: "'subs' Subscript in Latin lookup 8 subtable" uni2081
AlternateSubs2: "'aalt' Access All Alternates in Latin lookup 1 subtable" uni2081 uni00B9 one.numr one.dnom
EndChar

StartChar: two
Encoding: 50 50 469
Width: 448
Flags: W
LayerCount: 2
Fore
SplineSet
136.581054688 559 m 2,0,1
 198.581054688 576 198.581054688 576 282.581054688 576 c 0,2,3
 389.581054688 576 389.581054688 576 433.081054688 535 c 128,-1,4
 476.581054688 494 476.581054688 494 455.581054688 403 c 0,5,6
 442.581054688 347 442.581054688 347 416.581054688 310 c 0,7,8
 389.581054688 272 389.581054688 272 353.081054688 249.5 c 128,-1,9
 316.581054688 227 316.581054688 227 257.581054688 208 c 0,10,11
 179.581054688 184 179.581054688 184 149.581054688 161 c 0,12,13
 122.581054688 139 122.581054688 139 112.581054688 100 c 2,14,-1
 111.581054688 97 l 1,15,-1
 377.581054688 97 l 1,16,-1
 355.581054688 0 l 1,17,-1
 -14.4189453125 0 l 1,18,-1
 11.5810546875 93 l 2,19,20
 28.5810546875 152 28.5810546875 152 59.5810546875 190 c 128,-1,21
 90.5810546875 228 90.5810546875 228 125.081054688 247 c 128,-1,22
 159.581054688 266 159.581054688 266 223.581054688 285 c 0,23,24
 287.581054688 304 287.581054688 304 316.581054688 326 c 0,25,26
 342.581054688 349 342.581054688 349 351.581054688 392 c 0,27,28
 363.581054688 442 363.581054688 442 346.581054688 460 c 0,29,30
 326.581054688 479 326.581054688 479 254.581054688 479 c 0,31,32
 197.581054688 479 197.581054688 479 135.581054688 465 c 2,33,-1
 119.581054688 462 l 1,34,-1
 121.581054688 555 l 1,35,-1
 136.581054688 559 l 2,0,1
EndSplineSet
Substitution2: "'sinf' Scientific Inferiors in Latin lookup 17 subtable" uni2082
Substitution2: "'dnom' Denominators in Latin lookup 11 subtable" two.dnom
Substitution2: "'numr' Numerators in Latin lookup 10 subtable" two.numr
Substitution2: "'sups' Superscript in Latin lookup 9 subtable" uni00B2
Substitution2: "'subs' Subscript in Latin lookup 8 subtable" uni2082
AlternateSubs2: "'aalt' Access All Alternates in Latin lookup 1 subtable" uni2082 uni00B2 two.numr two.dnom
EndChar

StartChar: three
Encoding: 51 51 470
Width: 448
InSpiro: 1
Flags: W
LayerCount: 2
Fore
SplineSet
371.72265625 284 m 1,0,1
 420.72265625 243 420.72265625 243 403.72265625 171 c 0,2,3
 382.72265625 82 382.72265625 82 289.72265625 39 c 0,4,5
 191.72265625 -1 191.72265625 -1 10.72265625 -12 c 2,6,-1
 -5.27734375 -13 l 1,7,-1
 7.72265625 80 l 1,8,9
 126.72265625 92 126.72265625 92 194.72265625 105 c 0,10,11
 226.72265625 111 226.72265625 111 248.72265625 118.5 c 128,-1,12
 270.72265625 126 270.72265625 126 279.72265625 133 c 0,13,14
 296.72265625 147 296.72265625 147 301.72265625 169 c 128,-1,15
 306.72265625 191 306.72265625 191 297.72265625 205 c 0,16,17
 272.72265625 233 272.72265625 233 122.72265625 248 c 2,18,-1
 108.72265625 250 l 1,19,-1
 138.72265625 340 l 1,20,-1
 153.72265625 338 l 2,21,22
 233.72265625 331 233.72265625 331 286.72265625 319 c 1,23,24
 336.72265625 391 336.72265625 391 345.72265625 420 c 1,25,26
 352.72265625 449 352.72265625 449 332.72265625 468 c 0,27,28
 324.72265625 475 324.72265625 475 301.72265625 481 c 128,-1,29
 278.72265625 487 278.72265625 487 237.72265625 487 c 0,30,31
 200.72265625 487 200.72265625 487 156.72265625 480 c 2,32,-1
 140.72265625 478 l 1,33,-1
 149.72265625 570 l 1,34,-1
 164.72265625 573 l 2,35,36
 213.72265625 583 213.72265625 583 270.72265625 584 c 0,37,38
 373.72265625 584 373.72265625 584 415.72265625 554 c 0,39,40
 467.72265625 516 467.72265625 516 447.72265625 432 c 0,41,42
 432.72265625 365 432.72265625 365 371.72265625 284 c 1,0,1
EndSplineSet
Substitution2: "'sinf' Scientific Inferiors in Latin lookup 17 subtable" uni2083
Substitution2: "'dnom' Denominators in Latin lookup 11 subtable" three.dnom
Substitution2: "'numr' Numerators in Latin lookup 10 subtable" three.numr
Substitution2: "'sups' Superscript in Latin lookup 9 subtable" uni00B3
Substitution2: "'subs' Subscript in Latin lookup 8 subtable" uni2083
AlternateSubs2: "'aalt' Access All Alternates in Latin lookup 1 subtable" uni2083 uni00B3 three.numr three.dnom
EndChar

StartChar: four
Encoding: 52 52 471
Width: 448
InSpiro: 1
Flags: W
LayerCount: 2
Fore
SplineSet
315.5 0 m 1,0,-1
 203.5 0 l 1,1,-1
 259.5 182 l 1,2,-1
 14.5 182 l 1,3,-1
 104.5 586 l 1,4,-1
 197.5 584 l 1,5,-1
 130.5 280 l 1,6,-1
 275.5 284 l 1,7,-1
 316.5 506 l 1,8,-1
 433.5 514 l 1,9,-1
 373.5 290 l 1,10,-1
 419.5 297 l 1,11,-1
 394.5 181 l 1,12,-1
 349.5 186 l 1,13,-1
 315.5 0 l 1,0,-1
EndSplineSet
Substitution2: "'sinf' Scientific Inferiors in Latin lookup 17 subtable" uni2084
Substitution2: "'dnom' Denominators in Latin lookup 11 subtable" four.dnom
Substitution2: "'numr' Numerators in Latin lookup 10 subtable" four.numr
Substitution2: "'sups' Superscript in Latin lookup 9 subtable" uni2074
Substitution2: "'subs' Subscript in Latin lookup 8 subtable" uni2084
AlternateSubs2: "'aalt' Access All Alternates in Latin lookup 1 subtable" uni2084 uni2074 four.numr four.dnom
EndChar

StartChar: five
Encoding: 53 53 472
Width: 448
Flags: W
LayerCount: 2
Fore
SplineSet
379 302 m 0,0,1
 417 262 417 262 397 176 c 0,2,3
 375 79 375 79 306 35 c 0,4,5
 252 0 252 0 154 0 c 0,6,7
 69 0 69 0 -7 23 c 2,8,-1
 -21 27 l 1,9,-1
 22 120 l 1,10,-1
 36 117 l 2,11,12
 109 97 109 97 171 97 c 0,13,14
 233 97 233 97 261 114 c 0,15,16
 286 131 286 131 295 172 c 0,17,18
 300 194 300 194 299 208.5 c 128,-1,19
 298 223 298 223 292 230 c 0,20,21
 275 244 275 244 214 244 c 0,22,23
 162 244 162 244 76 230 c 1,24,-1
 51 263 l 1,25,-1
 136 576 l 1,26,-1
 469 576 l 1,27,-1
 447 479 l 1,28,-1
 211 479 l 1,29,-1
 169 336 l 1,30,31
 211 341 211 341 249.5 341.5 c 128,-1,32
 288 342 288 342 313 337 c 0,33,34
 354 328 354 328 379 302 c 0,0,1
EndSplineSet
Substitution2: "'sinf' Scientific Inferiors in Latin lookup 17 subtable" uni2085
Substitution2: "'dnom' Denominators in Latin lookup 11 subtable" five.dnom
Substitution2: "'numr' Numerators in Latin lookup 10 subtable" five.numr
Substitution2: "'sups' Superscript in Latin lookup 9 subtable" uni2075
Substitution2: "'subs' Subscript in Latin lookup 8 subtable" uni2085
AlternateSubs2: "'aalt' Access All Alternates in Latin lookup 1 subtable" uni2085 uni2075 five.numr five.dnom
EndChar

StartChar: six
Encoding: 54 54 473
Width: 448
Flags: W
LayerCount: 2
Fore
SplineSet
370.008789062 299.5 m 128,-1,1
 405.008789062 255 405.008789062 255 385.008789062 170 c 0,2,3
 366.008789062 90 366.008789062 90 306.008789062 41 c 128,-1,4
 246.008789062 -8 246.008789062 -8 157.008789062 -8 c 0,5,6
 54.0087890625 -8 54.0087890625 -8 22.0087890625 58 c 0,7,8
 -8.9912109375 121 -8.9912109375 121 20.0087890625 245 c 128,-1,9
 49.0087890625 369 49.0087890625 369 136.008789062 468 c 0,10,11
 230.008789062 568 230.008789062 568 427.008789062 583 c 2,12,-1
 442.008789062 584 l 1,13,-1
 433.008789062 494 l 1,14,-1
 417.008789062 492 l 2,15,16
 301.008789062 480 301.008789062 480 234.008789062 435 c 0,17,18
 177.008789062 397 177.008789062 397 148.008789062 332 c 1,19,20
 196.008789062 344 196.008789062 344 249.008789062 344 c 0,21,0
 335.008789062 344 335.008789062 344 370.008789062 299.5 c 128,-1,1
285.508789062 171 m 128,-1,23
 294.008789062 208 294.008789062 208 283.008789062 230 c 0,24,25
 269.008789062 250 269.008789062 250 219.008789062 250 c 128,-1,26
 169.008789062 250 169.008789062 250 118.008789062 236 c 1,27,28
 102.008789062 164 102.008789062 164 114.008789062 124 c 0,29,30
 127.008789062 89 127.008789062 89 179.008789062 89 c 0,31,32
 231.008789062 89 231.008789062 89 254.008789062 110 c 0,33,22
 277.008789062 134 277.008789062 134 285.508789062 171 c 128,-1,23
EndSplineSet
Substitution2: "'sinf' Scientific Inferiors in Latin lookup 17 subtable" uni2086
Substitution2: "'dnom' Denominators in Latin lookup 11 subtable" six.dnom
Substitution2: "'numr' Numerators in Latin lookup 10 subtable" six.numr
Substitution2: "'sups' Superscript in Latin lookup 9 subtable" uni2076
Substitution2: "'subs' Subscript in Latin lookup 8 subtable" uni2086
AlternateSubs2: "'aalt' Access All Alternates in Latin lookup 1 subtable" uni2086 uni2076 six.numr six.dnom
EndChar

StartChar: seven
Encoding: 55 55 474
Width: 448
Flags: W
LayerCount: 2
Fore
SplineSet
319 479 m 1,0,-1
 63 479 l 1,1,-1
 85 576 l 1,2,-1
 448 576 l 1,3,-1
 436 525 l 1,4,-1
 436 524 l 1,5,-1
 411 450 l 2,6,7
 392 392 392 392 365 332 c 1,8,-1
 420 332 l 1,9,-1
 398 241 l 1,10,-1
 314 241 l 1,11,12
 289 199 289 199 287 195 c 0,13,14
 219 102 219 102 74 -10 c 2,15,-1
 60 -22 l 1,16,-1
 0 40 l 1,17,-1
 12 52 l 2,18,19
 153 185 153 185 192 237 c 2,20,-1
 194 240 l 1,21,-1
 63 240 l 1,22,-1
 85 332 l 1,23,-1
 256 332 l 1,24,25
 289 390 289 390 314 465 c 2,26,-1
 319 479 l 1,0,-1
EndSplineSet
Substitution2: "'sinf' Scientific Inferiors in Latin lookup 17 subtable" uni2087
Substitution2: "'dnom' Denominators in Latin lookup 11 subtable" seven.dnom
Substitution2: "'numr' Numerators in Latin lookup 10 subtable" seven.numr
Substitution2: "'sups' Superscript in Latin lookup 9 subtable" uni2077
Substitution2: "'subs' Subscript in Latin lookup 8 subtable" uni2087
AlternateSubs2: "'aalt' Access All Alternates in Latin lookup 1 subtable" uni2087 uni2077 seven.numr seven.dnom
EndChar

